  0
SECTION
  2
HEADER
  9
$ACADVER
  1
AC1015
  9
$ACADMAINTVER
 70
     6
  9
$DWGCODEPAGE
  3
ANSI_1256
  9
$INSBASE
 10
0.0
 20
0.0
 30
0.0
  9
$EXTMIN
 10
1.000000000000000E+20
 20
1.000000000000000E+20
 30
1.000000000000000E+20
  9
$EXTMAX
 10
-1.000000000000000E+20
 20
-1.000000000000000E+20
 30
-1.000000000000000E+20
  9
$LIMMIN
 10
0.0
 20
0.0
  9
$LIMMAX
 10
12.0
 20
9.0
  9
$ORTHOMODE
 70
     0
  9
$REGENMODE
 70
     1
  9
$FILLMODE
 70
     1
  9
$QTEXTMODE
 70
     0
  9
$MIRRTEXT
 70
     1
  9
$LTSCALE
 40
1.0
  9
$ATTMODE
 70
     1
  9
$TEXTSIZE
 40
0.2
  9
$TRACEWID
 40
0.05
  9
$TEXTSTYLE
  7
Standard
  9
$CLAYER
  8
0
  9
$CELTYPE
  6
ByLayer
  9
$CECOLOR
 62
   256
  9
$CELTSCALE
 40
1.0
  9
$DISPSILH
 70
     0
  9
$DIMSCALE
 40
1.0
  9
$DIMASZ
 40
0.18
  9
$DIMEXO
 40
0.0625
  9
$DIMDLI
 40
0.38
  9
$DIMRND
 40
0.0
  9
$DIMDLE
 40
0.0
  9
$DIMEXE
 40
0.18
  9
$DIMTP
 40
0.0
  9
$DIMTM
 40
0.0
  9
$DIMTXT
 40
0.18
  9
$DIMCEN
 40
0.09
  9
$DIMTSZ
 40
0.0
  9
$DIMTOL
 70
     0
  9
$DIMLIM
 70
     0
  9
$DIMTIH
 70
     1
  9
$DIMTOH
 70
     1
  9
$DIMSE1
 70
     0
  9
$DIMSE2
 70
     0
  9
$DIMTAD
 70
     0
  9
$DIMZIN
 70
     0
  9
$DIMBLK
  1

  9
$DIMASO
 70
     1
  9
$DIMSHO
 70
     1
  9
$DIMPOST
  1

  9
$DIMAPOST
  1

  9
$DIMALT
 70
     0
  9
$DIMALTD
 70
     2
  9
$DIMALTF
 40
25.4
  9
$DIMLFAC
 40
1.0
  9
$DIMTOFL
 70
     0
  9
$DIMTVP
 40
0.0
  9
$DIMTIX
 70
     0
  9
$DIMSOXD
 70
     0
  9
$DIMSAH
 70
     0
  9
$DIMBLK1
  1

  9
$DIMBLK2
  1

  9
$DIMSTYLE
  2
Standard
  9
$DIMCLRD
 70
     0
  9
$DIMCLRE
 70
     0
  9
$DIMCLRT
 70
     0
  9
$DIMTFAC
 40
1.0
  9
$DIMGAP
 40
0.09
  9
$DIMJUST
 70
     0
  9
$DIMSD1
 70
     0
  9
$DIMSD2
 70
     0
  9
$DIMTOLJ
 70
     1
  9
$DIMTZIN
 70
     0
  9
$DIMALTZ
 70
     0
  9
$DIMALTTZ
 70
     0
  9
$DIMUPT
 70
     0
  9
$DIMDEC
 70
     4
  9
$DIMTDEC
 70
     4
  9
$DIMALTU
 70
     2
  9
$DIMALTTD
 70
     2
  9
$DIMTXSTY
  7
Standard
  9
$DIMAUNIT
 70
     0
  9
$DIMADEC
 70
     0
  9
$DIMALTRND
 40
0.0
  9
$DIMAZIN
 70
     0
  9
$DIMDSEP
 70
    46
  9
$DIMATFIT
 70
     3
  9
$DIMFRAC
 70
     0
  9
$DIMLDRBLK
  1

  9
$DIMLUNIT
 70
     2
  9
$DIMLWD
 70
    -2
  9
$DIMLWE
 70
    -2
  9
$DIMTMOVE
 70
     0
  9
$LUNITS
 70
     2
  9
$LUPREC
 70
     4
  9
$SKETCHINC
 40
0.1
  9
$FILLETRAD
 40
0.5
  9
$AUNITS
 70
     0
  9
$AUPREC
 70
     0
  9
$MENU
  1
.
  9
$ELEVATION
 40
0.0
  9
$PELEVATION
 40
0.0
  9
$THICKNESS
 40
0.0
  9
$LIMCHECK
 70
     0
  9
$CHAMFERA
 40
0.5
  9
$CHAMFERB
 40
0.5
  9
$CHAMFERC
 40
1.0
  9
$CHAMFERD
 40
0.0
  9
$SKPOLY
 70
     0
  9
$TDCREATE
 40
2458942.974664734
  9
$TDUCREATE
 40
2458942.849664734
  9
$TDUPDATE
 40
2458942.974664745
  9
$TDUUPDATE
 40
2458942.849664745
  9
$TDINDWG
 40
0.0000000116
  9
$TDUSRTIMER
 40
0.0000000116
  9
$USRTIMER
 70
     1
  9
$ANGBASE
 50
0.0
  9
$ANGDIR
 70
     0
  9
$PDMODE
 70
     0
  9
$PDSIZE
 40
0.0
  9
$PLINEWID
 40
0.0
  9
$SPLFRAME
 70
     0
  9
$SPLINETYPE
 70
     6
  9
$SPLINESEGS
 70
     8
  9
$HANDSEED
  5
A7
  9
$SURFTAB1
 70
     6
  9
$SURFTAB2
 70
     6
  9
$SURFTYPE
 70
     6
  9
$SURFU
 70
     6
  9
$SURFV
 70
     6
  9
$UCSBASE
  2

  9
$UCSNAME
  2

  9
$UCSORG
 10
0.0
 20
0.0
 30
0.0
  9
$UCSXDIR
 10
1.0
 20
0.0
 30
0.0
  9
$UCSYDIR
 10
0.0
 20
1.0
 30
0.0
  9
$UCSORTHOREF
  2

  9
$UCSORTHOVIEW
 70
     0
  9
$UCSORGTOP
 10
0.0
 20
0.0
 30
0.0
  9
$UCSORGBOTTOM
 10
0.0
 20
0.0
 30
0.0
  9
$UCSORGLEFT
 10
0.0
 20
0.0
 30
0.0
  9
$UCSORGRIGHT
 10
0.0
 20
0.0
 30
0.0
  9
$UCSORGFRONT
 10
0.0
 20
0.0
 30
0.0
  9
$UCSORGBACK
 10
0.0
 20
0.0
 30
0.0
  9
$PUCSBASE
  2

  9
$PUCSNAME
  2

  9
$PUCSORG
 10
0.0
 20
0.0
 30
0.0
  9
$PUCSXDIR
 10
1.0
 20
0.0
 30
0.0
  9
$PUCSYDIR
 10
0.0
 20
1.0
 30
0.0
  9
$PUCSORTHOREF
  2

  9
$PUCSORTHOVIEW
 70
     0
  9
$PUCSORGTOP
 10
0.0
 20
0.0
 30
0.0
  9
$PUCSORGBOTTOM
 10
0.0
 20
0.0
 30
0.0
  9
$PUCSORGLEFT
 10
0.0
 20
0.0
 30
0.0
  9
$PUCSORGRIGHT
 10
0.0
 20
0.0
 30
0.0
  9
$PUCSORGFRONT
 10
0.0
 20
0.0
 30
0.0
  9
$PUCSORGBACK
 10
0.0
 20
0.0
 30
0.0
  9
$USERI1
 70
     0
  9
$USERI2
 70
     0
  9
$USERI3
 70
     0
  9
$USERI4
 70
     0
  9
$USERI5
 70
     0
  9
$USERR1
 40
0.0
  9
$USERR2
 40
0.0
  9
$USERR3
 40
0.0
  9
$USERR4
 40
0.0
  9
$USERR5
 40
0.0
  9
$WORLDVIEW
 70
     1
  9
$SHADEDGE
 70
     3
  9
$SHADEDIF
 70
    70
  9
$TILEMODE
 70
     1
  9
$MAXACTVP
 70
    64
  9
$PINSBASE
 10
0.0
 20
0.0
 30
0.0
  9
$PLIMCHECK
 70
     0
  9
$PEXTMIN
 10
1.000000000000000E+20
 20
1.000000000000000E+20
 30
1.000000000000000E+20
  9
$PEXTMAX
 10
-1.000000000000000E+20
 20
-1.000000000000000E+20
 30
-1.000000000000000E+20
  9
$PLIMMIN
 10
0.0
 20
0.0
  9
$PLIMMAX
 10
12.0
 20
9.0
  9
$UNITMODE
 70
     0
  9
$VISRETAIN
 70
     1
  9
$PLINEGEN
 70
     0
  9
$PSLTSCALE
 70
     1
  9
$TREEDEPTH
 70
  3020
  9
$CMLSTYLE
  2
Standard
  9
$CMLJUST
 70
     0
  9
$CMLSCALE
 40
1.0
  9
$PROXYGRAPHICS
 70
     1
  9
$MEASUREMENT
 70
     0
  9
$CELWEIGHT
370
    -1
  9
$ENDCAPS
280
     0
  9
$JOINSTYLE
280
     0
  9
$LWDISPLAY
290
     1
  9
$INSUNITS
 70
     1
  9
$HYPERLINKBASE
  1

  9
$STYLESHEET
  1

  9
$XEDIT
290
     1
  9
$CEPSNTYPE
380
     0
  9
$PSTYLEMODE
290
     1
  9
$FINGERPRINTGUID
  2
{46EF6507-576B-4182-B7C4-520B3C54F805}
  9
$VERSIONGUID
  2
{FAEB1C32-E019-11D5-929B-00C0DF256EC4}
  9
$EXTNAMES
290
     1
  9
$PSVPSCALE
 40
0.0
  9
$OLESTARTUP
290
     0
  0
ENDSEC
  0
SECTION
  2
CLASSES
  0
CLASS
  1
ACDBDICTIONARYWDFLT
  2
AcDbDictionaryWithDefault
  3
ObjectDBX Classes
 90
        0
280
     0
281
     0
  0
CLASS
  1
VISUALSTYLE
  2
AcDbVisualStyle
  3
ObjectDBX Classes
 90
     4095
280
     0
281
     0
  0
CLASS
  1
ACDBPLACEHOLDER
  2
AcDbPlaceHolder
  3
ObjectDBX Classes
 90
        0
280
     0
281
     0
  0
CLASS
  1
LAYOUT
  2
AcDbLayout
  3
ObjectDBX Classes
 90
        0
280
     0
281
     0
  0
ENDSEC
  0
SECTION
  2
TABLES
  0
TABLE
  2
VPORT
  5
8
330
0
100
AcDbSymbolTable
 70
     1
  0
VPORT
  5
29
330
8
100
AcDbSymbolTableRecord
100
AcDbViewportTableRecord
  2
*Active
 70
     0
 10
0.0
 20
0.0
 11
1.0
 21
1.0
 12
0.0
 22
0.0
 13
0.0
 23
0.0
 14
0.5
 24
0.5
 15
0.5
 25
0.5
 16
0.0
 26
0.0
 36
1.0
 17
4.999918754175368
 27
4.999918754175368
 37
0.0
 40
9.999837508350735
 41
1.0
 42
50.0
 43
0.0
 44
0.0
 50
0.0
 51
0.0
 71
     0
 72
   100
 73
     1
 74
     3
 75
     0
 76
     0
 77
     0
 78
     0
281
     0
 65
     1
110
0.0
120
0.0
130
0.0
111
1.0
121
0.0
131
0.0
112
0.0
122
1.0
132
0.0
 79
     0
146
0.0
  0
ENDTAB
  0
TABLE
  2
LTYPE
  5
5
330
0
100
AcDbSymbolTable
 70
     1
  0
LTYPE
  5
14
330
5
100
AcDbSymbolTableRecord
100
AcDbLinetypeTableRecord
  2
ByBlock
 70
     0
  3

 72
    65
 73
     0
 40
0.0
  0
LTYPE
  5
15
330
5
100
AcDbSymbolTableRecord
100
AcDbLinetypeTableRecord
  2
ByLayer
 70
     0
  3

 72
    65
 73
     0
 40
0.0
  0
LTYPE
  5
16
330
5
100
AcDbSymbolTableRecord
100
AcDbLinetypeTableRecord
  2
Continuous
 70
     0
  3
Solid line
 72
    65
 73
     0
 40
0.0
  0
ENDTAB
  0
TABLE
  2
LAYER
  5
2
330
0
100
AcDbSymbolTable
 70
     2
  0
LAYER
  5
10
330
2
100
AcDbSymbolTableRecord
100
AcDbLayerTableRecord
  2
0
 70
     0
 62
     7
  6
Continuous
370
    -3
390
F
  0
LAYER
  5
3B
330
2
100
AcDbSymbolTableRecord
100
AcDbLayerTableRecord
  2
Layer 1
 70
     0
 62
     7
  6
Continuous
370
    -3
390
F
  0
ENDTAB
  0
TABLE
  2
STYLE
  5
3
330
0
100
AcDbSymbolTable
 70
     1
  0
STYLE
  5
11
330
3
100
AcDbSymbolTableRecord
100
AcDbTextStyleTableRecord
  2
Standard
 70
     0
 40
0.0
 41
1.0
 50
0.0
 71
     0
 42
0.2
  3
txt
  4

  0
ENDTAB
  0
TABLE
  2
VIEW
  5
6
330
0
100
AcDbSymbolTable
 70
     0
  0
ENDTAB
  0
TABLE
  2
UCS
  5
7
330
0
100
AcDbSymbolTable
 70
     0
  0
ENDTAB
  0
TABLE
  2
APPID
  5
9
330
0
100
AcDbSymbolTable
 70
     1
  0
APPID
  5
12
330
9
100
AcDbSymbolTableRecord
100
AcDbRegAppTableRecord
  2
ACAD
 70
     0
  0
ENDTAB
  0
TABLE
  2
DIMSTYLE
  5
A
330
0
100
AcDbSymbolTable
 70
     1
100
AcDbDimStyleTable
  0
DIMSTYLE
105
27
330
A
100
AcDbSymbolTableRecord
100
AcDbDimStyleTableRecord
  2
Standard
 70
     0
340
11
  0
ENDTAB
  0
TABLE
  2
BLOCK_RECORD
  5
1
330
0
100
AcDbSymbolTable
 70
    11
  0
BLOCK_RECORD
  5
1F
330
1
100
AcDbSymbolTableRecord
100
AcDbBlockTableRecord
  2
*Model_Space
340
22
  0
BLOCK_RECORD
  5
1B
330
1
100
AcDbSymbolTableRecord
100
AcDbBlockTableRecord
  2
*Paper_Space
340
1E
  0
BLOCK_RECORD
  5
23
330
1
100
AcDbSymbolTableRecord
100
AcDbBlockTableRecord
  2
*Paper_Space0
340
26
  0
BLOCK_RECORD
  5
3C
330
1
100
AcDbSymbolTableRecord
100
AcDbBlockTableRecord
  2
block 2
340
0
102
{BLKREFS
331
3D
102
}
  0
BLOCK_RECORD
  5
4A
330
1
100
AcDbSymbolTableRecord
100
AcDbBlockTableRecord
  2
block 3
340
0
102
{BLKREFS
331
4B
102
}
  0
BLOCK_RECORD
  5
52
330
1
100
AcDbSymbolTableRecord
100
AcDbBlockTableRecord
  2
block 4
340
0
102
{BLKREFS
331
53
102
}
  0
BLOCK_RECORD
  5
5E
330
1
100
AcDbSymbolTableRecord
100
AcDbBlockTableRecord
  2
block 5
340
0
102
{BLKREFS
331
5F
102
}
  0
BLOCK_RECORD
  5
68
330
1
100
AcDbSymbolTableRecord
100
AcDbBlockTableRecord
  2
block 6
340
0
102
{BLKREFS
331
69
102
}
  0
BLOCK_RECORD
  5
70
330
1
100
AcDbSymbolTableRecord
100
AcDbBlockTableRecord
  2
block 7
340
0
102
{BLKREFS
331
71
102
}
  0
BLOCK_RECORD
  5
7A
330
1
100
AcDbSymbolTableRecord
100
AcDbBlockTableRecord
  2
block 8
340
0
102
{BLKREFS
331
7B
102
}
  0
BLOCK_RECORD
  5
86
330
1
100
AcDbSymbolTableRecord
100
AcDbBlockTableRecord
  2
block 9
340
0
102
{BLKREFS
331
87
102
}
  0
BLOCK_RECORD
  5
92
330
1
100
AcDbSymbolTableRecord
100
AcDbBlockTableRecord
  2
block 10
340
0
102
{BLKREFS
331
93
102
}
  0
BLOCK_RECORD
  5
9E
330
1
100
AcDbSymbolTableRecord
100
AcDbBlockTableRecord
  2
block 11
340
0
102
{BLKREFS
331
9F
102
}
  0
ENDTAB
  0
ENDSEC
  0
SECTION
  2
BLOCKS
  0
BLOCK
  5
20
330
1F
100
AcDbEntity
  8
0
100
AcDbBlockBegin
  2
*Model_Space
 70
     0
 71
     0
 10
0.0
 20
0.0
 30
0.0
  3
*Model_Space
  1

  0
ENDBLK
  5
21
330
1F
100
AcDbEntity
  8
0
100
AcDbBlockEnd
  0
BLOCK
  5
1C
330
1B
100
AcDbEntity
 67
     1
  8
0
100
AcDbBlockBegin
  2
*Paper_Space
 70
     0
 71
     0
 10
0.0
 20
0.0
 30
0.0
  3
*Paper_Space
  1

  0
ENDBLK
  5
1D
330
1B
100
AcDbEntity
 67
     1
  8
0
100
AcDbBlockEnd
  0
BLOCK
  5
24
330
23
100
AcDbEntity
  8
0
100
AcDbBlockBegin
  2
*Paper_Space0
 70
     0
 71
     0
 10
0.0
 20
0.0
 30
0.0
  3
*Paper_Space0
  1

  0
ENDBLK
  5
25
330
23
100
AcDbEntity
  8
0
100
AcDbBlockEnd
  0
BLOCK
  5
3E
330
3C
100
AcDbEntity
  8
0
100
AcDbBlockBegin
  2
block 2
 70
     0
 71
     0
 10
0.0
 20
0.0
 30
0.0
  3
block 2
  1

  0
SPLINE
  5
40
330
3C
100
AcDbEntity
  8
Layer 1
370
     0
100
AcDbSpline
210
0.0
220
0.0
230
1.0
 70
    11
 71
     3
 72
    74
 73
    70
 74
     0
 42
0.0000000001
 43
0.0000000001
 40
0.0
 40
0.0
 40
0.0
 40
0.0
 40
1.0
 40
1.0
 40
1.0
 40
2.0
 40
2.0
 40
2.0
 40
3.0
 40
3.0
 40
3.0
 40
4.0
 40
4.0
 40
4.0
 40
5.0
 40
5.0
 40
5.0
 40
6.0
 40
6.0
 40
6.0
 40
7.0
 40
7.0
 40
7.0
 40
8.0
 40
8.0
 40
8.0
 40
9.0
 40
9.0
 40
9.0
 40
10.0
 40
10.0
 40
10.0
 40
11.0
 40
11.0
 40
11.0
 40
12.0
 40
12.0
 40
12.0
 40
13.0
 40
13.0
 40
13.0
 40
14.0
 40
14.0
 40
14.0
 40
15.0
 40
15.0
 40
15.0
 40
16.0
 40
16.0
 40
16.0
 40
17.0
 40
17.0
 40
17.0
 40
18.0
 40
18.0
 40
18.0
 40
19.0
 40
19.0
 40
19.0
 40
20.0
 40
20.0
 40
20.0
 40
21.0
 40
21.0
 40
21.0
 40
22.0
 40
22.0
 40
22.0
 40
23.0
 40
23.0
 40
23.0
 40
23.0
 10
7.136480846740185
 20
5.84138332644764
 30
0.0
 10
7.22977403248075
 20
5.853148327529768
 30
0.0
 10
7.321999238620888
 20
5.841486679312197
 30
0.0
 10
7.413914386167354
 20
5.844656167158627
 30
0.0
 10
7.444024520708438
 20
5.845689695804202
 30
0.0
 10
7.435997448227806
 20
5.824054496156833
 30
0.0
 10
7.435205076266199
 20
5.810463594467523
 30
0.0
 10
7.432035588419768
 20
5.758563230982234
 30
0.0
 10
7.425421005088088
 20
5.70686957322606
 30
0.0
 10
7.422010360557691
 20
5.654969209740771
 30
0.0
 10
7.420012205176246
 20
5.623997801328375
 30
0.0
 10
7.419667695627721
 20
5.599744329112216
 30
0.0
 10
7.468622502473122
 20
5.606117755759929
 30
0.0
 10
7.503590221648407
 20
5.610648056323032
 30
0.0
 10
7.542760957315698
 20
5.609166665264374
 30
0.0
 10
7.578796656091411
 20
5.605153129024059
 30
0.0
 10
7.635709633507739
 20
5.598831378808625
 30
0.0
 10
7.640670571006498
 20
5.62503132997395
 30
0.0
 10
7.633608125261737
 20
5.669593640075656
 30
0.0
 10
7.626717934291237
 20
5.713001843189804
 30
0.0
 10
7.625064288458317
 20
5.757254094697839
 30
0.0
 10
7.617726235074734
 20
5.800558944947429
 30
0.0
 10
7.612076278478924
 20
5.83380411638009
 30
0.0
 10
7.625753307555367
 20
5.845638019371924
 30
0.0
 10
7.655932344006155
 20
5.845603568417071
 30
0.0
 10
7.739131399974939
 20
5.845500215552513
 30
0.0
 10
7.822364906898575
 20
5.845345186255678
 30
0.0
 10
7.905495060957653
 20
5.844880098365168
 30
0.0
 10
7.933675942026997
 20
5.844742294545759
 30
0.0
 10
7.949798988897967
 20
5.838575573627161
 30
0.0
 10
7.943494464159959
 20
5.801868081231825
 30
0.0
 10
7.920687932047605
 20
5.669610865553083
 30
0.0
 10
7.888855249763897
 20
5.53809434540367
 30
0.0
 10
7.804415959420424
 20
5.433380668129502
 30
0.0
 10
7.762764755003753
 20
5.381755912283033
 30
0.0
 10
7.71983886525754
 20
5.320829398626389
 30
0.0
 10
7.622618270663789
 20
5.325928139944559
 30
0.0
 10
7.392830401797625
 20
5.337917072233228
 30
0.0
 10
7.162009004285886
 20
5.328942598494153
 30
0.0
 10
6.931601018232377
 20
5.327857393416299
 30
0.0
 10
6.896736651921649
 20
5.327702364119463
 30
0.0
 10
6.865799694464105
 20
5.334385849360848
 30
0.0
 10
6.840409340737814
 20
5.360499673139041
 30
0.0
 10
6.719107528702167
 20
5.485573864731037
 30
0.0
 10
6.661298826459674
 20
5.638708359050392
 30
0.0
 10
6.642212997471391
 20
5.808792723157176
 30
0.0
 10
6.640352645909355
 20
5.825139701234687
 30
0.0
 10
6.632463377248134
 20
5.847550047366237
 30
0.0
 10
6.66522623531286
 20
5.846981606611171
 30
0.0
 10
6.750492348572793
 20
5.84551744102994
 30
0.0
 10
6.835827363742432
 20
5.845758597713907
 30
0.0
 10
6.921127927957217
 20
5.845551891984792
 30
0.0
 10
6.953339570744303
 20
5.845448539120235
 30
0.0
 10
6.96818793228573
 20
5.833907469244648
 30
0.0
 10
6.962744681419036
 20
5.79794067237864
 30
0.0
 10
6.955027667532076
 20
5.74664320060327
 30
0.0
 10
6.952374944008434
 20
5.694587807821144
 30
0.0
 10
6.947000595051444
 20
5.642928601019823
 30
0.0
 10
6.944761282986032
 20
5.622223577153472
 30
0.0
 10
6.946449379773804
 20
5.60179416092594
 30
0.0
 10
6.972666556416555
 20
5.604377982539877
 30
0.0
 10
7.027960338954815
 20
5.609872909838851
 30
0.0
 10
7.083701983906157
 20
5.595472410710506
 30
0.0
 10
7.138961315489564
 20
5.610131292000244
 30
0.0
 10
7.152982854114532
 20
5.613869220601741
 30
0.0
 10
7.163731552028511
 20
5.612043319994558
 30
0.0
 10
7.161698945692214
 20
5.631284178279679
 30
0.0
 10
7.154429794218337
 20
5.700616724920332
 30
0.0
 10
7.157943791613292
 20
5.771137829503395
 30
0.0
 10
7.136480846740185
 20
5.84138332644764
 30
0.0
  0
HATCH
  5
41
330
3C
100
AcDbEntity
  8
Layer 1
 62
     7
100
AcDbHatch
 10
0.0
 20
0.0
 30
0.0
210
0.0
220
0.0
230
1.0
  2
SOLID
 70
     1
 71
     0
 91
        1
 92
        1
 93
        1
 72
     4
 94
        3
 73
     0
 74
     1
 95
       74
 96
       70
 40
0.0
 40
0.0
 40
0.0
 40
0.0
 40
1.0
 40
1.0
 40
1.0
 40
2.0
 40
2.0
 40
2.0
 40
3.0
 40
3.0
 40
3.0
 40
4.0
 40
4.0
 40
4.0
 40
5.0
 40
5.0
 40
5.0
 40
6.0
 40
6.0
 40
6.0
 40
7.0
 40
7.0
 40
7.0
 40
8.0
 40
8.0
 40
8.0
 40
9.0
 40
9.0
 40
9.0
 40
10.0
 40
10.0
 40
10.0
 40
11.0
 40
11.0
 40
11.0
 40
12.0
 40
12.0
 40
12.0
 40
13.0
 40
13.0
 40
13.0
 40
14.0
 40
14.0
 40
14.0
 40
15.0
 40
15.0
 40
15.0
 40
16.0
 40
16.0
 40
16.0
 40
17.0
 40
17.0
 40
17.0
 40
18.0
 40
18.0
 40
18.0
 40
19.0
 40
19.0
 40
19.0
 40
20.0
 40
20.0
 40
20.0
 40
21.0
 40
21.0
 40
21.0
 40
22.0
 40
22.0
 40
22.0
 40
23.0
 40
23.0
 40
23.0
 40
23.0
 10
7.136480846740185
 20
5.84138332644764
 10
7.22977403248075
 20
5.853148327529768
 10
7.321999238620888
 20
5.841486679312197
 10
7.413914386167354
 20
5.844656167158627
 10
7.444024520708438
 20
5.845689695804202
 10
7.435997448227806
 20
5.824054496156833
 10
7.435205076266199
 20
5.810463594467523
 10
7.432035588419768
 20
5.758563230982234
 10
7.425421005088088
 20
5.70686957322606
 10
7.422010360557691
 20
5.654969209740771
 10
7.420012205176246
 20
5.623997801328375
 10
7.419667695627721
 20
5.599744329112216
 10
7.468622502473122
 20
5.606117755759929
 10
7.503590221648407
 20
5.610648056323032
 10
7.542760957315698
 20
5.609166665264374
 10
7.578796656091411
 20
5.605153129024059
 10
7.635709633507739
 20
5.598831378808625
 10
7.640670571006498
 20
5.62503132997395
 10
7.633608125261737
 20
5.669593640075656
 10
7.626717934291237
 20
5.713001843189804
 10
7.625064288458317
 20
5.757254094697839
 10
7.617726235074734
 20
5.800558944947429
 10
7.612076278478924
 20
5.83380411638009
 10
7.625753307555367
 20
5.845638019371924
 10
7.655932344006155
 20
5.845603568417071
 10
7.739131399974939
 20
5.845500215552513
 10
7.822364906898575
 20
5.845345186255678
 10
7.905495060957653
 20
5.844880098365168
 10
7.933675942026997
 20
5.844742294545759
 10
7.949798988897967
 20
5.838575573627161
 10
7.943494464159959
 20
5.801868081231825
 10
7.920687932047605
 20
5.669610865553083
 10
7.888855249763897
 20
5.53809434540367
 10
7.804415959420424
 20
5.433380668129502
 10
7.762764755003753
 20
5.381755912283033
 10
7.71983886525754
 20
5.320829398626389
 10
7.622618270663789
 20
5.325928139944559
 10
7.392830401797625
 20
5.337917072233228
 10
7.162009004285886
 20
5.328942598494153
 10
6.931601018232377
 20
5.327857393416299
 10
6.896736651921649
 20
5.327702364119463
 10
6.865799694464105
 20
5.334385849360848
 10
6.840409340737814
 20
5.360499673139041
 10
6.719107528702167
 20
5.485573864731037
 10
6.661298826459674
 20
5.638708359050392
 10
6.642212997471391
 20
5.808792723157176
 10
6.640352645909355
 20
5.825139701234687
 10
6.632463377248134
 20
5.847550047366237
 10
6.66522623531286
 20
5.846981606611171
 10
6.750492348572793
 20
5.84551744102994
 10
6.835827363742432
 20
5.845758597713907
 10
6.921127927957217
 20
5.845551891984792
 10
6.953339570744303
 20
5.845448539120235
 10
6.96818793228573
 20
5.833907469244648
 10
6.962744681419036
 20
5.79794067237864
 10
6.955027667532076
 20
5.74664320060327
 10
6.952374944008434
 20
5.694587807821144
 10
6.947000595051444
 20
5.642928601019823
 10
6.944761282986032
 20
5.622223577153472
 10
6.946449379773804
 20
5.60179416092594
 10
6.972666556416555
 20
5.604377982539877
 10
7.027960338954815
 20
5.609872909838851
 10
7.083701983906157
 20
5.595472410710506
 10
7.138961315489564
 20
5.610131292000244
 10
7.152982854114532
 20
5.613869220601741
 10
7.163731552028511
 20
5.612043319994558
 10
7.161698945692214
 20
5.631284178279679
 10
7.154429794218337
 20
5.700616724920332
 10
7.157943791613292
 20
5.771137829503395
 10
7.136480846740185
 20
5.84138332644764
 97
        0
 75
     0
 76
     1
 98
        0
  0
SPLINE
  5
42
330
3C
100
AcDbEntity
  8
Layer 1
370
     0
100
AcDbSpline
210
0.0
220
0.0
230
1.0
 70
    11
 71
     3
 72
    17
 73
    13
 74
     0
 42
0.0000000001
 43
0.0000000001
 40
0.0
 40
0.0
 40
0.0
 40
0.0
 40
1.0
 40
1.0
 40
1.0
 40
2.0
 40
2.0
 40
2.0
 40
3.0
 40
3.0
 40
3.0
 40
4.0
 40
4.0
 40
4.0
 40
4.0
 10
4.067124700589122
 20
6.169080809004605
 30
0.0
 10
3.959499917629917
 20
6.16418877341555
 30
0.0
 10
3.855216877291404
 20
6.26113376037048
 30
0.0
 10
3.848636744914577
 20
6.372169187860083
 30
0.0
 10
3.841126436756732
 20
6.499189858401244
 30
0.0
 10
3.93583211164625
 20
6.611241589058995
 30
0.0
 10
4.054619003977664
 20
6.615737438667246
 30
0.0
 10
4.180554469440972
 20
6.620474444959465
 30
0.0
 10
4.297343206390941
 20
6.535277233609236
 30
0.0
 10
4.295327825532071
 20
6.376733939378038
 30
0.0
 10
4.294139267589659
 20
6.284129772734523
 30
0.0
 10
4.217537569475129
 20
6.171440699412001
 30
0.0
 10
4.067124700589122
 20
6.169080809004605
 30
0.0
  0
HATCH
  5
43
330
3C
100
AcDbEntity
  8
Layer 1
 62
     7
100
AcDbHatch
 10
0.0
 20
0.0
 30
0.0
210
0.0
220
0.0
230
1.0
  2
SOLID
 70
     1
 71
     0
 91
        1
 92
        1
 93
        1
 72
     4
 94
        3
 73
     0
 74
     1
 95
       17
 96
       13
 40
0.0
 40
0.0
 40
0.0
 40
0.0
 40
1.0
 40
1.0
 40
1.0
 40
2.0
 40
2.0
 40
2.0
 40
3.0
 40
3.0
 40
3.0
 40
4.0
 40
4.0
 40
4.0
 40
4.0
 10
4.067124700589122
 20
6.169080809004605
 10
3.959499917629917
 20
6.16418877341555
 10
3.855216877291404
 20
6.26113376037048
 10
3.848636744914577
 20
6.372169187860083
 10
3.841126436756732
 20
6.499189858401244
 10
3.93583211164625
 20
6.611241589058995
 10
4.054619003977664
 20
6.615737438667246
 10
4.180554469440972
 20
6.620474444959465
 10
4.297343206390941
 20
6.535277233609236
 10
4.295327825532071
 20
6.376733939378038
 10
4.294139267589659
 20
6.284129772734523
 10
4.217537569475129
 20
6.171440699412001
 10
4.067124700589122
 20
6.169080809004605
 97
        0
 75
     0
 76
     1
 98
        0
  0
SPLINE
  5
44
330
3C
100
AcDbEntity
  8
Layer 1
370
     0
100
AcDbSpline
210
0.0
220
0.0
230
1.0
 70
    11
 71
     3
 72
    77
 73
    73
 74
     0
 42
0.0000000001
 43
0.0000000001
 40
0.0
 40
0.0
 40
0.0
 40
0.0
 40
1.0
 40
1.0
 40
1.0
 40
2.0
 40
2.0
 40
2.0
 40
3.0
 40
3.0
 40
3.0
 40
4.0
 40
4.0
 40
4.0
 40
5.0
 40
5.0
 40
5.0
 40
6.0
 40
6.0
 40
6.0
 40
7.0
 40
7.0
 40
7.0
 40
8.0
 40
8.0
 40
8.0
 40
9.0
 40
9.0
 40
9.0
 40
10.0
 40
10.0
 40
10.0
 40
11.0
 40
11.0
 40
11.0
 40
12.0
 40
12.0
 40
12.0
 40
13.0
 40
13.0
 40
13.0
 40
14.0
 40
14.0
 40
14.0
 40
15.0
 40
15.0
 40
15.0
 40
16.0
 40
16.0
 40
16.0
 40
17.0
 40
17.0
 40
17.0
 40
18.0
 40
18.0
 40
18.0
 40
19.0
 40
19.0
 40
19.0
 40
20.0
 40
20.0
 40
20.0
 40
21.0
 40
21.0
 40
21.0
 40
22.0
 40
22.0
 40
22.0
 40
23.0
 40
23.0
 40
23.0
 40
24.0
 40
24.0
 40
24.0
 40
24.0
 10
2.06426676380685
 20
6.783892549302291
 30
0.0
 10
2.094738633373884
 20
6.749338241585234
 30
0.0
 10
2.127949353851693
 20
6.724981416504518
 30
0.0
 10
2.167981363390296
 20
6.709065075362663
 30
0.0
 10
2.183312038299658
 20
6.702950030876345
 30
0.0
 10
2.197212998582641
 20
6.700624591423802
 30
0.0
 10
2.210183783084607
 20
6.708238252446204
 30
0.0
 10
2.228098279607906
 20
6.718883597495626
 30
0.0
 10
2.223309596883408
 20
6.738589543671255
 30
0.0
 10
2.219709472101322
 20
6.753713512851502
 30
0.0
 10
2.211889105349806
 20
6.786614174735638
 30
0.0
 10
2.195852185865967
 20
6.815518525856883
 30
0.0
 10
2.169324950629544
 20
6.838256156059533
 30
0.0
 10
2.146638996859173
 20
6.857703720073768
 30
0.0
 10
2.153288031145705
 20
6.872310924931227
 30
0.0
 10
2.178919541555965
 20
6.883145750232338
 30
0.0
 10
2.217573512900468
 20
6.899458277354996
 30
0.0
 10
2.259035237065449
 20
6.903816323143837
 30
0.0
 10
2.298688286100675
 20
6.898286944890011
 30
0.0
 10
2.371741535865398
 20
6.888037785821393
 30
0.0
 10
2.374755994414991
 20
6.874894746545165
 30
0.0
 10
2.332570800198107
 20
6.815639104198867
 30
0.0
 10
2.311762423467198
 20
6.786390243529096
 30
0.0
 10
2.276777478814486
 20
6.750699054301908
 30
0.0
 10
2.310367159795672
 20
6.717471108346674
 30
0.0
 10
2.346816270029615
 20
6.681400958616107
 30
0.0
 10
2.383523762424952
 20
6.720485566896267
 30
0.0
 10
2.412720946662445
 20
6.742137992021062
 30
0.0
 10
2.46257147833401
 20
6.779138317532645
 30
0.0
 10
2.477557643694846
 20
6.778070337932218
 30
0.0
 10
2.487668998944055
 20
6.71817735292115
 30
0.0
 10
2.495575493082703
 20
6.671289603366899
 30
0.0
 10
2.500398626762053
 20
6.622868786321713
 30
0.0
 10
2.477936604198224
 20
6.576118840586872
 30
0.0
 10
2.464965819696258
 20
6.549143742937367
 30
0.0
 10
2.456473659325118
 20
6.537671574971484
 30
0.0
 10
2.433202039322255
 20
6.567230494234928
 30
0.0
 10
2.412049153042821
 20
6.593998886155319
 30
0.0
 10
2.382473008301951
 20
6.611344941923552
 30
0.0
 10
2.349865179534061
 20
6.620439994004612
 30
0.0
 10
2.311331786531542
 20
6.631171466441165
 30
0.0
 10
2.292659369001488
 20
6.612085637452881
 30
0.0
 10
2.300738117914399
 20
6.573104382037279
 30
0.0
 10
2.308627386575621
 20
6.535036076925269
 30
0.0
 10
2.334431151760142
 20
6.507423636610991
 30
0.0
 10
2.357547742466168
 20
6.478519285489745
 30
0.0
 10
2.375600042808878
 20
6.455953910061358
 30
0.0
 10
2.37342963265317
 20
6.445584172650756
 30
0.0
 10
2.342923312131283
 20
6.437694903989534
 30
0.0
 10
2.291470811059077
 20
6.42439683541647
 30
0.0
 10
2.241000162200166
 20
6.417454968013692
 30
0.0
 10
2.189651013992518
 20
6.43523166071758
 30
0.0
 10
2.155854627282217
 20
6.446927759890004
 30
0.0
 10
2.135407985577259
 20
6.459554034843444
 30
0.0
 10
2.172459987521121
 20
6.49534857693519
 30
0.0
 10
2.192975531135784
 20
6.515175101452803
 30
0.0
 10
2.204671630308207
 20
6.544647893329115
 30
0.0
 10
2.218452012249206
 20
6.570744491629883
 30
0.0
 10
2.22587619301992
 20
6.584783255732276
 30
0.0
 10
2.222878959947753
 20
6.600734047828983
 30
0.0
 10
2.21223361489833
 20
6.612464597956258
 30
0.0
 10
2.201140407435826
 20
6.624729137883747
 30
0.0
 10
2.187463378359384
 20
6.624763588838601
 30
0.0
 10
2.17168484103694
 20
6.618080103597215
 30
0.0
 10
2.139507649204706
 20
6.604403074520774
 30
0.0
 10
2.105866291791242
 20
6.594016111632746
 30
0.0
 10
2.082336289626985
 20
6.565542397447156
 30
0.0
 10
2.063646646619505
 20
6.54292534558649
 30
0.0
 10
2.051571586943704
 20
6.551538084299615
 30
0.0
 10
2.044147406172991
 20
6.575050860986445
 30
0.0
 10
2.022081569589965
 20
6.64483127004018
 30
0.0
 10
2.018533121240158
 20
6.713130288035258
 30
0.0
 10
2.06426676380685
 20
6.783892549302291
 30
0.0
  0
HATCH
  5
45
330
3C
100
AcDbEntity
  8
Layer 1
 62
     7
100
AcDbHatch
 10
0.0
 20
0.0
 30
0.0
210
0.0
220
0.0
230
1.0
  2
SOLID
 70
     1
 71
     0
 91
        1
 92
        1
 93
        1
 72
     4
 94
        3
 73
     0
 74
     1
 95
       77
 96
       73
 40
0.0
 40
0.0
 40
0.0
 40
0.0
 40
1.0
 40
1.0
 40
1.0
 40
2.0
 40
2.0
 40
2.0
 40
3.0
 40
3.0
 40
3.0
 40
4.0
 40
4.0
 40
4.0
 40
5.0
 40
5.0
 40
5.0
 40
6.0
 40
6.0
 40
6.0
 40
7.0
 40
7.0
 40
7.0
 40
8.0
 40
8.0
 40
8.0
 40
9.0
 40
9.0
 40
9.0
 40
10.0
 40
10.0
 40
10.0
 40
11.0
 40
11.0
 40
11.0
 40
12.0
 40
12.0
 40
12.0
 40
13.0
 40
13.0
 40
13.0
 40
14.0
 40
14.0
 40
14.0
 40
15.0
 40
15.0
 40
15.0
 40
16.0
 40
16.0
 40
16.0
 40
17.0
 40
17.0
 40
17.0
 40
18.0
 40
18.0
 40
18.0
 40
19.0
 40
19.0
 40
19.0
 40
20.0
 40
20.0
 40
20.0
 40
21.0
 40
21.0
 40
21.0
 40
22.0
 40
22.0
 40
22.0
 40
23.0
 40
23.0
 40
23.0
 40
24.0
 40
24.0
 40
24.0
 40
24.0
 10
2.06426676380685
 20
6.783892549302291
 10
2.094738633373884
 20
6.749338241585234
 10
2.127949353851693
 20
6.724981416504518
 10
2.167981363390296
 20
6.709065075362663
 10
2.183312038299658
 20
6.702950030876345
 10
2.197212998582641
 20
6.700624591423802
 10
2.210183783084607
 20
6.708238252446204
 10
2.228098279607906
 20
6.718883597495626
 10
2.223309596883408
 20
6.738589543671255
 10
2.219709472101322
 20
6.753713512851502
 10
2.211889105349806
 20
6.786614174735638
 10
2.195852185865967
 20
6.815518525856883
 10
2.169324950629544
 20
6.838256156059533
 10
2.146638996859173
 20
6.857703720073768
 10
2.153288031145705
 20
6.872310924931227
 10
2.178919541555965
 20
6.883145750232338
 10
2.217573512900468
 20
6.899458277354996
 10
2.259035237065449
 20
6.903816323143837
 10
2.298688286100675
 20
6.898286944890011
 10
2.371741535865398
 20
6.888037785821393
 10
2.374755994414991
 20
6.874894746545165
 10
2.332570800198107
 20
6.815639104198867
 10
2.311762423467198
 20
6.786390243529096
 10
2.276777478814486
 20
6.750699054301908
 10
2.310367159795672
 20
6.717471108346674
 10
2.346816270029615
 20
6.681400958616107
 10
2.383523762424952
 20
6.720485566896267
 10
2.412720946662445
 20
6.742137992021062
 10
2.46257147833401
 20
6.779138317532645
 10
2.477557643694846
 20
6.778070337932218
 10
2.487668998944055
 20
6.71817735292115
 10
2.495575493082703
 20
6.671289603366899
 10
2.500398626762053
 20
6.622868786321713
 10
2.477936604198224
 20
6.576118840586872
 10
2.464965819696258
 20
6.549143742937367
 10
2.456473659325118
 20
6.537671574971484
 10
2.433202039322255
 20
6.567230494234928
 10
2.412049153042821
 20
6.593998886155319
 10
2.382473008301951
 20
6.611344941923552
 10
2.349865179534061
 20
6.620439994004612
 10
2.311331786531542
 20
6.631171466441165
 10
2.292659369001488
 20
6.612085637452881
 10
2.300738117914399
 20
6.573104382037279
 10
2.308627386575621
 20
6.535036076925269
 10
2.334431151760142
 20
6.507423636610991
 10
2.357547742466168
 20
6.478519285489745
 10
2.375600042808878
 20
6.455953910061358
 10
2.37342963265317
 20
6.445584172650756
 10
2.342923312131283
 20
6.437694903989534
 10
2.291470811059077
 20
6.42439683541647
 10
2.241000162200166
 20
6.417454968013692
 10
2.189651013992518
 20
6.43523166071758
 10
2.155854627282217
 20
6.446927759890004
 10
2.135407985577259
 20
6.459554034843444
 10
2.172459987521121
 20
6.49534857693519
 10
2.192975531135784
 20
6.515175101452803
 10
2.204671630308207
 20
6.544647893329115
 10
2.218452012249206
 20
6.570744491629883
 10
2.22587619301992
 20
6.584783255732276
 10
2.222878959947753
 20
6.600734047828983
 10
2.21223361489833
 20
6.612464597956258
 10
2.201140407435826
 20
6.624729137883747
 10
2.187463378359384
 20
6.624763588838601
 10
2.17168484103694
 20
6.618080103597215
 10
2.139507649204706
 20
6.604403074520774
 10
2.105866291791242
 20
6.594016111632746
 10
2.082336289626985
 20
6.565542397447156
 10
2.063646646619505
 20
6.54292534558649
 10
2.051571586943704
 20
6.551538084299615
 10
2.044147406172991
 20
6.575050860986445
 10
2.022081569589965
 20
6.64483127004018
 10
2.018533121240158
 20
6.713130288035258
 10
2.06426676380685
 20
6.783892549302291
 97
        0
 75
     0
 76
     1
 98
        0
  0
SPLINE
  5
46
330
3C
100
AcDbEntity
  8
Layer 1
370
     0
100
AcDbSpline
210
0.0
220
0.0
230
1.0
 70
    11
 71
     3
 72
    80
 73
    76
 74
     0
 42
0.0000000001
 43
0.0000000001
 40
0.0
 40
0.0
 40
0.0
 40
0.0
 40
1.0
 40
1.0
 40
1.0
 40
2.0
 40
2.0
 40
2.0
 40
3.0
 40
3.0
 40
3.0
 40
4.0
 40
4.0
 40
4.0
 40
5.0
 40
5.0
 40
5.0
 40
6.0
 40
6.0
 40
6.0
 40
7.0
 40
7.0
 40
7.0
 40
8.0
 40
8.0
 40
8.0
 40
9.0
 40
9.0
 40
9.0
 40
10.0
 40
10.0
 40
10.0
 40
11.0
 40
11.0
 40
11.0
 40
12.0
 40
12.0
 40
12.0
 40
13.0
 40
13.0
 40
13.0
 40
14.0
 40
14.0
 40
14.0
 40
15.0
 40
15.0
 40
15.0
 40
16.0
 40
16.0
 40
16.0
 40
17.0
 40
17.0
 40
17.0
 40
18.0
 40
18.0
 40
18.0
 40
19.0
 40
19.0
 40
19.0
 40
20.0
 40
20.0
 40
20.0
 40
21.0
 40
21.0
 40
21.0
 40
22.0
 40
22.0
 40
22.0
 40
23.0
 40
23.0
 40
23.0
 40
24.0
 40
24.0
 40
24.0
 40
25.0
 40
25.0
 40
25.0
 40
25.0
 10
9.682716468933487
 20
5.31655748022468
 30
0.0
 10
9.56527316384132
 20
5.400497231722792
 30
0.0
 10
9.476630857005842
 20
5.50672675101047
 30
0.0
 10
9.415480412142657
 20
5.637244193469161
 30
0.0
 10
9.398254934716407
 20
5.673968911341924
 30
0.0
 10
9.380547143922223
 20
5.713535832990019
 30
0.0
 10
9.348128795406023
 20
5.73851277525808
 30
0.0
 10
9.313850095327787
 20
5.764902206675093
 30
0.0
 10
9.29472981538465
 20
5.787157523509808
 30
0.0
 10
9.312196449494866
 20
5.834510360954567
 30
0.0
 10
9.32642469384895
 20
5.872992077524807
 30
0.0
 10
9.300758732483837
 20
5.911301539320785
 30
0.0
 10
9.270545245078196
 20
5.930249564489659
 30
0.0
 10
9.244362519390297
 20
5.946648218999449
 30
0.0
 10
9.222313908284699
 20
5.915315075561101
 30
0.0
 10
9.204158255077433
 20
5.89461005169475
 30
0.0
 10
9.185416935637672
 20
5.873336587073332
 30
0.0
 10
9.164884166545583
 20
5.869615883949263
 30
0.0
 10
9.135084090598173
 20
5.874697399790006
 30
0.0
 10
8.982363007737048
 20
5.900776772613347
 30
0.0
 10
8.836876625394947
 20
5.875799830345286
 30
0.0
 10
8.699899628901413
 20
5.802936060832252
 30
0.0
 10
8.5714664692113
 20
5.734637042837174
 30
0.0
 10
8.48654486549989
 20
5.628648680233463
 30
0.0
 10
8.426910262650216
 20
5.4978211791811
 30
0.0
 10
8.350498044787376
 20
5.330234509301121
 30
0.0
 10
8.314944659379597
 20
5.153208277791559
 30
0.0
 10
8.303059079955485
 20
4.971548392854335
 30
0.0
 10
8.29003661902124
 20
4.772146266168074
 30
0.0
 10
8.298339299140693
 20
4.572744139481814
 30
0.0
 10
8.337234427169163
 20
4.376270343958016
 30
0.0
 10
8.358111705809778
 20
4.270850422109371
 30
0.0
 10
8.384191078633119
 20
4.166601832725711
 30
0.0
 10
8.432043454923239
 20
4.068347709486385
 30
0.0
 10
8.44847656038788
 20
4.034447969911526
 30
0.0
 10
8.46818250656351
 20
4.017429198214392
 30
0.0
 10
8.497500269142986
 20
4.011641437799173
 30
0.0
 10
8.497500269142986
 20
4.011641437799173
 30
0.0
 10
9.34919677500645
 20
4.011641437799173
 30
0.0
 10
9.34919677500645
 20
4.011641437799173
 30
0.0
 10
9.37207220902851
 20
4.016395669568817
 30
0.0
 10
9.381442868748389
 20
4.031450736839359
 30
0.0
 10
9.384440101820555
 20
4.059390461224735
 30
0.0
 10
9.396118975515552
 20
4.165706107899545
 30
0.0
 10
9.40876247594642
 20
4.271918401709798
 30
0.0
 10
9.42254285788742
 20
4.377923989790935
 30
0.0
 10
9.426573619605161
 20
4.408688692474216
 30
0.0
 10
9.41744411656925
 20
4.42929036347601
 30
0.0
 10
9.394534231592338
 20
4.450753308349117
 30
0.0
 10
9.29004448552471
 20
4.548249510581687
 30
0.0
 10
9.193271753344042
 20
4.6525325509202
 30
0.0
 10
9.12485215700698
 20
4.779966632919591
 30
0.0
 10
9.05601914921169
 20
4.908261988790295
 30
0.0
 10
9.002275659641791
 20
5.04105319426925
 30
0.0
 10
8.99741807500759
 20
5.189192300134994
 30
0.0
 10
8.996625703045982
 20
5.21189547938279
 30
0.0
 10
9.001689993409299
 20
5.242177868698136
 30
0.0
 10
9.021120331946108
 20
5.243900416440761
 30
0.0
 10
9.047165253814597
 20
5.24624308137073
 30
0.0
 10
9.041101885760558
 20
5.214117565970776
 30
0.0
 10
9.044684785065217
 20
5.195376246531016
 30
0.0
 10
9.067904728635801
 20
5.073643797559714
 30
0.0
 10
9.136220972108305
 20
5.034748669531243
 30
0.0
 10
9.258659665654084
 20
5.064238686884981
 30
0.0
 10
9.36490641041919
 20
5.089801295385535
 30
0.0
 10
9.471911076191049
 20
5.106992321856932
 30
0.0
 10
9.561449107852692
 20
5.012148843148004
 30
0.0
 10
9.573231334412247
 20
4.999643146536547
 30
0.0
 10
9.612092011485865
 20
4.965381671935738
 30
0.0
 10
9.643373478491934
 20
5.016506888936845
 30
0.0
 10
9.669211694631308
 20
5.058623181244024
 30
0.0
 10
9.702525767973674
 20
5.096605358968904
 30
0.0
 10
9.723747556162813
 20
5.142494030832432
 30
0.0
 10
9.759921058757936
 20
5.220801051212161
 30
0.0
 10
9.751687280548188
 20
5.267240938353329
 30
0.0
 10
9.682716468933487
 20
5.31655748022468
 30
0.0
  0
HATCH
  5
47
330
3C
100
AcDbEntity
  8
Layer 1
 62
     7
100
AcDbHatch
 10
0.0
 20
0.0
 30
0.0
210
0.0
220
0.0
230
1.0
  2
SOLID
 70
     1
 71
     0
 91
        1
 92
        1
 93
        1
 72
     4
 94
        3
 73
     0
 74
     1
 95
       80
 96
       76
 40
0.0
 40
0.0
 40
0.0
 40
0.0
 40
1.0
 40
1.0
 40
1.0
 40
2.0
 40
2.0
 40
2.0
 40
3.0
 40
3.0
 40
3.0
 40
4.0
 40
4.0
 40
4.0
 40
5.0
 40
5.0
 40
5.0
 40
6.0
 40
6.0
 40
6.0
 40
7.0
 40
7.0
 40
7.0
 40
8.0
 40
8.0
 40
8.0
 40
9.0
 40
9.0
 40
9.0
 40
10.0
 40
10.0
 40
10.0
 40
11.0
 40
11.0
 40
11.0
 40
12.0
 40
12.0
 40
12.0
 40
13.0
 40
13.0
 40
13.0
 40
14.0
 40
14.0
 40
14.0
 40
15.0
 40
15.0
 40
15.0
 40
16.0
 40
16.0
 40
16.0
 40
17.0
 40
17.0
 40
17.0
 40
18.0
 40
18.0
 40
18.0
 40
19.0
 40
19.0
 40
19.0
 40
20.0
 40
20.0
 40
20.0
 40
21.0
 40
21.0
 40
21.0
 40
22.0
 40
22.0
 40
22.0
 40
23.0
 40
23.0
 40
23.0
 40
24.0
 40
24.0
 40
24.0
 40
25.0
 40
25.0
 40
25.0
 40
25.0
 10
9.682716468933487
 20
5.31655748022468
 10
9.56527316384132
 20
5.400497231722792
 10
9.476630857005842
 20
5.50672675101047
 10
9.415480412142657
 20
5.637244193469161
 10
9.398254934716407
 20
5.673968911341924
 10
9.380547143922223
 20
5.713535832990019
 10
9.348128795406023
 20
5.73851277525808
 10
9.313850095327787
 20
5.764902206675093
 10
9.29472981538465
 20
5.787157523509808
 10
9.312196449494866
 20
5.834510360954567
 10
9.32642469384895
 20
5.872992077524807
 10
9.300758732483837
 20
5.911301539320785
 10
9.270545245078196
 20
5.930249564489659
 10
9.244362519390297
 20
5.946648218999449
 10
9.222313908284699
 20
5.915315075561101
 10
9.204158255077433
 20
5.89461005169475
 10
9.185416935637672
 20
5.873336587073332
 10
9.164884166545583
 20
5.869615883949263
 10
9.135084090598173
 20
5.874697399790006
 10
8.982363007737048
 20
5.900776772613347
 10
8.836876625394947
 20
5.875799830345286
 10
8.699899628901413
 20
5.802936060832252
 10
8.5714664692113
 20
5.734637042837174
 10
8.48654486549989
 20
5.628648680233463
 10
8.426910262650216
 20
5.4978211791811
 10
8.350498044787376
 20
5.330234509301121
 10
8.314944659379597
 20
5.153208277791559
 10
8.303059079955485
 20
4.971548392854335
 10
8.29003661902124
 20
4.772146266168074
 10
8.298339299140693
 20
4.572744139481814
 10
8.337234427169163
 20
4.376270343958016
 10
8.358111705809778
 20
4.270850422109371
 10
8.384191078633119
 20
4.166601832725711
 10
8.432043454923239
 20
4.068347709486385
 10
8.44847656038788
 20
4.034447969911526
 10
8.46818250656351
 20
4.017429198214392
 10
8.497500269142986
 20
4.011641437799173
 10
8.497500269142986
 20
4.011641437799173
 10
9.34919677500645
 20
4.011641437799173
 10
9.34919677500645
 20
4.011641437799173
 10
9.37207220902851
 20
4.016395669568817
 10
9.381442868748389
 20
4.031450736839359
 10
9.384440101820555
 20
4.059390461224735
 10
9.396118975515552
 20
4.165706107899545
 10
9.40876247594642
 20
4.271918401709798
 10
9.42254285788742
 20
4.377923989790935
 10
9.426573619605161
 20
4.408688692474216
 10
9.41744411656925
 20
4.42929036347601
 10
9.394534231592338
 20
4.450753308349117
 10
9.29004448552471
 20
4.548249510581687
 10
9.193271753344042
 20
4.6525325509202
 10
9.12485215700698
 20
4.779966632919591
 10
9.05601914921169
 20
4.908261988790295
 10
9.002275659641791
 20
5.04105319426925
 10
8.99741807500759
 20
5.189192300134994
 10
8.996625703045982
 20
5.21189547938279
 10
9.001689993409299
 20
5.242177868698136
 10
9.021120331946108
 20
5.243900416440761
 10
9.047165253814597
 20
5.24624308137073
 10
9.041101885760558
 20
5.214117565970776
 10
9.044684785065217
 20
5.195376246531016
 10
9.067904728635801
 20
5.073643797559714
 10
9.136220972108305
 20
5.034748669531243
 10
9.258659665654084
 20
5.064238686884981
 10
9.36490641041919
 20
5.089801295385535
 10
9.471911076191049
 20
5.106992321856932
 10
9.561449107852692
 20
5.012148843148004
 10
9.573231334412247
 20
4.999643146536547
 10
9.612092011485865
 20
4.965381671935738
 10
9.643373478491934
 20
5.016506888936845
 10
9.669211694631308
 20
5.058623181244024
 10
9.702525767973674
 20
5.096605358968904
 10
9.723747556162813
 20
5.142494030832432
 10
9.759921058757936
 20
5.220801051212161
 10
9.751687280548188
 20
5.267240938353329
 10
9.682716468933487
 20
5.31655748022468
 97
        0
 75
     0
 76
     1
 98
        0
  0
SPLINE
  5
48
330
3C
100
AcDbEntity
  8
Layer 1
370
     0
100
AcDbSpline
210
0.0
220
0.0
230
1.0
 70
    11
 71
     3
 72
    26
 73
    22
 74
     0
 42
0.0000000001
 43
0.0000000001
 40
0.0
 40
0.0
 40
0.0
 40
0.0
 40
1.0
 40
1.0
 40
1.0
 40
2.0
 40
2.0
 40
2.0
 40
3.0
 40
3.0
 40
3.0
 40
4.0
 40
4.0
 40
4.0
 40
5.0
 40
5.0
 40
5.0
 40
6.0
 40
6.0
 40
6.0
 40
7.0
 40
7.0
 40
7.0
 40
7.0
 10
7.913039820070351
 20
3.264434678003336
 30
0.0
 10
7.913039820070351
 20
3.264434678003336
 30
0.0
 10
6.659369572987935
 20
3.264434678003336
 30
0.0
 10
6.659369572987935
 20
3.264434678003336
 30
0.0
 10
6.620543346869169
 20
3.250688747017189
 30
0.0
 10
6.6002861854159
 20
3.216892360306888
 30
0.0
 10
6.579925671098073
 20
3.153640407197701
 30
0.0
 10
6.565456270060024
 20
3.108647460160338
 30
0.0
 10
6.578030868581187
 20
3.103135307383938
 30
0.0
 10
6.616478134196575
 20
3.103238660248496
 30
0.0
 10
6.824734156279927
 20
3.104031032210103
 30
0.0
 10
7.032955727408427
 20
3.103962130300398
 30
0.0
 10
7.241177298536927
 20
3.103824326480988
 30
0.0
 10
7.483608667833958
 20
3.103652071706726
 30
0.0
 10
7.725936684266432
 20
3.103720973616431
 30
0.0
 10
7.968264700698906
 20
3.102101778738363
 30
0.0
 10
8.007435436366196
 20
3.101826171099543
 30
0.0
 10
8.01132839426453
 20
3.118087021789922
 30
0.0
 10
8.004059242790651
 20
3.150195311712451
 30
0.0
 10
7.989004175520109
 20
3.21651339980351
 30
0.0
 10
7.962304685509423
 20
3.251446668023944
 30
0.0
 10
7.913039820070351
 20
3.264434678003336
 30
0.0
  0
HATCH
  5
49
330
3C
100
AcDbEntity
  8
Layer 1
 62
     7
100
AcDbHatch
 10
0.0
 20
0.0
 30
0.0
210
0.0
220
0.0
230
1.0
  2
SOLID
 70
     1
 71
     0
 91
        1
 92
        1
 93
        1
 72
     4
 94
        3
 73
     0
 74
     1
 95
       26
 96
       22
 40
0.0
 40
0.0
 40
0.0
 40
0.0
 40
1.0
 40
1.0
 40
1.0
 40
2.0
 40
2.0
 40
2.0
 40
3.0
 40
3.0
 40
3.0
 40
4.0
 40
4.0
 40
4.0
 40
5.0
 40
5.0
 40
5.0
 40
6.0
 40
6.0
 40
6.0
 40
7.0
 40
7.0
 40
7.0
 40
7.0
 10
7.913039820070351
 20
3.264434678003336
 10
7.913039820070351
 20
3.264434678003336
 10
6.659369572987935
 20
3.264434678003336
 10
6.659369572987935
 20
3.264434678003336
 10
6.620543346869169
 20
3.250688747017189
 10
6.6002861854159
 20
3.216892360306888
 10
6.579925671098073
 20
3.153640407197701
 10
6.565456270060024
 20
3.108647460160338
 10
6.578030868581187
 20
3.103135307383938
 10
6.616478134196575
 20
3.103238660248496
 10
6.824734156279927
 20
3.104031032210103
 10
7.032955727408427
 20
3.103962130300398
 10
7.241177298536927
 20
3.103824326480988
 10
7.483608667833958
 20
3.103652071706726
 10
7.725936684266432
 20
3.103720973616431
 10
7.968264700698906
 20
3.102101778738363
 10
8.007435436366196
 20
3.101826171099543
 10
8.01132839426453
 20
3.118087021789922
 10
8.004059242790651
 20
3.150195311712451
 10
7.989004175520109
 20
3.21651339980351
 10
7.962304685509423
 20
3.251446668023944
 10
7.913039820070351
 20
3.264434678003336
 97
        0
 75
     0
 76
     1
 98
        0
  0
INSERT
  5
4B
330
3C
100
AcDbEntity
  8
Layer 1
100
AcDbBlockReference
  2
block 3
 10
0.0
 20
0.0
 30
0.0
  0
INSERT
  5
53
330
3C
100
AcDbEntity
  8
Layer 1
100
AcDbBlockReference
  2
block 4
 10
0.0
 20
0.0
 30
0.0
  0
SPLINE
  5
5A
330
3C
100
AcDbEntity
  8
Layer 1
370
     0
100
AcDbSpline
210
0.0
220
0.0
230
1.0
 70
    11
 71
     3
 72
    35
 73
    31
 74
     0
 42
0.0000000001
 43
0.0000000001
 40
0.0
 40
0.0
 40
0.0
 40
0.0
 40
1.0
 40
1.0
 40
1.0
 40
2.0
 40
2.0
 40
2.0
 40
3.0
 40
3.0
 40
3.0
 40
4.0
 40
4.0
 40
4.0
 40
5.0
 40
5.0
 40
5.0
 40
6.0
 40
6.0
 40
6.0
 40
7.0
 40
7.0
 40
7.0
 40
8.0
 40
8.0
 40
8.0
 40
9.0
 40
9.0
 40
9.0
 40
10.0
 40
10.0
 40
10.0
 40
10.0
 10
1.779564072905803
 20
3.999652505510503
 30
0.0
 10
1.779564072905803
 20
3.999652505510503
 30
0.0
 10
2.750684813765454
 20
3.999652505510503
 30
0.0
 10
2.750684813765454
 20
3.999652505510503
 30
0.0
 10
2.754043781863572
 20
4.035860459060479
 30
0.0
 10
2.731581759299743
 20
4.064730359226873
 30
0.0
 10
2.716630044893759
 20
4.093049044115626
 30
0.0
 10
2.577120903218567
 20
4.357529024518256
 30
0.0
 10
2.494404160617718
 20
4.637753091288478
 30
0.0
 10
2.473578558409383
 20
4.936167262220819
 30
0.0
 10
2.468186983974967
 20
5.013613008729235
 30
0.0
 10
2.466636691006605
 20
5.02851304670294
 30
0.0
 10
2.415545924960349
 20
5.035075953602342
 30
0.0
 10
2.415545924960349
 20
5.035075953602342
 30
0.0
 10
2.053897026396248
 20
5.035075953602342
 30
0.0
 10
2.053897026396248
 20
5.035075953602342
 30
0.0
 10
2.041511908126775
 20
5.031648083594519
 30
0.0
 10
2.03165893503896
 20
5.023534883726755
 30
0.0
 10
2.031572807651829
 20
5.003880613983404
 30
0.0
 10
2.031469454787271
 20
4.974132214468272
 30
0.0
 10
2.021685383609162
 20
4.944848902843648
 30
0.0
 10
2.021116942854096
 20
4.91646131604519
 30
0.0
 10
2.017999131439944
 20
4.761776528757472
 30
0.0
 10
1.98546020458176
 20
4.612293835652482
 30
0.0
 10
1.948270398818488
 20
4.463431259734836
 30
0.0
 10
1.912889268184972
 20
4.321837835291068
 30
0.0
 10
1.842609320285875
 20
4.193886988968889
 30
0.0
 10
1.788641899509437
 20
4.059562715998998
 30
0.0
 10
1.779667425770361
 20
4.037204046299727
 30
0.0
 10
1.764043917744753
 20
4.01463867087134
 30
0.0
 10
1.779564072905803
 20
3.999652505510503
 30
0.0
  0
HATCH
  5
5B
330
3C
100
AcDbEntity
  8
Layer 1
 62
     7
100
AcDbHatch
 10
0.0
 20
0.0
 30
0.0
210
0.0
220
0.0
230
1.0
  2
SOLID
 70
     1
 71
     0
 91
        1
 92
        1
 93
        1
 72
     4
 94
        3
 73
     0
 74
     1
 95
       35
 96
       31
 40
0.0
 40
0.0
 40
0.0
 40
0.0
 40
1.0
 40
1.0
 40
1.0
 40
2.0
 40
2.0
 40
2.0
 40
3.0
 40
3.0
 40
3.0
 40
4.0
 40
4.0
 40
4.0
 40
5.0
 40
5.0
 40
5.0
 40
6.0
 40
6.0
 40
6.0
 40
7.0
 40
7.0
 40
7.0
 40
8.0
 40
8.0
 40
8.0
 40
9.0
 40
9.0
 40
9.0
 40
10.0
 40
10.0
 40
10.0
 40
10.0
 10
1.779564072905803
 20
3.999652505510503
 10
1.779564072905803
 20
3.999652505510503
 10
2.750684813765454
 20
3.999652505510503
 10
2.750684813765454
 20
3.999652505510503
 10
2.754043781863572
 20
4.035860459060479
 10
2.731581759299743
 20
4.064730359226873
 10
2.716630044893759
 20
4.093049044115626
 10
2.577120903218567
 20
4.357529024518256
 10
2.494404160617718
 20
4.637753091288478
 10
2.473578558409383
 20
4.936167262220819
 10
2.468186983974967
 20
5.013613008729235
 10
2.466636691006605
 20
5.02851304670294
 10
2.415545924960349
 20
5.035075953602342
 10
2.415545924960349
 20
5.035075953602342
 10
2.053897026396248
 20
5.035075953602342
 10
2.053897026396248
 20
5.035075953602342
 10
2.041511908126775
 20
5.031648083594519
 10
2.03165893503896
 20
5.023534883726755
 10
2.031572807651829
 20
5.003880613983404
 10
2.031469454787271
 20
4.974132214468272
 10
2.021685383609162
 20
4.944848902843648
 10
2.021116942854096
 20
4.91646131604519
 10
2.017999131439944
 20
4.761776528757472
 10
1.98546020458176
 20
4.612293835652482
 10
1.948270398818488
 20
4.463431259734836
 10
1.912889268184972
 20
4.321837835291068
 10
1.842609320285875
 20
4.193886988968889
 10
1.788641899509437
 20
4.059562715998998
 10
1.779667425770361
 20
4.037204046299727
 10
1.764043917744753
 20
4.01463867087134
 10
1.779564072905803
 20
3.999652505510503
 97
        0
 75
     0
 76
     1
 98
        0
  0
SPLINE
  5
5C
330
3C
100
AcDbEntity
  8
Layer 1
370
     0
100
AcDbSpline
210
0.0
220
0.0
230
1.0
 70
    11
 71
     3
 72
    29
 73
    25
 74
     0
 42
0.0000000001
 43
0.0000000001
 40
0.0
 40
0.0
 40
0.0
 40
0.0
 40
1.0
 40
1.0
 40
1.0
 40
2.0
 40
2.0
 40
2.0
 40
3.0
 40
3.0
 40
3.0
 40
4.0
 40
4.0
 40
4.0
 40
5.0
 40
5.0
 40
5.0
 40
6.0
 40
6.0
 40
6.0
 40
7.0
 40
7.0
 40
7.0
 40
8.0
 40
8.0
 40
8.0
 40
8.0
 10
1.732538519532143
 20
3.865259330630907
 30
0.0
 10
1.732538519532143
 20
3.865259330630907
 30
0.0
 10
2.799312336539755
 20
3.865259330630907
 30
0.0
 10
2.799312336539755
 20
3.865259330630907
 30
0.0
 10
2.819259439399352
 20
3.873493108840654
 30
0.0
 10
2.83226467485617
 20
3.891752114912479
 30
0.0
 10
2.836037054412518
 20
3.914696450844242
 30
0.0
 10
2.841032442866131
 20
3.945461153527523
 30
0.0
 10
2.810870631892768
 20
3.968681097098107
 30
0.0
 10
2.776988117795336
 20
3.977982854908282
 30
0.0
 10
2.772767875825905
 20
3.979188638328119
 30
0.0
 10
2.766566703952456
 20
3.978637423050479
 30
0.0
 10
2.761209580472892
 20
3.979636500741202
 30
0.0
 10
2.761209580472892
 20
3.979636500741202
 30
0.0
 10
1.755258924257366
 20
3.979636500741202
 30
0.0
 10
1.755258924257366
 20
3.979636500741202
 30
0.0
 10
1.754345973953775
 20
3.979533147876644
 30
0.0
 10
1.753381347217905
 20
3.979498696921792
 30
0.0
 10
1.752451171436887
 20
3.979429795012086
 30
0.0
 10
1.712315809033726
 20
3.976949326262707
 30
0.0
 10
1.688975287121159
 20
3.95355712791786
 30
0.0
 10
1.690129394108717
 20
3.915454371850997
 30
0.0
 10
1.691007893457456
 20
3.886205511181226
 30
0.0
 10
1.707285969625262
 20
3.87053032672334
 30
0.0
 10
1.732538519532143
 20
3.865259330630907
 30
0.0
  0
HATCH
  5
5D
330
3C
100
AcDbEntity
  8
Layer 1
 62
     7
100
AcDbHatch
 10
0.0
 20
0.0
 30
0.0
210
0.0
220
0.0
230
1.0
  2
SOLID
 70
     1
 71
     0
 91
        1
 92
        1
 93
        1
 72
     4
 94
        3
 73
     0
 74
     1
 95
       29
 96
       25
 40
0.0
 40
0.0
 40
0.0
 40
0.0
 40
1.0
 40
1.0
 40
1.0
 40
2.0
 40
2.0
 40
2.0
 40
3.0
 40
3.0
 40
3.0
 40
4.0
 40
4.0
 40
4.0
 40
5.0
 40
5.0
 40
5.0
 40
6.0
 40
6.0
 40
6.0
 40
7.0
 40
7.0
 40
7.0
 40
8.0
 40
8.0
 40
8.0
 40
8.0
 10
1.732538519532143
 20
3.865259330630907
 10
1.732538519532143
 20
3.865259330630907
 10
2.799312336539755
 20
3.865259330630907
 10
2.799312336539755
 20
3.865259330630907
 10
2.819259439399352
 20
3.873493108840654
 10
2.83226467485617
 20
3.891752114912479
 10
2.836037054412518
 20
3.914696450844242
 10
2.841032442866131
 20
3.945461153527523
 10
2.810870631892768
 20
3.968681097098107
 10
2.776988117795336
 20
3.977982854908282
 10
2.772767875825905
 20
3.979188638328119
 10
2.766566703952456
 20
3.978637423050479
 10
2.761209580472892
 20
3.979636500741202
 10
2.761209580472892
 20
3.979636500741202
 10
1.755258924257366
 20
3.979636500741202
 10
1.755258924257366
 20
3.979636500741202
 10
1.754345973953775
 20
3.979533147876644
 10
1.753381347217905
 20
3.979498696921792
 10
1.752451171436887
 20
3.979429795012086
 10
1.712315809033726
 20
3.976949326262707
 10
1.688975287121159
 20
3.95355712791786
 10
1.690129394108717
 20
3.915454371850997
 10
1.691007893457456
 20
3.886205511181226
 10
1.707285969625262
 20
3.87053032672334
 10
1.732538519532143
 20
3.865259330630907
 97
        0
 75
     0
 76
     1
 98
        0
  0
INSERT
  5
5F
330
3C
100
AcDbEntity
  8
Layer 1
100
AcDbBlockReference
  2
block 5
 10
0.0
 20
0.0
 30
0.0
  0
SPLINE
  5
66
330
3C
100
AcDbEntity
  8
Layer 1
370
     0
100
AcDbSpline
210
0.0
220
0.0
230
1.0
 70
    11
 71
     3
 72
    26
 73
    22
 74
     0
 42
0.0000000001
 43
0.0000000001
 40
0.0
 40
0.0
 40
0.0
 40
0.0
 40
1.0
 40
1.0
 40
1.0
 40
2.0
 40
2.0
 40
2.0
 40
3.0
 40
3.0
 40
3.0
 40
4.0
 40
4.0
 40
4.0
 40
5.0
 40
5.0
 40
5.0
 40
6.0
 40
6.0
 40
6.0
 40
7.0
 40
7.0
 40
7.0
 40
7.0
 10
5.190208603303142
 20
3.946356878353688
 30
0.0
 10
5.190208603303142
 20
3.946356878353688
 30
0.0
 10
6.128445907756083
 20
3.946356878353688
 30
0.0
 10
6.128445907756083
 20
3.946356878353688
 30
0.0
 10
6.163827038389599
 20
3.95893147687485
 30
0.0
 10
6.178261988472795
 20
3.988214788499474
 30
0.0
 10
6.169270289256293
 20
4.020908744654495
 30
0.0
 10
6.160106335265528
 20
4.054188367042008
 30
0.0
 10
6.131546493692808
 20
4.072309569294422
 30
0.0
 10
6.091962346567287
 20
4.071965059745898
 30
0.0
 10
5.924771862668112
 20
4.07062147250665
 30
0.0
 10
5.757546927814085
 20
4.071413844468258
 30
0.0
 10
5.59035644391491
 20
4.071517197332815
 30
0.0
 10
5.467745495594869
 20
4.071551648287667
 30
0.0
 10
5.345100096319975
 20
4.072171765475012
 30
0.0
 10
5.222489147999933
 20
4.071896157836193
 30
0.0
 10
5.176738279955815
 20
4.071758354016782
 30
0.0
 10
5.153070473972148
 20
4.044645452547866
 30
0.0
 10
5.153001572062443
 20
4.0016851118468
 30
0.0
 10
5.152898219197886
 20
3.97078260534411
 30
0.0
 10
5.16716091450682
 20
3.95355712791786
 30
0.0
 10
5.190208603303142
 20
3.946356878353688
 30
0.0
  0
HATCH
  5
67
330
3C
100
AcDbEntity
  8
Layer 1
 62
     7
100
AcDbHatch
 10
0.0
 20
0.0
 30
0.0
210
0.0
220
0.0
230
1.0
  2
SOLID
 70
     1
 71
     0
 91
        1
 92
        1
 93
        1
 72
     4
 94
        3
 73
     0
 74
     1
 95
       26
 96
       22
 40
0.0
 40
0.0
 40
0.0
 40
0.0
 40
1.0
 40
1.0
 40
1.0
 40
2.0
 40
2.0
 40
2.0
 40
3.0
 40
3.0
 40
3.0
 40
4.0
 40
4.0
 40
4.0
 40
5.0
 40
5.0
 40
5.0
 40
6.0
 40
6.0
 40
6.0
 40
7.0
 40
7.0
 40
7.0
 40
7.0
 10
5.190208603303142
 20
3.946356878353688
 10
5.190208603303142
 20
3.946356878353688
 10
6.128445907756083
 20
3.946356878353688
 10
6.128445907756083
 20
3.946356878353688
 10
6.163827038389599
 20
3.95893147687485
 10
6.178261988472795
 20
3.988214788499474
 10
6.169270289256293
 20
4.020908744654495
 10
6.160106335265528
 20
4.054188367042008
 10
6.131546493692808
 20
4.072309569294422
 10
6.091962346567287
 20
4.071965059745898
 10
5.924771862668112
 20
4.07062147250665
 10
5.757546927814085
 20
4.071413844468258
 10
5.59035644391491
 20
4.071517197332815
 10
5.467745495594869
 20
4.071551648287667
 10
5.345100096319975
 20
4.072171765475012
 10
5.222489147999933
 20
4.071896157836193
 10
5.176738279955815
 20
4.071758354016782
 10
5.153070473972148
 20
4.044645452547866
 10
5.153001572062443
 20
4.0016851118468
 10
5.152898219197886
 20
3.97078260534411
 10
5.16716091450682
 20
3.95355712791786
 10
5.190208603303142
 20
3.946356878353688
 97
        0
 75
     0
 76
     1
 98
        0
  0
INSERT
  5
69
330
3C
100
AcDbEntity
  8
Layer 1
100
AcDbBlockReference
  2
block 6
 10
0.0
 20
0.0
 30
0.0
  0
INSERT
  5
71
330
3C
100
AcDbEntity
  8
Layer 1
100
AcDbBlockReference
  2
block 7
 10
0.0
 20
0.0
 30
0.0
  0
SPLINE
  5
78
330
3C
100
AcDbEntity
  8
Layer 1
370
     0
100
AcDbSpline
210
0.0
220
0.0
230
1.0
 70
    11
 71
     3
 72
    29
 73
    25
 74
     0
 42
0.0000000001
 43
0.0000000001
 40
0.0
 40
0.0
 40
0.0
 40
0.0
 40
1.0
 40
1.0
 40
1.0
 40
2.0
 40
2.0
 40
2.0
 40
3.0
 40
3.0
 40
3.0
 40
4.0
 40
4.0
 40
4.0
 40
5.0
 40
5.0
 40
5.0
 40
6.0
 40
6.0
 40
6.0
 40
7.0
 40
7.0
 40
7.0
 40
8.0
 40
8.0
 40
8.0
 40
8.0
 10
8.439209253532558
 20
3.876042479499739
 30
0.0
 10
8.439209253532558
 20
3.876042479499739
 30
0.0
 10
9.406316458151892
 20
3.876042479499739
 30
0.0
 10
9.406316458151892
 20
3.876042479499739
 30
0.0
 10
9.42970865649674
 20
3.890753037221756
 30
0.0
 10
9.448622230710761
 20
3.910458983397385
 30
0.0
 10
9.436185436009008
 20
3.946287976443983
 30
0.0
 10
9.4208892120545
 20
3.990350747700329
 30
0.0
 10
9.382889808852193
 20
3.992693412630298
 30
0.0
 10
9.344545896101362
 20
3.992590059765741
 30
0.0
 10
9.337070038898371
 20
3.992590059765741
 30
0.0
 10
9.329697534559935
 20
3.992314452126921
 30
0.0
 10
9.322221677356945
 20
3.992383354036626
 30
0.0
 10
9.136944442160207
 20
3.992590059765741
 30
0.0
 10
8.951598305053766
 20
3.993175725998233
 30
0.0
 10
8.766286618902178
 20
3.993037922178824
 30
0.0
 10
8.669720592450625
 20
3.993003471223971
 30
0.0
 10
8.573189016953924
 20
3.991590982075019
 30
0.0
 10
8.47662299050237
 20
3.991349825391051
 30
0.0
 10
8.432973630704256
 20
3.991315374436199
 30
0.0
 10
8.401244301285105
 20
3.97188503589939
 30
0.0
 10
8.401003144601138
 20
3.927753362733339
 30
0.0
 10
8.400830889826874
 20
3.898125541560191
 30
0.0
 10
8.41688503478814
 20
3.883036023334796
 30
0.0
 10
8.439209253532558
 20
3.876042479499739
 30
0.0
  0
HATCH
  5
79
330
3C
100
AcDbEntity
  8
Layer 1
 62
     7
100
AcDbHatch
 10
0.0
 20
0.0
 30
0.0
210
0.0
220
0.0
230
1.0
  2
SOLID
 70
     1
 71
     0
 91
        1
 92
        1
 93
        1
 72
     4
 94
        3
 73
     0
 74
     1
 95
       29
 96
       25
 40
0.0
 40
0.0
 40
0.0
 40
0.0
 40
1.0
 40
1.0
 40
1.0
 40
2.0
 40
2.0
 40
2.0
 40
3.0
 40
3.0
 40
3.0
 40
4.0
 40
4.0
 40
4.0
 40
5.0
 40
5.0
 40
5.0
 40
6.0
 40
6.0
 40
6.0
 40
7.0
 40
7.0
 40
7.0
 40
8.0
 40
8.0
 40
8.0
 40
8.0
 10
8.439209253532558
 20
3.876042479499739
 10
8.439209253532558
 20
3.876042479499739
 10
9.406316458151892
 20
3.876042479499739
 10
9.406316458151892
 20
3.876042479499739
 10
9.42970865649674
 20
3.890753037221756
 10
9.448622230710761
 20
3.910458983397385
 10
9.436185436009008
 20
3.946287976443983
 10
9.4208892120545
 20
3.990350747700329
 10
9.382889808852193
 20
3.992693412630298
 10
9.344545896101362
 20
3.992590059765741
 10
9.337070038898371
 20
3.992590059765741
 10
9.329697534559935
 20
3.992314452126921
 10
9.322221677356945
 20
3.992383354036626
 10
9.136944442160207
 20
3.992590059765741
 10
8.951598305053766
 20
3.993175725998233
 10
8.766286618902178
 20
3.993037922178824
 10
8.669720592450625
 20
3.993003471223971
 10
8.573189016953924
 20
3.991590982075019
 10
8.47662299050237
 20
3.991349825391051
 10
8.432973630704256
 20
3.991315374436199
 10
8.401244301285105
 20
3.97188503589939
 10
8.401003144601138
 20
3.927753362733339
 10
8.400830889826874
 20
3.898125541560191
 10
8.41688503478814
 20
3.883036023334796
 10
8.439209253532558
 20
3.876042479499739
 97
        0
 75
     0
 76
     1
 98
        0
  0
INSERT
  5
7B
330
3C
100
AcDbEntity
  8
Layer 1
100
AcDbBlockReference
  2
block 8
 10
0.0
 20
0.0
 30
0.0
  0
SPLINE
  5
84
330
3C
100
AcDbEntity
  8
Layer 1
370
     0
100
AcDbSpline
210
0.0
220
0.0
230
1.0
 70
    11
 71
     3
 72
    77
 73
    73
 74
     0
 42
0.0000000001
 43
0.0000000001
 40
0.0
 40
0.0
 40
0.0
 40
0.0
 40
1.0
 40
1.0
 40
1.0
 40
2.0
 40
2.0
 40
2.0
 40
3.0
 40
3.0
 40
3.0
 40
4.0
 40
4.0
 40
4.0
 40
5.0
 40
5.0
 40
5.0
 40
6.0
 40
6.0
 40
6.0
 40
7.0
 40
7.0
 40
7.0
 40
8.0
 40
8.0
 40
8.0
 40
9.0
 40
9.0
 40
9.0
 40
10.0
 40
10.0
 40
10.0
 40
11.0
 40
11.0
 40
11.0
 40
12.0
 40
12.0
 40
12.0
 40
13.0
 40
13.0
 40
13.0
 40
14.0
 40
14.0
 40
14.0
 40
15.0
 40
15.0
 40
15.0
 40
16.0
 40
16.0
 40
16.0
 40
17.0
 40
17.0
 40
17.0
 40
18.0
 40
18.0
 40
18.0
 40
19.0
 40
19.0
 40
19.0
 40
20.0
 40
20.0
 40
20.0
 40
21.0
 40
21.0
 40
21.0
 40
22.0
 40
22.0
 40
22.0
 40
23.0
 40
23.0
 40
23.0
 40
24.0
 40
24.0
 40
24.0
 40
24.0
 10
5.932213268916252
 20
5.298487954404544
 30
0.0
 10
5.905375975086155
 20
5.322569171846441
 30
0.0
 10
5.91605577109043
 20
5.331715900359779
 30
0.0
 10
5.930421819263922
 20
5.354780814633527
 30
0.0
 10
6.006799586171911
 20
5.477374537476142
 30
0.0
 10
6.03532497678978
 20
5.603516708668565
 30
0.0
 10
5.959774032798251
 20
5.740235323000705
 30
0.0
 10
5.894386120488209
 20
5.858574352919036
 30
0.0
 10
5.82076442996842
 20
5.97107394598987
 30
0.0
 10
5.739976940839311
 20
6.079077689452452
 30
0.0
 10
5.728056910460347
 20
6.094959579639454
 30
0.0
 10
5.721580130948077
 20
6.107603080070321
 30
0.0
 10
5.725541990756114
 20
6.122434216134321
 30
0.0
 10
5.756616752033068
 20
6.14274305401987
 30
0.0
 10
5.777218423034862
 20
6.177831351537139
 30
0.0
 10
5.777218423034862
 20
6.217742782733758
 30
0.0
 10
5.777218423034862
 20
6.28065022629442
 30
0.0
 10
5.726265460808016
 20
6.331620413998691
 30
0.0
 10
5.663358017247354
 20
6.331620413998691
 30
0.0
 10
5.600450573686692
 20
6.331620413998691
 30
0.0
 10
5.549497611459848
 20
6.28065022629442
 30
0.0
 10
5.549497611459848
 20
6.217742782733758
 30
0.0
 10
5.549497611459848
 20
6.178055282743681
 30
0.0
 10
5.569858125777674
 20
6.143139240000673
 30
0.0
 10
5.600622828460955
 20
6.122778725682847
 30
0.0
 10
5.60344780675886
 20
6.096957735020899
 30
0.0
 10
5.585395506416151
 20
6.07614935828999
 30
0.0
 10
5.568307832809311
 20
6.052516003261176
 30
0.0
 10
5.555250920920215
 20
6.034463702918467
 30
0.0
 10
5.542951930037873
 20
6.015705158001282
 30
0.0
 10
5.528516979954676
 20
5.998789739168705
 30
0.0
 10
5.498579100187855
 20
5.963753118083714
 30
0.0
 10
5.493480358869685
 20
5.929336614186068
 30
0.0
 10
5.517010361033941
 20
5.88689303780779
 30
0.0
 10
5.542951930037873
 20
5.839936386343835
 30
0.0
 10
5.562485621439239
 20
5.789310708188088
 30
0.0
 10
5.583845213447789
 20
5.739890813452179
 30
0.0
 10
5.588530543307728
 20
5.729055988151069
 30
0.0
 10
5.59779785016305
 20
5.713553058467444
 30
0.0
 10
5.580021157459161
 20
5.706404485335551
 30
0.0
 10
5.565172795917734
 20
5.700478921100921
 30
0.0
 10
5.55628444956579
 20
5.713122421531788
 30
0.0
 10
5.549979924827783
 20
5.724835746181638
 30
0.0
 10
5.544777830645055
 20
5.734637042837174
 30
0.0
 10
5.542159558076265
 20
5.745971406983646
 30
0.0
 10
5.536371797661046
 20
5.75541096861323
 30
0.0
 10
5.509810111469769
 20
5.798543564088559
 30
0.0
 10
5.501817489943989
 20
5.85208034792934
 30
0.0
 10
5.464644909658144
 20
5.891733396964566
 30
0.0
 10
5.44500786539222
 20
5.866325817760849
 30
0.0
 10
5.424957409668066
 20
5.846327038468973
 30
0.0
 10
5.412038301598379
 20
5.822486977711044
 30
0.0
 10
5.370731606730233
 20
5.746057534370776
 30
0.0
 10
5.311992728706723
 20
5.678292506175913
 30
0.0
 10
5.319365233045159
 20
5.580003931981735
 30
0.0
 10
5.326083169241396
 20
5.491602781830224
 30
0.0
 10
5.356158852827627
 20
5.415448946128777
 30
0.0
 10
5.404217934846862
 20
5.344083793151825
 30
0.0
 10
5.411831595869264
 20
5.332783879960206
 30
0.0
 10
5.420272079808126
 20
5.326134845673674
 30
0.0
 10
5.410074597171787
 20
5.31090752362887
 30
0.0
 10
5.365529512547506
 20
5.244520533628106
 30
0.0
 10
5.366494139283376
 20
5.214031438583644
 30
0.0
 10
5.431503091090041
 20
5.193291963762441
 30
0.0
 10
5.431503091090041
 20
5.193291963762441
 30
0.0
 10
5.907477483332158
 20
5.193291963762441
 30
0.0
 10
5.907477483332158
 20
5.193291963762441
 30
0.0
 10
5.908166502429208
 20
5.193533120446408
 30
0.0
 10
5.908821070571405
 20
5.193739826175523
 30
0.0
 10
5.90944118775875
 20
5.194084335724048
 30
0.0
 10
5.958085936010478
 20
5.218389484372485
 30
0.0
 10
5.970867240260755
 20
5.263813068345505
 30
0.0
 10
5.932213268916252
 20
5.298487954404544
 30
0.0
  0
HATCH
  5
85
330
3C
100
AcDbEntity
  8
Layer 1
 62
     7
100
AcDbHatch
 10
0.0
 20
0.0
 30
0.0
210
0.0
220
0.0
230
1.0
  2
SOLID
 70
     1
 71
     0
 91
        1
 92
        1
 93
        1
 72
     4
 94
        3
 73
     0
 74
     1
 95
       77
 96
       73
 40
0.0
 40
0.0
 40
0.0
 40
0.0
 40
1.0
 40
1.0
 40
1.0
 40
2.0
 40
2.0
 40
2.0
 40
3.0
 40
3.0
 40
3.0
 40
4.0
 40
4.0
 40
4.0
 40
5.0
 40
5.0
 40
5.0
 40
6.0
 40
6.0
 40
6.0
 40
7.0
 40
7.0
 40
7.0
 40
8.0
 40
8.0
 40
8.0
 40
9.0
 40
9.0
 40
9.0
 40
10.0
 40
10.0
 40
10.0
 40
11.0
 40
11.0
 40
11.0
 40
12.0
 40
12.0
 40
12.0
 40
13.0
 40
13.0
 40
13.0
 40
14.0
 40
14.0
 40
14.0
 40
15.0
 40
15.0
 40
15.0
 40
16.0
 40
16.0
 40
16.0
 40
17.0
 40
17.0
 40
17.0
 40
18.0
 40
18.0
 40
18.0
 40
19.0
 40
19.0
 40
19.0
 40
20.0
 40
20.0
 40
20.0
 40
21.0
 40
21.0
 40
21.0
 40
22.0
 40
22.0
 40
22.0
 40
23.0
 40
23.0
 40
23.0
 40
24.0
 40
24.0
 40
24.0
 40
24.0
 10
5.932213268916252
 20
5.298487954404544
 10
5.905375975086155
 20
5.322569171846441
 10
5.91605577109043
 20
5.331715900359779
 10
5.930421819263922
 20
5.354780814633527
 10
6.006799586171911
 20
5.477374537476142
 10
6.03532497678978
 20
5.603516708668565
 10
5.959774032798251
 20
5.740235323000705
 10
5.894386120488209
 20
5.858574352919036
 10
5.82076442996842
 20
5.97107394598987
 10
5.739976940839311
 20
6.079077689452452
 10
5.728056910460347
 20
6.094959579639454
 10
5.721580130948077
 20
6.107603080070321
 10
5.725541990756114
 20
6.122434216134321
 10
5.756616752033068
 20
6.14274305401987
 10
5.777218423034862
 20
6.177831351537139
 10
5.777218423034862
 20
6.217742782733758
 10
5.777218423034862
 20
6.28065022629442
 10
5.726265460808016
 20
6.331620413998691
 10
5.663358017247354
 20
6.331620413998691
 10
5.600450573686692
 20
6.331620413998691
 10
5.549497611459848
 20
6.28065022629442
 10
5.549497611459848
 20
6.217742782733758
 10
5.549497611459848
 20
6.178055282743681
 10
5.569858125777674
 20
6.143139240000673
 10
5.600622828460955
 20
6.122778725682847
 10
5.60344780675886
 20
6.096957735020899
 10
5.585395506416151
 20
6.07614935828999
 10
5.568307832809311
 20
6.052516003261176
 10
5.555250920920215
 20
6.034463702918467
 10
5.542951930037873
 20
6.015705158001282
 10
5.528516979954676
 20
5.998789739168705
 10
5.498579100187855
 20
5.963753118083714
 10
5.493480358869685
 20
5.929336614186068
 10
5.517010361033941
 20
5.88689303780779
 10
5.542951930037873
 20
5.839936386343835
 10
5.562485621439239
 20
5.789310708188088
 10
5.583845213447789
 20
5.739890813452179
 10
5.588530543307728
 20
5.729055988151069
 10
5.59779785016305
 20
5.713553058467444
 10
5.580021157459161
 20
5.706404485335551
 10
5.565172795917734
 20
5.700478921100921
 10
5.55628444956579
 20
5.713122421531788
 10
5.549979924827783
 20
5.724835746181638
 10
5.544777830645055
 20
5.734637042837174
 10
5.542159558076265
 20
5.745971406983646
 10
5.536371797661046
 20
5.75541096861323
 10
5.509810111469769
 20
5.798543564088559
 10
5.501817489943989
 20
5.85208034792934
 10
5.464644909658144
 20
5.891733396964566
 10
5.44500786539222
 20
5.866325817760849
 10
5.424957409668066
 20
5.846327038468973
 10
5.412038301598379
 20
5.822486977711044
 10
5.370731606730233
 20
5.746057534370776
 10
5.311992728706723
 20
5.678292506175913
 10
5.319365233045159
 20
5.580003931981735
 10
5.326083169241396
 20
5.491602781830224
 10
5.356158852827627
 20
5.415448946128777
 10
5.404217934846862
 20
5.344083793151825
 10
5.411831595869264
 20
5.332783879960206
 10
5.420272079808126
 20
5.326134845673674
 10
5.410074597171787
 20
5.31090752362887
 10
5.365529512547506
 20
5.244520533628106
 10
5.366494139283376
 20
5.214031438583644
 10
5.431503091090041
 20
5.193291963762441
 10
5.431503091090041
 20
5.193291963762441
 10
5.907477483332158
 20
5.193291963762441
 10
5.907477483332158
 20
5.193291963762441
 10
5.908166502429208
 20
5.193533120446408
 10
5.908821070571405
 20
5.193739826175523
 10
5.90944118775875
 20
5.194084335724048
 10
5.958085936010478
 20
5.218389484372485
 10
5.970867240260755
 20
5.263813068345505
 10
5.932213268916252
 20
5.298487954404544
 97
        0
 75
     0
 76
     1
 98
        0
  0
INSERT
  5
87
330
3C
100
AcDbEntity
  8
Layer 1
100
AcDbBlockReference
  2
block 9
 10
0.0
 20
0.0
 30
0.0
  0
SPLINE
  5
8E
330
3C
100
AcDbEntity
  8
Layer 1
370
     0
100
AcDbSpline
210
0.0
220
0.0
230
1.0
 70
    11
 71
     3
 72
    86
 73
    82
 74
     0
 42
0.0000000001
 43
0.0000000001
 40
0.0
 40
0.0
 40
0.0
 40
0.0
 40
1.0
 40
1.0
 40
1.0
 40
2.0
 40
2.0
 40
2.0
 40
3.0
 40
3.0
 40
3.0
 40
4.0
 40
4.0
 40
4.0
 40
5.0
 40
5.0
 40
5.0
 40
6.0
 40
6.0
 40
6.0
 40
7.0
 40
7.0
 40
7.0
 40
8.0
 40
8.0
 40
8.0
 40
9.0
 40
9.0
 40
9.0
 40
10.0
 40
10.0
 40
10.0
 40
11.0
 40
11.0
 40
11.0
 40
12.0
 40
12.0
 40
12.0
 40
13.0
 40
13.0
 40
13.0
 40
14.0
 40
14.0
 40
14.0
 40
15.0
 40
15.0
 40
15.0
 40
16.0
 40
16.0
 40
16.0
 40
17.0
 40
17.0
 40
17.0
 40
18.0
 40
18.0
 40
18.0
 40
19.0
 40
19.0
 40
19.0
 40
20.0
 40
20.0
 40
20.0
 40
21.0
 40
21.0
 40
21.0
 40
22.0
 40
22.0
 40
22.0
 40
23.0
 40
23.0
 40
23.0
 40
24.0
 40
24.0
 40
24.0
 40
25.0
 40
25.0
 40
25.0
 40
26.0
 40
26.0
 40
26.0
 40
27.0
 40
27.0
 40
27.0
 40
27.0
 10
4.46410305335446
 20
6.124570175335177
 30
0.0
 10
4.395201143649463
 20
6.087139212887937
 30
0.0
 10
4.327332762590041
 20
6.082316079208587
 30
0.0
 10
4.26359849611292
 20
6.123502195734749
 30
0.0
 10
4.225702445775172
 20
6.147996824634875
 30
0.0
 10
4.202740884365981
 20
6.145843639956595
 30
0.0
 10
4.164982637847643
 20
6.124070636489815
 30
0.0
 10
4.098716226188862
 20
6.085830076603542
 30
0.0
 10
4.027988415876683
 20
6.068690726564424
 30
0.0
 10
3.95838026159721
 20
6.126826712878015
 30
0.0
 10
3.9420332835197
 20
6.140469290999604
 30
0.0
 10
3.918709987084558
 20
6.158900551845691
 30
0.0
 10
3.888513725156344
 20
6.138626164914996
 30
0.0
 10
3.811705321312699
 20
6.087053085500806
 30
0.0
 10
3.732330321332542
 20
6.085916203990673
 30
0.0
 10
3.64976860802853
 20
6.129996200724445
 30
0.0
 10
3.591477592418102
 20
6.161088187478825
 30
0.0
 10
3.53504692836971
 20
6.140365938135047
 30
0.0
 10
3.497495387580487
 20
6.081144746743602
 30
0.0
 10
3.469107800782028
 20
6.03642740734506
 30
0.0
 10
3.47989094965086
 20
5.975001354843055
 30
0.0
 10
3.528105060966932
 20
5.937070853550454
 30
0.0
 10
3.719721271856528
 20
5.786330700593347
 30
0.0
 10
3.785350340850537
 20
5.575404729508926
 30
0.0
 10
3.809190401608466
 20
5.346219752352681
 30
0.0
 10
3.815839435894998
 20
5.282382133011001
 30
0.0
 10
3.816407876650064
 20
5.257698023859186
 30
0.0
 10
3.791430934382003
 20
5.247379962880863
 30
0.0
 10
3.791430934382003
 20
5.247379962880863
 30
0.0
 10
3.690472411186757
 20
5.247379962880863
 30
0.0
 10
3.690472411186757
 20
5.247379962880863
 30
0.0
 10
3.628167859336013
 20
5.247379962880863
 30
0.0
 10
3.577662759522251
 20
5.196874863067101
 30
0.0
 10
3.577662759522251
 20
5.134587536693783
 30
0.0
 10
3.577662759522251
 20
5.075693629373437
 30
0.0
 10
3.622776284901597
 20
5.027427841625087
 30
0.0
 10
3.68030937950527
 20
5.022277423874638
 30
0.0
 10
3.680981173124893
 20
5.022156845532655
 30
0.0
 10
3.681635741267091
 20
5.02195013980354
 30
0.0
 10
3.682307534886715
 20
5.021777885029278
 30
0.0
 10
3.682307534886715
 20
5.021777885029278
 30
0.0
 10
3.690472411186757
 20
5.021777885029278
 30
0.0
 10
3.690472411186757
 20
5.021777885029278
 30
0.0
 10
3.690472411186757
 20
5.021777885029278
 30
0.0
 10
4.407276203325264
 20
5.021777885029278
 30
0.0
 10
4.407276203325264
 20
5.021777885029278
 30
0.0
 10
4.407276203325264
 20
5.021777885029278
 30
0.0
 10
4.410307887352284
 20
5.021777885029278
 30
0.0
 10
4.410307887352284
 20
5.021777885029278
 30
0.0
 10
4.410859102629924
 20
5.021864012416408
 30
0.0
 10
4.411358641475285
 20
5.02195013980354
 30
0.0
 10
4.411892631275498
 20
5.022019041713245
 30
0.0
 10
4.432856037303244
 20
5.022863090107131
 30
0.0
 10
4.452320826794906
 20
5.029339869619401
 30
0.0
 10
4.468822834169252
 20
5.040140243965659
 30
0.0
 10
4.48858045677716
 20
5.051560735499263
 30
0.0
 10
4.502774250176389
 20
5.067494302118543
 30
0.0
 10
4.509302706120938
 20
5.086735160403663
 30
0.0
 10
4.516141220659159
 20
5.101256237873991
 30
0.0
 10
4.520068629512344
 20
5.117448186654665
 30
0.0
 10
4.520068629512344
 20
5.134587536693783
 30
0.0
 10
4.520068629512344
 20
5.196874863067101
 30
0.0
 10
4.469580755176008
 20
5.247379962880863
 30
0.0
 10
4.407276203325264
 20
5.247379962880863
 30
0.0
 10
4.407276203325264
 20
5.247379962880863
 30
0.0
 10
4.323612059465971
 20
5.247379962880863
 30
0.0
 10
4.323612059465971
 20
5.247379962880863
 30
0.0
 10
4.313810762810436
 20
5.256526691394201
 30
0.0
 10
4.314448105475207
 20
5.275061305104845
 30
0.0
 10
4.315860594624159
 20
5.312802326145757
 30
0.0
 10
4.316015623920996
 20
5.316523029269828
 30
0.0
 10
4.315464408643356
 20
5.320243732393897
 30
0.0
 10
4.315688339849897
 20
5.323929984563114
 30
0.0
 10
4.330898436417275
 20
5.561813827819615
 30
0.0
 10
4.401298962658355
 20
5.774445121169236
 30
0.0
 10
4.590848116256802
 20
5.93419419882027
 30
0.0
 10
4.615428872544059
 20
5.954899222686622
 30
0.0
 10
4.639389511643972
 20
5.979841713999831
 30
0.0
 10
4.640491942199252
 20
6.017393254789054
 30
0.0
 10
4.643316920497156
 20
6.114786104157067
 30
0.0
 10
4.552538654460824
 20
6.172612031876985
 30
0.0
 10
4.46410305335446
 20
6.124570175335177
 30
0.0
  0
HATCH
  5
8F
330
3C
100
AcDbEntity
  8
Layer 1
 62
     7
100
AcDbHatch
 10
0.0
 20
0.0
 30
0.0
210
0.0
220
0.0
230
1.0
  2
SOLID
 70
     1
 71
     0
 91
        1
 92
        1
 93
        1
 72
     4
 94
        3
 73
     0
 74
     1
 95
       86
 96
       82
 40
0.0
 40
0.0
 40
0.0
 40
0.0
 40
1.0
 40
1.0
 40
1.0
 40
2.0
 40
2.0
 40
2.0
 40
3.0
 40
3.0
 40
3.0
 40
4.0
 40
4.0
 40
4.0
 40
5.0
 40
5.0
 40
5.0
 40
6.0
 40
6.0
 40
6.0
 40
7.0
 40
7.0
 40
7.0
 40
8.0
 40
8.0
 40
8.0
 40
9.0
 40
9.0
 40
9.0
 40
10.0
 40
10.0
 40
10.0
 40
11.0
 40
11.0
 40
11.0
 40
12.0
 40
12.0
 40
12.0
 40
13.0
 40
13.0
 40
13.0
 40
14.0
 40
14.0
 40
14.0
 40
15.0
 40
15.0
 40
15.0
 40
16.0
 40
16.0
 40
16.0
 40
17.0
 40
17.0
 40
17.0
 40
18.0
 40
18.0
 40
18.0
 40
19.0
 40
19.0
 40
19.0
 40
20.0
 40
20.0
 40
20.0
 40
21.0
 40
21.0
 40
21.0
 40
22.0
 40
22.0
 40
22.0
 40
23.0
 40
23.0
 40
23.0
 40
24.0
 40
24.0
 40
24.0
 40
25.0
 40
25.0
 40
25.0
 40
26.0
 40
26.0
 40
26.0
 40
27.0
 40
27.0
 40
27.0
 40
27.0
 10
4.46410305335446
 20
6.124570175335177
 10
4.395201143649463
 20
6.087139212887937
 10
4.327332762590041
 20
6.082316079208587
 10
4.26359849611292
 20
6.123502195734749
 10
4.225702445775172
 20
6.147996824634875
 10
4.202740884365981
 20
6.145843639956595
 10
4.164982637847643
 20
6.124070636489815
 10
4.098716226188862
 20
6.085830076603542
 10
4.027988415876683
 20
6.068690726564424
 10
3.95838026159721
 20
6.126826712878015
 10
3.9420332835197
 20
6.140469290999604
 10
3.918709987084558
 20
6.158900551845691
 10
3.888513725156344
 20
6.138626164914996
 10
3.811705321312699
 20
6.087053085500806
 10
3.732330321332542
 20
6.085916203990673
 10
3.64976860802853
 20
6.129996200724445
 10
3.591477592418102
 20
6.161088187478825
 10
3.53504692836971
 20
6.140365938135047
 10
3.497495387580487
 20
6.081144746743602
 10
3.469107800782028
 20
6.03642740734506
 10
3.47989094965086
 20
5.975001354843055
 10
3.528105060966932
 20
5.937070853550454
 10
3.719721271856528
 20
5.786330700593347
 10
3.785350340850537
 20
5.575404729508926
 10
3.809190401608466
 20
5.346219752352681
 10
3.815839435894998
 20
5.282382133011001
 10
3.816407876650064
 20
5.257698023859186
 10
3.791430934382003
 20
5.247379962880863
 10
3.791430934382003
 20
5.247379962880863
 10
3.690472411186757
 20
5.247379962880863
 10
3.690472411186757
 20
5.247379962880863
 10
3.628167859336013
 20
5.247379962880863
 10
3.577662759522251
 20
5.196874863067101
 10
3.577662759522251
 20
5.134587536693783
 10
3.577662759522251
 20
5.075693629373437
 10
3.622776284901597
 20
5.027427841625087
 10
3.68030937950527
 20
5.022277423874638
 10
3.680981173124893
 20
5.022156845532655
 10
3.681635741267091
 20
5.02195013980354
 10
3.682307534886715
 20
5.021777885029278
 10
3.682307534886715
 20
5.021777885029278
 10
3.690472411186757
 20
5.021777885029278
 10
3.690472411186757
 20
5.021777885029278
 10
3.690472411186757
 20
5.021777885029278
 10
4.407276203325264
 20
5.021777885029278
 10
4.407276203325264
 20
5.021777885029278
 10
4.407276203325264
 20
5.021777885029278
 10
4.410307887352284
 20
5.021777885029278
 10
4.410307887352284
 20
5.021777885029278
 10
4.410859102629924
 20
5.021864012416408
 10
4.411358641475285
 20
5.02195013980354
 10
4.411892631275498
 20
5.022019041713245
 10
4.432856037303244
 20
5.022863090107131
 10
4.452320826794906
 20
5.029339869619401
 10
4.468822834169252
 20
5.040140243965659
 10
4.48858045677716
 20
5.051560735499263
 10
4.502774250176389
 20
5.067494302118543
 10
4.509302706120938
 20
5.086735160403663
 10
4.516141220659159
 20
5.101256237873991
 10
4.520068629512344
 20
5.117448186654665
 10
4.520068629512344
 20
5.134587536693783
 10
4.520068629512344
 20
5.196874863067101
 10
4.469580755176008
 20
5.247379962880863
 10
4.407276203325264
 20
5.247379962880863
 10
4.407276203325264
 20
5.247379962880863
 10
4.323612059465971
 20
5.247379962880863
 10
4.323612059465971
 20
5.247379962880863
 10
4.313810762810436
 20
5.256526691394201
 10
4.314448105475207
 20
5.275061305104845
 10
4.315860594624159
 20
5.312802326145757
 10
4.316015623920996
 20
5.316523029269828
 10
4.315464408643356
 20
5.320243732393897
 10
4.315688339849897
 20
5.323929984563114
 10
4.330898436417275
 20
5.561813827819615
 10
4.401298962658355
 20
5.774445121169236
 10
4.590848116256802
 20
5.93419419882027
 10
4.615428872544059
 20
5.954899222686622
 10
4.639389511643972
 20
5.979841713999831
 10
4.640491942199252
 20
6.017393254789054
 10
4.643316920497156
 20
6.114786104157067
 10
4.552538654460824
 20
6.172612031876985
 10
4.46410305335446
 20
6.124570175335177
 97
        0
 75
     0
 76
     1
 98
        0
  0
SPLINE
  5
90
330
3C
100
AcDbEntity
  8
Layer 1
370
     0
100
AcDbSpline
210
0.0
220
0.0
230
1.0
 70
    11
 71
     3
 72
    23
 73
    19
 74
     0
 42
0.0000000001
 43
0.0000000001
 40
0.0
 40
0.0
 40
0.0
 40
0.0
 40
1.0
 40
1.0
 40
1.0
 40
2.0
 40
2.0
 40
2.0
 40
3.0
 40
3.0
 40
3.0
 40
4.0
 40
4.0
 40
4.0
 40
5.0
 40
5.0
 40
5.0
 40
6.0
 40
6.0
 40
6.0
 40
6.0
 10
0.3767211913120697
 20
3.805555825871528
 30
0.0
 10
0.3767211913120697
 20
3.805555825871528
 30
0.0
 10
1.304829915038376
 20
3.805555825871528
 30
0.0
 10
1.304829915038376
 20
3.805555825871528
 30
0.0
 10
1.326792398756844
 20
3.814754230817145
 30
0.0
 10
1.342760416330977
 20
3.831187336281786
 30
0.0
 10
1.337007106870609
 20
3.859437119260835
 30
0.0
 10
1.331219346455389
 20
3.887859157014146
 30
0.0
 10
1.316939425669029
 20
3.900502657445013
 30
0.0
 10
1.298645968642352
 20
3.906290417860232
 30
0.0
 10
1.298645968642352
 20
3.906290417860232
 30
0.0
 10
0.3893474662655103
 20
3.906290417860232
 30
0.0
 10
0.3893474662655103
 20
3.906290417860232
 30
0.0
 10
0.3672471787276326
 20
3.896781954320943
 30
0.0
 10
0.3558955891037344
 20
3.876214734274002
 30
0.0
 10
0.3552754719163894
 20
3.845932344958655
 30
0.0
 10
0.3547931585484544
 20
3.822505695658957
 30
0.0
 10
0.3634920246487103
 20
3.81110242960278
 30
0.0
 10
0.3767211913120697
 20
3.805555825871528
 30
0.0
  0
HATCH
  5
91
330
3C
100
AcDbEntity
  8
Layer 1
 62
     7
100
AcDbHatch
 10
0.0
 20
0.0
 30
0.0
210
0.0
220
0.0
230
1.0
  2
SOLID
 70
     1
 71
     0
 91
        1
 92
        1
 93
        1
 72
     4
 94
        3
 73
     0
 74
     1
 95
       23
 96
       19
 40
0.0
 40
0.0
 40
0.0
 40
0.0
 40
1.0
 40
1.0
 40
1.0
 40
2.0
 40
2.0
 40
2.0
 40
3.0
 40
3.0
 40
3.0
 40
4.0
 40
4.0
 40
4.0
 40
5.0
 40
5.0
 40
5.0
 40
6.0
 40
6.0
 40
6.0
 40
6.0
 10
0.3767211913120697
 20
3.805555825871528
 10
0.3767211913120697
 20
3.805555825871528
 10
1.304829915038376
 20
3.805555825871528
 10
1.304829915038376
 20
3.805555825871528
 10
1.326792398756844
 20
3.814754230817145
 10
1.342760416330977
 20
3.831187336281786
 10
1.337007106870609
 20
3.859437119260835
 10
1.331219346455389
 20
3.887859157014146
 10
1.316939425669029
 20
3.900502657445013
 10
1.298645968642352
 20
3.906290417860232
 10
1.298645968642352
 20
3.906290417860232
 10
0.3893474662655103
 20
3.906290417860232
 10
0.3893474662655103
 20
3.906290417860232
 10
0.3672471787276326
 20
3.896781954320943
 10
0.3558955891037344
 20
3.876214734274002
 10
0.3552754719163894
 20
3.845932344958655
 10
0.3547931585484544
 20
3.822505695658957
 10
0.3634920246487103
 20
3.81110242960278
 10
0.3767211913120697
 20
3.805555825871528
 97
        0
 75
     0
 76
     1
 98
        0
  0
INSERT
  5
93
330
3C
100
AcDbEntity
  8
Layer 1
100
AcDbBlockReference
  2
block 10
 10
0.0
 20
0.0
 30
0.0
  0
SPLINE
  5
9A
330
3C
100
AcDbEntity
  8
Layer 1
370
     0
100
AcDbSpline
210
0.0
220
0.0
230
1.0
 70
    11
 71
     3
 72
    62
 73
    58
 74
     0
 42
0.0000000001
 43
0.0000000001
 40
0.0
 40
0.0
 40
0.0
 40
0.0
 40
1.0
 40
1.0
 40
1.0
 40
2.0
 40
2.0
 40
2.0
 40
3.0
 40
3.0
 40
3.0
 40
4.0
 40
4.0
 40
4.0
 40
5.0
 40
5.0
 40
5.0
 40
6.0
 40
6.0
 40
6.0
 40
7.0
 40
7.0
 40
7.0
 40
8.0
 40
8.0
 40
8.0
 40
9.0
 40
9.0
 40
9.0
 40
10.0
 40
10.0
 40
10.0
 40
11.0
 40
11.0
 40
11.0
 40
12.0
 40
12.0
 40
12.0
 40
13.0
 40
13.0
 40
13.0
 40
14.0
 40
14.0
 40
14.0
 40
15.0
 40
15.0
 40
15.0
 40
16.0
 40
16.0
 40
16.0
 40
17.0
 40
17.0
 40
17.0
 40
18.0
 40
18.0
 40
18.0
 40
19.0
 40
19.0
 40
19.0
 40
19.0
 10
1.018731960465803
 20
4.638924423753463
 30
0.0
 10
1.010360378436646
 20
4.674650063935504
 30
0.0
 10
1.008999565719972
 20
4.690704208896768
 30
0.0
 10
1.021763644492823
 20
4.697835556551235
 30
0.0
 10
1.021763644492823
 20
4.697835556551235
 30
0.0
 10
1.152418890770923
 20
4.697835556551235
 30
0.0
 10
1.152418890770923
 20
4.697835556551235
 30
0.0
 10
1.226781276820041
 20
4.697835556551235
 30
0.0
 10
1.287087673289339
 20
4.758124727543107
 30
0.0
 10
1.287087673289339
 20
4.832538790024504
 30
0.0
 10
1.287087673289339
 20
4.906918401551048
 30
0.0
 10
1.226781276820041
 20
4.967242023497772
 30
0.0
 10
1.152418890770923
 20
4.967242023497772
 30
0.0
 10
1.152418890770923
 20
4.967242023497772
 30
0.0
 10
1.016819932471489
 20
4.967242023497772
 30
0.0
 10
1.016819932471489
 20
4.967242023497772
 30
0.0
 10
1.015562472619373
 20
4.967655434956002
 30
0.0
 10
1.014322238244683
 20
4.96803439545938
 30
0.0
 10
1.013064778392567
 20
4.968482257872463
 30
0.0
 10
1.235083956939493
 20
5.127060003058513
 30
0.0
 10
1.211347249046121
 20
5.381652559418475
 30
0.0
 10
1.082776285536597
 20
5.518732908776566
 30
0.0
 10
0.9586494952030459
 20
5.651059026365012
 30
0.0
 10
0.7249514429611232
 20
5.665752358609603
 30
0.0
 10
0.5829618325365512
 20
5.516528047666006
 30
0.0
 10
0.4717886012275389
 20
5.399722085238611
 30
0.0
 10
0.4196987574905614
 20
5.153259954223837
 30
0.0
 10
0.6546025931523215
 20
4.967242023497772
 30
0.0
 10
0.6546025931523215
 20
4.967242023497772
 30
0.0
 10
0.5112349445336496
 20
4.967242023497772
 30
0.0
 10
0.5112349445336496
 20
4.967242023497772
 30
0.0
 10
0.4368725584845318
 20
4.967242023497772
 30
0.0
 10
0.3765489365378072
 20
4.906918401551048
 30
0.0
 10
0.3765489365378072
 20
4.832538790024504
 30
0.0
 10
0.3765489365378072
 20
4.758124727543107
 30
0.0
 10
0.4368725584845318
 20
4.697835556551235
 30
0.0
 10
0.5112349445336496
 20
4.697835556551235
 30
0.0
 10
0.5112349445336496
 20
4.697835556551235
 30
0.0
 10
0.638048909345696
 20
4.697835556551235
 30
0.0
 10
0.638048909345696
 20
4.697835556551235
 30
0.0
 10
0.6634220375945611
 20
4.689429523567226
 30
0.0
 10
0.6594946287413763
 20
4.667312010551922
 30
0.0
 10
0.6445773652902445
 20
4.60853868157356
 30
0.0
 10
0.5894902884810996
 20
4.391118705499442
 30
0.0
 10
0.532422281767936
 20
4.174284395657818
 30
0.0
 10
0.4468805608691826
 20
3.966407334077843
 30
0.0
 10
0.4385262043174518
 20
3.946150172624573
 30
0.0
 10
0.4403521049246342
 20
3.937261826272629
 30
0.0
 10
0.449395480573415
 20
3.932473143548131
 30
0.0
 10
0.449395480573415
 20
3.932473143548131
 30
0.0
 10
1.244661322388487
 20
3.932473143548131
 30
0.0
 10
1.244661322388487
 20
3.932473143548131
 30
0.0
 10
1.258097194780962
 20
3.942429469500504
 30
0.0
 10
1.251913248384938
 20
3.95521077375078
 30
0.0
 10
1.236117485585068
 20
3.992038844488101
 30
0.0
 10
1.145942111258653
 20
4.201707355720406
 30
0.0
 10
1.070994058977043
 20
4.416577961135438
 30
0.0
 10
1.018731960465803
 20
4.638924423753463
 30
0.0
  0
HATCH
  5
9B
330
3C
100
AcDbEntity
  8
Layer 1
 62
     7
100
AcDbHatch
 10
0.0
 20
0.0
 30
0.0
210
0.0
220
0.0
230
1.0
  2
SOLID
 70
     1
 71
     0
 91
        1
 92
        1
 93
        1
 72
     4
 94
        3
 73
     0
 74
     1
 95
       62
 96
       58
 40
0.0
 40
0.0
 40
0.0
 40
0.0
 40
1.0
 40
1.0
 40
1.0
 40
2.0
 40
2.0
 40
2.0
 40
3.0
 40
3.0
 40
3.0
 40
4.0
 40
4.0
 40
4.0
 40
5.0
 40
5.0
 40
5.0
 40
6.0
 40
6.0
 40
6.0
 40
7.0
 40
7.0
 40
7.0
 40
8.0
 40
8.0
 40
8.0
 40
9.0
 40
9.0
 40
9.0
 40
10.0
 40
10.0
 40
10.0
 40
11.0
 40
11.0
 40
11.0
 40
12.0
 40
12.0
 40
12.0
 40
13.0
 40
13.0
 40
13.0
 40
14.0
 40
14.0
 40
14.0
 40
15.0
 40
15.0
 40
15.0
 40
16.0
 40
16.0
 40
16.0
 40
17.0
 40
17.0
 40
17.0
 40
18.0
 40
18.0
 40
18.0
 40
19.0
 40
19.0
 40
19.0
 40
19.0
 10
1.018731960465803
 20
4.638924423753463
 10
1.010360378436646
 20
4.674650063935504
 10
1.008999565719972
 20
4.690704208896768
 10
1.021763644492823
 20
4.697835556551235
 10
1.021763644492823
 20
4.697835556551235
 10
1.152418890770923
 20
4.697835556551235
 10
1.152418890770923
 20
4.697835556551235
 10
1.226781276820041
 20
4.697835556551235
 10
1.287087673289339
 20
4.758124727543107
 10
1.287087673289339
 20
4.832538790024504
 10
1.287087673289339
 20
4.906918401551048
 10
1.226781276820041
 20
4.967242023497772
 10
1.152418890770923
 20
4.967242023497772
 10
1.152418890770923
 20
4.967242023497772
 10
1.016819932471489
 20
4.967242023497772
 10
1.016819932471489
 20
4.967242023497772
 10
1.015562472619373
 20
4.967655434956002
 10
1.014322238244683
 20
4.96803439545938
 10
1.013064778392567
 20
4.968482257872463
 10
1.235083956939493
 20
5.127060003058513
 10
1.211347249046121
 20
5.381652559418475
 10
1.082776285536597
 20
5.518732908776566
 10
0.9586494952030459
 20
5.651059026365012
 10
0.7249514429611232
 20
5.665752358609603
 10
0.5829618325365512
 20
5.516528047666006
 10
0.4717886012275389
 20
5.399722085238611
 10
0.4196987574905614
 20
5.153259954223837
 10
0.6546025931523215
 20
4.967242023497772
 10
0.6546025931523215
 20
4.967242023497772
 10
0.5112349445336496
 20
4.967242023497772
 10
0.5112349445336496
 20
4.967242023497772
 10
0.4368725584845318
 20
4.967242023497772
 10
0.3765489365378072
 20
4.906918401551048
 10
0.3765489365378072
 20
4.832538790024504
 10
0.3765489365378072
 20
4.758124727543107
 10
0.4368725584845318
 20
4.697835556551235
 10
0.5112349445336496
 20
4.697835556551235
 10
0.5112349445336496
 20
4.697835556551235
 10
0.638048909345696
 20
4.697835556551235
 10
0.638048909345696
 20
4.697835556551235
 10
0.6634220375945611
 20
4.689429523567226
 10
0.6594946287413763
 20
4.667312010551922
 10
0.6445773652902445
 20
4.60853868157356
 10
0.5894902884810996
 20
4.391118705499442
 10
0.532422281767936
 20
4.174284395657818
 10
0.4468805608691826
 20
3.966407334077843
 10
0.4385262043174518
 20
3.946150172624573
 10
0.4403521049246342
 20
3.937261826272629
 10
0.449395480573415
 20
3.932473143548131
 10
0.449395480573415
 20
3.932473143548131
 10
1.244661322388487
 20
3.932473143548131
 10
1.244661322388487
 20
3.932473143548131
 10
1.258097194780962
 20
3.942429469500504
 10
1.251913248384938
 20
3.95521077375078
 10
1.236117485585068
 20
3.992038844488101
 10
1.145942111258653
 20
4.201707355720406
 10
1.070994058977043
 20
4.416577961135438
 10
1.018731960465803
 20
4.638924423753463
 97
        0
 75
     0
 76
     1
 98
        0
  0
SPLINE
  5
9C
330
3C
100
AcDbEntity
  8
Layer 1
370
     0
100
AcDbSpline
210
0.0
220
0.0
230
1.0
 70
    11
 71
     3
 72
    95
 73
    91
 74
     0
 42
0.0000000001
 43
0.0000000001
 40
0.0
 40
0.0
 40
0.0
 40
0.0
 40
1.0
 40
1.0
 40
1.0
 40
2.0
 40
2.0
 40
2.0
 40
3.0
 40
3.0
 40
3.0
 40
4.0
 40
4.0
 40
4.0
 40
5.0
 40
5.0
 40
5.0
 40
6.0
 40
6.0
 40
6.0
 40
7.0
 40
7.0
 40
7.0
 40
8.0
 40
8.0
 40
8.0
 40
9.0
 40
9.0
 40
9.0
 40
10.0
 40
10.0
 40
10.0
 40
11.0
 40
11.0
 40
11.0
 40
12.0
 40
12.0
 40
12.0
 40
13.0
 40
13.0
 40
13.0
 40
14.0
 40
14.0
 40
14.0
 40
15.0
 40
15.0
 40
15.0
 40
16.0
 40
16.0
 40
16.0
 40
17.0
 40
17.0
 40
17.0
 40
18.0
 40
18.0
 40
18.0
 40
19.0
 40
19.0
 40
19.0
 40
20.0
 40
20.0
 40
20.0
 40
21.0
 40
21.0
 40
21.0
 40
22.0
 40
22.0
 40
22.0
 40
23.0
 40
23.0
 40
23.0
 40
24.0
 40
24.0
 40
24.0
 40
25.0
 40
25.0
 40
25.0
 40
26.0
 40
26.0
 40
26.0
 40
27.0
 40
27.0
 40
27.0
 40
28.0
 40
28.0
 40
28.0
 40
29.0
 40
29.0
 40
29.0
 40
30.0
 40
30.0
 40
30.0
 40
30.0
 10
2.776781412066221
 20
5.999203150626935
 30
0.0
 10
2.804583332632187
 20
6.049225937072762
 30
0.0
 10
2.806839870175026
 20
6.102332083977889
 30
0.0
 10
2.790837401646041
 20
6.155403779928163
 30
0.0
 10
2.762570393189566
 20
6.248972573307548
 30
0.0
 10
2.687381184223988
 20
6.296532116481422
 30
0.0
 10
2.575312228088811
 20
6.293414305067271
 30
0.0
 10
2.528527831399118
 20
6.29208794330545
 30
0.0
 10
2.487445067737514
 20
6.295154078287323
 30
0.0
 10
2.490614555583944
 20
6.357940943506001
 30
0.0
 10
2.492199299507158
 20
6.389635821970299
 30
0.0
 10
2.469857855285313
 20
6.401521401394411
 30
0.0
 10
2.445535481159449
 20
6.40157307782669
 30
0.0
 10
2.322046033490669
 20
6.402003714762346
 30
0.0
 10
2.198573811299315
 20
6.399557696967818
 30
0.0
 10
2.075084363630535
 20
6.398834226915916
 30
0.0
 10
2.044061278785859
 20
6.398627521186801
 30
0.0
 10
2.012452527708692
 20
6.389480792673463
 30
0.0
 10
2.011367322630838
 20
6.357906492551148
 30
0.0
 10
2.009489745591377
 20
6.303715140568168
 30
0.0
 10
1.987492810918057
 20
6.288126083497413
 30
0.0
 10
1.937314995175393
 20
6.297307262965603
 30
0.0
 10
1.921536457852949
 20
6.300235594128066
 30
0.0
 10
1.904242078516995
 20
6.29539523497129
 30
0.0
 10
1.887740071142648
 20
6.293672687228665
 30
0.0
 10
1.708130018019148
 20
6.275017495176037
 30
0.0
 10
1.655041096591448
 20
6.107413599818632
 30
0.0
 10
1.738171250650526
 20
5.967835556233736
 30
0.0
 10
1.810156520814822
 20
5.846981606611171
 30
0.0
 10
1.893631184422425
 20
5.732948946049401
 30
0.0
 10
1.972162136008695
 20
5.615970728847743
 30
0.0
 10
1.984133842819939
 20
5.598159585189001
 30
0.0
 10
1.987544487350336
 20
5.579263236452406
 30
0.0
 10
1.986166449156236
 20
5.557783066101873
 30
0.0
 10
1.980585394470131
 20
5.472740884048481
 30
0.0
 10
1.975434976719683
 20
5.387698701995089
 30
0.0
 10
1.972110459576417
 20
5.302587618031992
 30
0.0
 10
1.971507567866498
 20
5.287532550761449
 30
0.0
 10
1.969543863439906
 20
5.275991480885863
 30
0.0
 10
1.963980034231227
 20
5.267740477198689
 30
0.0
 10
1.963980034231227
 20
5.267740477198689
 30
0.0
 10
1.915869275779713
 20
5.267740477198689
 30
0.0
 10
1.915869275779713
 20
5.267740477198689
 30
0.0
 10
1.85714762323363
 20
5.267740477198689
 30
0.0
 10
1.809519178150051
 20
5.220146483069963
 30
0.0
 10
1.809519178150051
 20
5.161442056001306
 30
0.0
 10
1.809519178150051
 20
5.108111977889639
 30
0.0
 10
1.848776041204472
 20
5.064100883065572
 30
0.0
 10
1.899918483683006
 20
5.056418320133464
 30
0.0
 10
1.901503227606221
 20
5.056039359630087
 30
0.0
 10
1.902950167710026
 20
5.055453693397594
 30
0.0
 10
1.904552137110667
 20
5.055109183849069
 30
0.0
 10
1.904552137110667
 20
5.055109183849069
 30
0.0
 10
1.915869275779713
 20
5.055109183849069
 30
0.0
 10
1.915869275779713
 20
5.055109183849069
 30
0.0
 10
1.915869275779713
 20
5.055109183849069
 30
0.0
 10
2.576621364373206
 20
5.055109183849069
 30
0.0
 10
2.576621364373206
 20
5.055109183849069
 30
0.0
 10
2.576621364373206
 20
5.055109183849069
 30
0.0
 10
2.59115966732096
 20
5.055109183849069
 30
0.0
 10
2.59115966732096
 20
5.055109183849069
 30
0.0
 10
2.612278102645541
 20
5.059174396521664
 30
0.0
 10
2.629848089620316
 20
5.067287596389428
 30
0.0
 10
2.643456216787052
 20
5.078794215310162
 30
0.0
 10
2.643886853722709
 20
5.079087048426408
 30
0.0
 10
2.644283039703512
 20
5.079414332497507
 30
0.0
 10
2.644679225684316
 20
5.079758842046032
 30
0.0
 10
2.646074489355842
 20
5.081016301898148
 30
0.0
 10
2.647521429459647
 20
5.082222085317985
 30
0.0
 10
2.648830565744042
 20
5.083565672557233
 30
0.0
 10
2.669776746294361
 20
5.10296156013919
 30
0.0
 10
2.682954236525442
 20
5.130625676885746
 30
0.0
 10
2.682954236525442
 20
5.161442056001306
 30
0.0
 10
2.682954236525442
 20
5.220146483069963
 30
0.0
 10
2.635343016919289
 20
5.267740477198689
 30
0.0
 10
2.576621364373206
 20
5.267740477198689
 30
0.0
 10
2.576621364373206
 20
5.267740477198689
 30
0.0
 10
2.537812363731866
 20
5.267740477198689
 30
0.0
 10
2.537812363731866
 20
5.267740477198689
 30
0.0
 10
2.533695474626993
 20
5.273011473291122
 30
0.0
 10
2.531421711606728
 20
5.280211722855294
 30
0.0
 10
2.531025525625924
 20
5.290340303581928
 30
0.0
 10
2.52732204797928
 20
5.388715005163237
 30
0.0
 10
2.523825276061752
 20
5.487106932221973
 30
0.0
 10
2.519053818814681
 20
5.585429957371003
 30
0.0
 10
2.51814086851109
 20
5.60427462967532
 30
0.0
 10
2.527649332050379
 20
5.616246336486563
 30
0.0
 10
2.536727158654013
 20
5.630457355363219
 30
0.0
 10
2.615482041446824
 20
5.754205185193393
 30
0.0
 10
2.705381808134418
 20
5.870701089027116
 30
0.0
 10
2.776781412066221
 20
5.999203150626935
 30
0.0
  0
HATCH
  5
9D
330
3C
100
AcDbEntity
  8
Layer 1
 62
     7
100
AcDbHatch
 10
0.0
 20
0.0
 30
0.0
210
0.0
220
0.0
230
1.0
  2
SOLID
 70
     1
 71
     0
 91
        1
 92
        1
 93
        1
 72
     4
 94
        3
 73
     0
 74
     1
 95
       95
 96
       91
 40
0.0
 40
0.0
 40
0.0
 40
0.0
 40
1.0
 40
1.0
 40
1.0
 40
2.0
 40
2.0
 40
2.0
 40
3.0
 40
3.0
 40
3.0
 40
4.0
 40
4.0
 40
4.0
 40
5.0
 40
5.0
 40
5.0
 40
6.0
 40
6.0
 40
6.0
 40
7.0
 40
7.0
 40
7.0
 40
8.0
 40
8.0
 40
8.0
 40
9.0
 40
9.0
 40
9.0
 40
10.0
 40
10.0
 40
10.0
 40
11.0
 40
11.0
 40
11.0
 40
12.0
 40
12.0
 40
12.0
 40
13.0
 40
13.0
 40
13.0
 40
14.0
 40
14.0
 40
14.0
 40
15.0
 40
15.0
 40
15.0
 40
16.0
 40
16.0
 40
16.0
 40
17.0
 40
17.0
 40
17.0
 40
18.0
 40
18.0
 40
18.0
 40
19.0
 40
19.0
 40
19.0
 40
20.0
 40
20.0
 40
20.0
 40
21.0
 40
21.0
 40
21.0
 40
22.0
 40
22.0
 40
22.0
 40
23.0
 40
23.0
 40
23.0
 40
24.0
 40
24.0
 40
24.0
 40
25.0
 40
25.0
 40
25.0
 40
26.0
 40
26.0
 40
26.0
 40
27.0
 40
27.0
 40
27.0
 40
28.0
 40
28.0
 40
28.0
 40
29.0
 40
29.0
 40
29.0
 40
30.0
 40
30.0
 40
30.0
 40
30.0
 10
2.776781412066221
 20
5.999203150626935
 10
2.804583332632187
 20
6.049225937072762
 10
2.806839870175026
 20
6.102332083977889
 10
2.790837401646041
 20
6.155403779928163
 10
2.762570393189566
 20
6.248972573307548
 10
2.687381184223988
 20
6.296532116481422
 10
2.575312228088811
 20
6.293414305067271
 10
2.528527831399118
 20
6.29208794330545
 10
2.487445067737514
 20
6.295154078287323
 10
2.490614555583944
 20
6.357940943506001
 10
2.492199299507158
 20
6.389635821970299
 10
2.469857855285313
 20
6.401521401394411
 10
2.445535481159449
 20
6.40157307782669
 10
2.322046033490669
 20
6.402003714762346
 10
2.198573811299315
 20
6.399557696967818
 10
2.075084363630535
 20
6.398834226915916
 10
2.044061278785859
 20
6.398627521186801
 10
2.012452527708692
 20
6.389480792673463
 10
2.011367322630838
 20
6.357906492551148
 10
2.009489745591377
 20
6.303715140568168
 10
1.987492810918057
 20
6.288126083497413
 10
1.937314995175393
 20
6.297307262965603
 10
1.921536457852949
 20
6.300235594128066
 10
1.904242078516995
 20
6.29539523497129
 10
1.887740071142648
 20
6.293672687228665
 10
1.708130018019148
 20
6.275017495176037
 10
1.655041096591448
 20
6.107413599818632
 10
1.738171250650526
 20
5.967835556233736
 10
1.810156520814822
 20
5.846981606611171
 10
1.893631184422425
 20
5.732948946049401
 10
1.972162136008695
 20
5.615970728847743
 10
1.984133842819939
 20
5.598159585189001
 10
1.987544487350336
 20
5.579263236452406
 10
1.986166449156236
 20
5.557783066101873
 10
1.980585394470131
 20
5.472740884048481
 10
1.975434976719683
 20
5.387698701995089
 10
1.972110459576417
 20
5.302587618031992
 10
1.971507567866498
 20
5.287532550761449
 10
1.969543863439906
 20
5.275991480885863
 10
1.963980034231227
 20
5.267740477198689
 10
1.963980034231227
 20
5.267740477198689
 10
1.915869275779713
 20
5.267740477198689
 10
1.915869275779713
 20
5.267740477198689
 10
1.85714762323363
 20
5.267740477198689
 10
1.809519178150051
 20
5.220146483069963
 10
1.809519178150051
 20
5.161442056001306
 10
1.809519178150051
 20
5.108111977889639
 10
1.848776041204472
 20
5.064100883065572
 10
1.899918483683006
 20
5.056418320133464
 10
1.901503227606221
 20
5.056039359630087
 10
1.902950167710026
 20
5.055453693397594
 10
1.904552137110667
 20
5.055109183849069
 10
1.904552137110667
 20
5.055109183849069
 10
1.915869275779713
 20
5.055109183849069
 10
1.915869275779713
 20
5.055109183849069
 10
1.915869275779713
 20
5.055109183849069
 10
2.576621364373206
 20
5.055109183849069
 10
2.576621364373206
 20
5.055109183849069
 10
2.576621364373206
 20
5.055109183849069
 10
2.59115966732096
 20
5.055109183849069
 10
2.59115966732096
 20
5.055109183849069
 10
2.612278102645541
 20
5.059174396521664
 10
2.629848089620316
 20
5.067287596389428
 10
2.643456216787052
 20
5.078794215310162
 10
2.643886853722709
 20
5.079087048426408
 10
2.644283039703512
 20
5.079414332497507
 10
2.644679225684316
 20
5.079758842046032
 10
2.646074489355842
 20
5.081016301898148
 10
2.647521429459647
 20
5.082222085317985
 10
2.648830565744042
 20
5.083565672557233
 10
2.669776746294361
 20
5.10296156013919
 10
2.682954236525442
 20
5.130625676885746
 10
2.682954236525442
 20
5.161442056001306
 10
2.682954236525442
 20
5.220146483069963
 10
2.635343016919289
 20
5.267740477198689
 10
2.576621364373206
 20
5.267740477198689
 10
2.576621364373206
 20
5.267740477198689
 10
2.537812363731866
 20
5.267740477198689
 10
2.537812363731866
 20
5.267740477198689
 10
2.533695474626993
 20
5.273011473291122
 10
2.531421711606728
 20
5.280211722855294
 10
2.531025525625924
 20
5.290340303581928
 10
2.52732204797928
 20
5.388715005163237
 10
2.523825276061752
 20
5.487106932221973
 10
2.519053818814681
 20
5.585429957371003
 10
2.51814086851109
 20
5.60427462967532
 10
2.527649332050379
 20
5.616246336486563
 10
2.536727158654013
 20
5.630457355363219
 10
2.615482041446824
 20
5.754205185193393
 10
2.705381808134418
 20
5.870701089027116
 10
2.776781412066221
 20
5.999203150626935
 97
        0
 75
     0
 76
     1
 98
        0
  0
INSERT
  5
9F
330
3C
100
AcDbEntity
  8
Layer 1
100
AcDbBlockReference
  2
block 11
 10
0.0
 20
0.0
 30
0.0
  0
ENDBLK
  5
3F
330
3C
100
AcDbEntity
  8
0
100
AcDbBlockEnd
  0
BLOCK
  5
4C
330
4A
100
AcDbEntity
  8
0
100
AcDbBlockBegin
  2
block 3
 70
     0
 71
     0
 10
0.0
 20
0.0
 30
0.0
  3
block 3
  1

  0
SPLINE
  5
4E
330
4A
100
AcDbEntity
  8
Layer 1
370
     0
100
AcDbSpline
210
0.0
220
0.0
230
1.0
 70
    11
 71
     3
 72
    38
 73
    34
 74
     0
 42
0.0000000001
 43
0.0000000001
 40
0.0
 40
0.0
 40
0.0
 40
0.0
 40
1.0
 40
1.0
 40
1.0
 40
2.0
 40
2.0
 40
2.0
 40
3.0
 40
3.0
 40
3.0
 40
4.0
 40
4.0
 40
4.0
 40
5.0
 40
5.0
 40
5.0
 40
6.0
 40
6.0
 40
6.0
 40
7.0
 40
7.0
 40
7.0
 40
8.0
 40
8.0
 40
8.0
 40
9.0
 40
9.0
 40
9.0
 40
10.0
 40
10.0
 40
10.0
 40
11.0
 40
11.0
 40
11.0
 40
11.0
 10
4.409326035138988
 20
3.979636500741202
 30
0.0
 10
4.413132865650189
 20
3.979739853605759
 30
0.0
 10
4.41693969616139
 20
3.979912108380022
 30
0.0
 10
4.420746526672591
 20
3.980118814109137
 30
0.0
 10
4.420746526672591
 20
3.979946559334874
 30
0.0
 10
4.420746526672591
 20
3.979774304560612
 30
0.0
 10
4.420746526672591
 20
3.979636500741202
 30
0.0
 10
4.420746526672591
 20
3.979636500741202
 30
0.0
 10
4.564665390568903
 20
3.979636500741202
 30
0.0
 10
4.564665390568903
 20
3.979636500741202
 30
0.0
 10
4.583768445034613
 20
4.024663898733417
 30
0.0
 10
4.543409151424911
 20
4.047504881800624
 30
0.0
 10
4.526941595005417
 20
4.077615016341707
 30
0.0
 10
4.400523816174174
 20
4.308470864808299
 30
0.0
 10
4.32876247721642
 20
4.555243054416745
 30
0.0
 10
4.298841822927026
 20
4.81620903742442
 30
0.0
 10
4.291986082911378
 20
4.876015895048357
 30
0.0
 10
4.297618814029762
 20
4.937820908053739
 30
0.0
 10
4.275966388904966
 20
5.001779105737402
 30
0.0
 10
4.275966388904966
 20
5.001779105737402
 30
0.0
 10
3.853511555026205
 20
5.001779105737402
 30
0.0
 10
3.853511555026205
 20
5.001779105737402
 30
0.0
 10
3.844106444351473
 20
4.990772025662029
 30
0.0
 10
3.840816378163059
 20
4.975768634823766
 30
0.0
 10
3.839817300472337
 20
4.956975638951728
 30
0.0
 10
3.83144571844318
 20
4.798156737081711
 30
0.0
 10
3.805245767277855
 20
4.641783853006221
 30
0.0
 10
3.76857272583737
 20
4.487202418583061
 30
0.0
 10
3.725629610613731
 20
4.306059297968623
 30
0.0
 10
3.626031900135159
 20
4.148652885247559
 30
0.0
 10
3.554218884745126
 20
3.979636500741202
 30
0.0
 10
3.554218884745126
 20
3.979636500741202
 30
0.0
 10
4.409326035138988
 20
3.979636500741202
 30
0.0
 10
4.409326035138988
 20
3.979636500741202
 30
0.0
  0
HATCH
  5
4F
330
4A
100
AcDbEntity
  8
Layer 1
 62
     7
100
AcDbHatch
 10
0.0
 20
0.0
 30
0.0
210
0.0
220
0.0
230
1.0
  2
SOLID
 70
     1
 71
     0
 91
        1
 92
        1
 93
        1
 72
     4
 94
        3
 73
     0
 74
     1
 95
       38
 96
       34
 40
0.0
 40
0.0
 40
0.0
 40
0.0
 40
1.0
 40
1.0
 40
1.0
 40
2.0
 40
2.0
 40
2.0
 40
3.0
 40
3.0
 40
3.0
 40
4.0
 40
4.0
 40
4.0
 40
5.0
 40
5.0
 40
5.0
 40
6.0
 40
6.0
 40
6.0
 40
7.0
 40
7.0
 40
7.0
 40
8.0
 40
8.0
 40
8.0
 40
9.0
 40
9.0
 40
9.0
 40
10.0
 40
10.0
 40
10.0
 40
11.0
 40
11.0
 40
11.0
 40
11.0
 10
4.409326035138988
 20
3.979636500741202
 10
4.413132865650189
 20
3.979739853605759
 10
4.41693969616139
 20
3.979912108380022
 10
4.420746526672591
 20
3.980118814109137
 10
4.420746526672591
 20
3.979946559334874
 10
4.420746526672591
 20
3.979774304560612
 10
4.420746526672591
 20
3.979636500741202
 10
4.420746526672591
 20
3.979636500741202
 10
4.564665390568903
 20
3.979636500741202
 10
4.564665390568903
 20
3.979636500741202
 10
4.583768445034613
 20
4.024663898733417
 10
4.543409151424911
 20
4.047504881800624
 10
4.526941595005417
 20
4.077615016341707
 10
4.400523816174174
 20
4.308470864808299
 10
4.32876247721642
 20
4.555243054416745
 10
4.298841822927026
 20
4.81620903742442
 10
4.291986082911378
 20
4.876015895048357
 10
4.297618814029762
 20
4.937820908053739
 10
4.275966388904966
 20
5.001779105737402
 10
4.275966388904966
 20
5.001779105737402
 10
3.853511555026205
 20
5.001779105737402
 10
3.853511555026205
 20
5.001779105737402
 10
3.844106444351473
 20
4.990772025662029
 10
3.840816378163059
 20
4.975768634823766
 10
3.839817300472337
 20
4.956975638951728
 10
3.83144571844318
 20
4.798156737081711
 10
3.805245767277855
 20
4.641783853006221
 10
3.76857272583737
 20
4.487202418583061
 10
3.725629610613731
 20
4.306059297968623
 10
3.626031900135159
 20
4.148652885247559
 10
3.554218884745126
 20
3.979636500741202
 10
3.554218884745126
 20
3.979636500741202
 10
4.409326035138988
 20
3.979636500741202
 10
4.409326035138988
 20
3.979636500741202
 97
        0
 75
     0
 76
     1
 98
        0
  0
SPLINE
  5
50
330
4A
100
AcDbEntity
  8
Layer 1
370
     0
100
AcDbSpline
210
0.0
220
0.0
230
1.0
 70
    11
 71
     3
 72
    29
 73
    25
 74
     0
 42
0.0000000001
 43
0.0000000001
 40
0.0
 40
0.0
 40
0.0
 40
0.0
 40
1.0
 40
1.0
 40
1.0
 40
2.0
 40
2.0
 40
2.0
 40
3.0
 40
3.0
 40
3.0
 40
4.0
 40
4.0
 40
4.0
 40
5.0
 40
5.0
 40
5.0
 40
6.0
 40
6.0
 40
6.0
 40
7.0
 40
7.0
 40
7.0
 40
8.0
 40
8.0
 40
8.0
 40
8.0
 10
4.589831813088653
 20
3.959275986423375
 30
0.0
 10
4.586145560919435
 20
3.959517143107343
 30
0.0
 10
4.580840113872151
 20
3.959413790242785
 30
0.0
 10
4.575672470644276
 20
3.9596204959719
 30
0.0
 10
4.575672470644276
 20
3.9596204959719
 30
0.0
 10
3.535081379324563
 20
3.9596204959719
 30
0.0
 10
3.535081379324563
 20
3.9596204959719
 30
0.0
 10
3.531377901677919
 20
3.95879367305544
 30
0.0
 10
3.527433267347308
 20
3.95851806541662
 30
0.0
 10
3.523505858494123
 20
3.958483614461768
 30
0.0
 10
3.481889105032305
 20
3.95810465395839
 30
0.0
 10
3.465955538413025
 20
3.926823186952322
 30
0.0
 10
3.467764213542781
 20
3.896230739043303
 30
0.0
 10
3.470055202040472
 20
3.858162433931292
 30
0.0
 10
3.499476317484506
 20
3.845725639229541
 30
0.0
 10
3.539766709184502
 20
3.84586344304895
 30
0.0
 10
3.886825628368571
 20
3.847034775513936
 30
0.0
 10
4.233918998507492
 20
3.846070148778066
 30
0.0
 10
4.580977917691561
 20
3.845208874906753
 30
0.0
 10
4.615859509479716
 20
3.845139972997048
 30
0.0
 10
4.647916122969965
 20
3.852994790703418
 30
0.0
 10
4.652411972578216
 20
3.890890841041166
 30
0.0
 10
4.657338459122124
 20
3.932300888773869
 30
0.0
 10
4.633412270977063
 20
3.956692164809438
 30
0.0
 10
4.589831813088653
 20
3.959275986423375
 30
0.0
  0
HATCH
  5
51
330
4A
100
AcDbEntity
  8
Layer 1
 62
     7
100
AcDbHatch
 10
0.0
 20
0.0
 30
0.0
210
0.0
220
0.0
230
1.0
  2
SOLID
 70
     1
 71
     0
 91
        1
 92
        1
 93
        1
 72
     4
 94
        3
 73
     0
 74
     1
 95
       29
 96
       25
 40
0.0
 40
0.0
 40
0.0
 40
0.0
 40
1.0
 40
1.0
 40
1.0
 40
2.0
 40
2.0
 40
2.0
 40
3.0
 40
3.0
 40
3.0
 40
4.0
 40
4.0
 40
4.0
 40
5.0
 40
5.0
 40
5.0
 40
6.0
 40
6.0
 40
6.0
 40
7.0
 40
7.0
 40
7.0
 40
8.0
 40
8.0
 40
8.0
 40
8.0
 10
4.589831813088653
 20
3.959275986423375
 10
4.586145560919435
 20
3.959517143107343
 10
4.580840113872151
 20
3.959413790242785
 10
4.575672470644276
 20
3.9596204959719
 10
4.575672470644276
 20
3.9596204959719
 10
3.535081379324563
 20
3.9596204959719
 10
3.535081379324563
 20
3.9596204959719
 10
3.531377901677919
 20
3.95879367305544
 10
3.527433267347308
 20
3.95851806541662
 10
3.523505858494123
 20
3.958483614461768
 10
3.481889105032305
 20
3.95810465395839
 10
3.465955538413025
 20
3.926823186952322
 10
3.467764213542781
 20
3.896230739043303
 10
3.470055202040472
 20
3.858162433931292
 10
3.499476317484506
 20
3.845725639229541
 10
3.539766709184502
 20
3.84586344304895
 10
3.886825628368571
 20
3.847034775513936
 10
4.233918998507492
 20
3.846070148778066
 10
4.580977917691561
 20
3.845208874906753
 10
4.615859509479716
 20
3.845139972997048
 10
4.647916122969965
 20
3.852994790703418
 10
4.652411972578216
 20
3.890890841041166
 10
4.657338459122124
 20
3.932300888773869
 10
4.633412270977063
 20
3.956692164809438
 10
4.589831813088653
 20
3.959275986423375
 97
        0
 75
     0
 76
     1
 98
        0
  0
ENDBLK
  5
4D
330
4A
100
AcDbEntity
  8
0
100
AcDbBlockEnd
  0
BLOCK
  5
54
330
52
100
AcDbEntity
  8
0
100
AcDbBlockBegin
  2
block 4
 70
     0
 71
     0
 10
0.0
 20
0.0
 30
0.0
  3
block 4
  1

  0
SPLINE
  5
56
330
52
100
AcDbEntity
  8
Layer 1
370
     0
100
AcDbSpline
210
0.0
220
0.0
230
1.0
 70
    11
 71
     3
 72
    26
 73
    22
 74
     0
 42
0.0000000001
 43
0.0000000001
 40
0.0
 40
0.0
 40
0.0
 40
0.0
 40
1.0
 40
1.0
 40
1.0
 40
2.0
 40
2.0
 40
2.0
 40
3.0
 40
3.0
 40
3.0
 40
4.0
 40
4.0
 40
4.0
 40
5.0
 40
5.0
 40
5.0
 40
6.0
 40
6.0
 40
6.0
 40
7.0
 40
7.0
 40
7.0
 40
7.0
 10
6.857428112434948
 20
5.154086777140297
 30
0.0
 10
6.857428112434948
 20
5.154086777140297
 30
0.0
 10
7.705197209445228
 20
5.154086777140297
 30
0.0
 10
7.705197209445228
 20
5.154086777140297
 30
0.0
 10
7.708745657795035
 20
5.154465737643675
 30
0.0
 10
7.71225965518999
 20
5.154793021714774
 30
0.0
 10
7.715773652584945
 20
5.155344236992414
 30
0.0
 10
7.762110186861555
 20
5.162492810124307
 30
0.0
 10
7.799902884334746
 20
5.204919161025159
 30
0.0
 10
7.793460555777329
 20
5.242315672517545
 30
0.0
 10
7.785364581386991
 20
5.289237873026648
 30
0.0
 10
7.757252602227353
 20
5.311579317248493
 30
0.0
 10
7.708194442517395
 20
5.311338160564526
 30
0.0
 10
7.433516979478425
 20
5.309942896893
 30
0.0
 10
7.158839516439456
 20
5.309322779705655
 30
0.0
 10
6.884196504355339
 20
5.309322779705655
 30
0.0
 10
6.848057452715069
 20
5.309322779705655
 30
0.0
 10
6.818050671038542
 20
5.300503335263415
 30
0.0
 10
6.802995603768
 20
5.266069605888343
 30
0.0
 10
6.782290579901649
 20
5.218751219398436
 30
0.0
 10
6.809541285189975
 20
5.17019259853384
 30
0.0
 10
6.857428112434948
 20
5.154086777140297
 30
0.0
  0
HATCH
  5
57
330
52
100
AcDbEntity
  8
Layer 1
 62
     7
100
AcDbHatch
 10
0.0
 20
0.0
 30
0.0
210
0.0
220
0.0
230
1.0
  2
SOLID
 70
     1
 71
     0
 91
        1
 92
        1
 93
        1
 72
     4
 94
        3
 73
     0
 74
     1
 95
       26
 96
       22
 40
0.0
 40
0.0
 40
0.0
 40
0.0
 40
1.0
 40
1.0
 40
1.0
 40
2.0
 40
2.0
 40
2.0
 40
3.0
 40
3.0
 40
3.0
 40
4.0
 40
4.0
 40
4.0
 40
5.0
 40
5.0
 40
5.0
 40
6.0
 40
6.0
 40
6.0
 40
7.0
 40
7.0
 40
7.0
 40
7.0
 10
6.857428112434948
 20
5.154086777140297
 10
6.857428112434948
 20
5.154086777140297
 10
7.705197209445228
 20
5.154086777140297
 10
7.705197209445228
 20
5.154086777140297
 10
7.708745657795035
 20
5.154465737643675
 10
7.71225965518999
 20
5.154793021714774
 10
7.715773652584945
 20
5.155344236992414
 10
7.762110186861555
 20
5.162492810124307
 10
7.799902884334746
 20
5.204919161025159
 10
7.793460555777329
 20
5.242315672517545
 10
7.785364581386991
 20
5.289237873026648
 10
7.757252602227353
 20
5.311579317248493
 10
7.708194442517395
 20
5.311338160564526
 10
7.433516979478425
 20
5.309942896893
 10
7.158839516439456
 20
5.309322779705655
 10
6.884196504355339
 20
5.309322779705655
 10
6.848057452715069
 20
5.309322779705655
 10
6.818050671038542
 20
5.300503335263415
 10
6.802995603768
 20
5.266069605888343
 10
6.782290579901649
 20
5.218751219398436
 10
6.809541285189975
 20
5.17019259853384
 10
6.857428112434948
 20
5.154086777140297
 97
        0
 75
     0
 76
     1
 98
        0
  0
SPLINE
  5
58
330
52
100
AcDbEntity
  8
Layer 1
370
     0
100
AcDbSpline
210
0.0
220
0.0
230
1.0
 70
    11
 71
     3
 72
    35
 73
    31
 74
     0
 42
0.0000000001
 43
0.0000000001
 40
0.0
 40
0.0
 40
0.0
 40
0.0
 40
1.0
 40
1.0
 40
1.0
 40
2.0
 40
2.0
 40
2.0
 40
3.0
 40
3.0
 40
3.0
 40
4.0
 40
4.0
 40
4.0
 40
5.0
 40
5.0
 40
5.0
 40
6.0
 40
6.0
 40
6.0
 40
7.0
 40
7.0
 40
7.0
 40
8.0
 40
8.0
 40
8.0
 40
9.0
 40
9.0
 40
9.0
 40
10.0
 40
10.0
 40
10.0
 40
10.0
 10
7.746641708132784
 20
4.524788410327136
 30
0.0
 10
7.726350095724662
 20
4.70300319977911
 30
0.0
 10
7.710227048853692
 20
4.881493596869904
 30
0.0
 10
7.693380531930821
 20
5.059966768483272
 30
0.0
 10
7.688557398251471
 20
5.111247014781216
 30
0.0
 10
7.686008027592386
 20
5.128489717684891
 30
0.0
 10
7.661203340098587
 20
5.134053546893569
 30
0.0
 10
7.661203340098587
 20
5.134053546893569
 30
0.0
 10
6.919439831169445
 20
5.134053546893569
 30
0.0
 10
6.919439831169445
 20
5.134053546893569
 30
0.0
 10
6.90834662370694
 20
5.13019503995009
 30
0.0
 10
6.900181747406899
 20
5.120910507617341
 30
0.0
 10
6.898459199664273
 20
5.098121200982414
 30
0.0
 10
6.889846460951149
 20
4.979644367244672
 30
0.0
 10
6.877478568159102
 20
4.86144314114575
 30
0.0
 10
6.86600640019322
 20
4.743241915046828
 30
0.0
 10
6.847540688392281
 20
4.5532448990353
 30
0.0
 10
6.828558212268554
 20
4.363316784933476
 30
0.0
 10
6.809403481370565
 20
4.168978948610532
 30
0.0
 10
6.911274954869403
 20
4.168978948610532
 30
0.0
 10
7.014972328975423
 20
4.169116752429943
 30
0.0
 10
7.118704154036296
 20
4.168978948610532
 30
0.0
 10
7.317520614490064
 20
4.168772242881418
 30
0.0
 10
7.516302623988979
 20
4.169633516752731
 30
0.0
 10
7.715084633487895
 20
4.167256400867908
 30
0.0
 10
7.762351343545522
 20
4.166670734635415
 30
0.0
 10
7.775580510208882
 20
4.182311468138449
 30
0.0
 10
7.772066512813927
 20
4.228269041911682
 30
0.0
 10
7.764556204656083
 20
4.327212184248058
 30
0.0
 10
7.757838268459845
 20
4.426913247591188
 30
0.0
 10
7.746641708132784
 20
4.524788410327136
 30
0.0
  0
HATCH
  5
59
330
52
100
AcDbEntity
  8
Layer 1
 62
     7
100
AcDbHatch
 10
0.0
 20
0.0
 30
0.0
210
0.0
220
0.0
230
1.0
  2
SOLID
 70
     1
 71
     0
 91
        1
 92
        1
 93
        1
 72
     4
 94
        3
 73
     0
 74
     1
 95
       35
 96
       31
 40
0.0
 40
0.0
 40
0.0
 40
0.0
 40
1.0
 40
1.0
 40
1.0
 40
2.0
 40
2.0
 40
2.0
 40
3.0
 40
3.0
 40
3.0
 40
4.0
 40
4.0
 40
4.0
 40
5.0
 40
5.0
 40
5.0
 40
6.0
 40
6.0
 40
6.0
 40
7.0
 40
7.0
 40
7.0
 40
8.0
 40
8.0
 40
8.0
 40
9.0
 40
9.0
 40
9.0
 40
10.0
 40
10.0
 40
10.0
 40
10.0
 10
7.746641708132784
 20
4.524788410327136
 10
7.726350095724662
 20
4.70300319977911
 10
7.710227048853692
 20
4.881493596869904
 10
7.693380531930821
 20
5.059966768483272
 10
7.688557398251471
 20
5.111247014781216
 10
7.686008027592386
 20
5.128489717684891
 10
7.661203340098587
 20
5.134053546893569
 10
7.661203340098587
 20
5.134053546893569
 10
6.919439831169445
 20
5.134053546893569
 10
6.919439831169445
 20
5.134053546893569
 10
6.90834662370694
 20
5.13019503995009
 10
6.900181747406899
 20
5.120910507617341
 10
6.898459199664273
 20
5.098121200982414
 10
6.889846460951149
 20
4.979644367244672
 10
6.877478568159102
 20
4.86144314114575
 10
6.86600640019322
 20
4.743241915046828
 10
6.847540688392281
 20
4.5532448990353
 10
6.828558212268554
 20
4.363316784933476
 10
6.809403481370565
 20
4.168978948610532
 10
6.911274954869403
 20
4.168978948610532
 10
7.014972328975423
 20
4.169116752429943
 10
7.118704154036296
 20
4.168978948610532
 10
7.317520614490064
 20
4.168772242881418
 10
7.516302623988979
 20
4.169633516752731
 10
7.715084633487895
 20
4.167256400867908
 10
7.762351343545522
 20
4.166670734635415
 10
7.775580510208882
 20
4.182311468138449
 10
7.772066512813927
 20
4.228269041911682
 10
7.764556204656083
 20
4.327212184248058
 10
7.757838268459845
 20
4.426913247591188
 10
7.746641708132784
 20
4.524788410327136
 97
        0
 75
     0
 76
     1
 98
        0
  0
ENDBLK
  5
55
330
52
100
AcDbEntity
  8
0
100
AcDbBlockEnd
  0
BLOCK
  5
60
330
5E
100
AcDbEntity
  8
0
100
AcDbBlockBegin
  2
block 5
 70
     0
 71
     0
 10
0.0
 20
0.0
 30
0.0
  3
block 5
  1

  0
SPLINE
  5
62
330
5E
100
AcDbEntity
  8
Layer 1
370
     0
100
AcDbSpline
210
0.0
220
0.0
230
1.0
 70
    11
 71
     3
 72
    35
 73
    31
 74
     0
 42
0.0000000001
 43
0.0000000001
 40
0.0
 40
0.0
 40
0.0
 40
0.0
 40
1.0
 40
1.0
 40
1.0
 40
2.0
 40
2.0
 40
2.0
 40
3.0
 40
3.0
 40
3.0
 40
4.0
 40
4.0
 40
4.0
 40
5.0
 40
5.0
 40
5.0
 40
6.0
 40
6.0
 40
6.0
 40
7.0
 40
7.0
 40
7.0
 40
8.0
 40
8.0
 40
8.0
 40
9.0
 40
9.0
 40
9.0
 40
10.0
 40
10.0
 40
10.0
 40
10.0
 10
1.675126003270454
 20
3.261437444931168
 30
0.0
 10
1.675126003270454
 20
3.261437444931168
 30
0.0
 10
2.817192382108202
 20
3.261437444931168
 30
0.0
 10
2.817192382108202
 20
3.261437444931168
 30
0.0
 10
2.841652560053475
 20
3.267190754391535
 30
0.0
 10
2.859308674415381
 20
3.281522351610175
 30
0.0
 10
2.873536918769463
 20
3.310392251776568
 30
0.0
 10
2.946934678082711
 20
3.459323729603919
 30
0.0
 10
2.924610459338292
 20
3.602501897970902
 30
0.0
 10
2.849524603237271
 20
3.741304795071618
 30
0.0
 10
2.83005981374561
 20
3.777271591937626
 30
0.0
 10
2.820172389702943
 20
3.826502006421846
 30
0.0
 10
2.780502115190291
 20
3.845208874906753
 30
0.0
 10
2.780502115190291
 20
3.845208874906753
 30
0.0
 10
2.027645398798644
 20
3.845208874906753
 30
0.0
 10
2.027645398798644
 20
3.845208874906753
 30
0.0
 10
1.988457437653927
 20
3.844003091486916
 30
0.0
 10
1.949303927464063
 20
3.843314072389866
 30
0.0
 10
1.910408799435592
 20
3.845208874906753
 30
0.0
 10
1.910408799435592
 20
3.845208874906753
 30
0.0
 10
1.774878743045863
 20
3.845208874906753
 30
0.0
 10
1.774878743045863
 20
3.845208874906753
 30
0.0
 10
1.719447156688194
 20
3.831704100604574
 30
0.0
 10
1.679794107652968
 20
3.794083657905646
 30
0.0
 10
1.645377603755322
 20
3.729246960873243
 30
0.0
 10
1.568241915840578
 20
3.583932833305405
 30
0.0
 10
1.562144096831686
 20
3.44499213238528
 30
0.0
 10
1.634783935138179
 20
3.299299044314064
 30
0.0
 10
1.645153672548781
 20
3.27842176567345
 30
0.0
 10
1.657934976799058
 20
3.2667084410236
 30
0.0
 10
1.675126003270454
 20
3.261437444931168
 30
0.0
  0
HATCH
  5
63
330
5E
100
AcDbEntity
  8
Layer 1
 62
     7
100
AcDbHatch
 10
0.0
 20
0.0
 30
0.0
210
0.0
220
0.0
230
1.0
  2
SOLID
 70
     1
 71
     0
 91
        1
 92
        1
 93
        1
 72
     4
 94
        3
 73
     0
 74
     1
 95
       35
 96
       31
 40
0.0
 40
0.0
 40
0.0
 40
0.0
 40
1.0
 40
1.0
 40
1.0
 40
2.0
 40
2.0
 40
2.0
 40
3.0
 40
3.0
 40
3.0
 40
4.0
 40
4.0
 40
4.0
 40
5.0
 40
5.0
 40
5.0
 40
6.0
 40
6.0
 40
6.0
 40
7.0
 40
7.0
 40
7.0
 40
8.0
 40
8.0
 40
8.0
 40
9.0
 40
9.0
 40
9.0
 40
10.0
 40
10.0
 40
10.0
 40
10.0
 10
1.675126003270454
 20
3.261437444931168
 10
1.675126003270454
 20
3.261437444931168
 10
2.817192382108202
 20
3.261437444931168
 10
2.817192382108202
 20
3.261437444931168
 10
2.841652560053475
 20
3.267190754391535
 10
2.859308674415381
 20
3.281522351610175
 10
2.873536918769463
 20
3.310392251776568
 10
2.946934678082711
 20
3.459323729603919
 10
2.924610459338292
 20
3.602501897970902
 10
2.849524603237271
 20
3.741304795071618
 10
2.83005981374561
 20
3.777271591937626
 10
2.820172389702943
 20
3.826502006421846
 10
2.780502115190291
 20
3.845208874906753
 10
2.780502115190291
 20
3.845208874906753
 10
2.027645398798644
 20
3.845208874906753
 10
2.027645398798644
 20
3.845208874906753
 10
1.988457437653927
 20
3.844003091486916
 10
1.949303927464063
 20
3.843314072389866
 10
1.910408799435592
 20
3.845208874906753
 10
1.910408799435592
 20
3.845208874906753
 10
1.774878743045863
 20
3.845208874906753
 10
1.774878743045863
 20
3.845208874906753
 10
1.719447156688194
 20
3.831704100604574
 10
1.679794107652968
 20
3.794083657905646
 10
1.645377603755322
 20
3.729246960873243
 10
1.568241915840578
 20
3.583932833305405
 10
1.562144096831686
 20
3.44499213238528
 10
1.634783935138179
 20
3.299299044314064
 10
1.645153672548781
 20
3.27842176567345
 10
1.657934976799058
 20
3.2667084410236
 10
1.675126003270454
 20
3.261437444931168
 97
        0
 75
     0
 76
     1
 98
        0
  0
SPLINE
  5
64
330
5E
100
AcDbEntity
  8
Layer 1
370
     0
100
AcDbSpline
210
0.0
220
0.0
230
1.0
 70
    11
 71
     3
 72
    29
 73
    25
 74
     0
 42
0.0000000001
 43
0.0000000001
 40
0.0
 40
0.0
 40
0.0
 40
0.0
 40
1.0
 40
1.0
 40
1.0
 40
2.0
 40
2.0
 40
2.0
 40
3.0
 40
3.0
 40
3.0
 40
4.0
 40
4.0
 40
4.0
 40
5.0
 40
5.0
 40
5.0
 40
6.0
 40
6.0
 40
6.0
 40
7.0
 40
7.0
 40
7.0
 40
8.0
 40
8.0
 40
8.0
 40
8.0
 10
2.83212687103676
 20
3.241490342071572
 30
0.0
 10
2.83212687103676
 20
3.241490342071572
 30
0.0
 10
1.673627386734371
 20
3.241490342071572
 30
0.0
 10
1.673627386734371
 20
3.241490342071572
 30
0.0
 10
1.624431423205003
 20
3.232154133306544
 30
0.0
 10
1.591479084888588
 20
3.188194714914756
 30
0.0
 10
1.599885117872598
 20
3.131591796092102
 30
0.0
 10
1.608136121559771
 20
3.07571234732135
 30
0.0
 10
1.657314859611713
 20
3.11088677222575
 30
0.0
 10
1.687648925359338
 20
3.103583169797021
 30
0.0
 10
1.69636501693702
 20
3.101412759641313
 30
0.0
 10
1.706062960727998
 20
3.103135307383938
 30
0.0
 10
1.71533026758332
 20
3.103135307383938
 30
0.0
 10
2.085867512499366
 20
3.103031954519381
 30
0.0
 10
2.456439208370265
 20
3.102549641151445
 30
0.0
 10
2.827010904241164
 20
3.104237737939218
 30
0.0
 10
2.850093043992338
 20
3.104341090803775
 30
0.0
 10
2.88411336190918
 20
3.087735730564872
 30
0.0
 10
2.89756645977908
 20
3.117329100783167
 30
0.0
 10
2.911312390765227
 20
3.147577039143661
 30
0.0
 10
2.895137667461979
 20
3.178376192781795
 30
0.0
 10
2.87915242441042
 20
3.206660426715696
 30
0.0
 10
2.867180717599177
 20
3.227847763949982
 30
0.0
 10
2.851005994295929
 20
3.237356227489272
 30
0.0
 10
2.83212687103676
 20
3.241490342071572
 30
0.0
  0
HATCH
  5
65
330
5E
100
AcDbEntity
  8
Layer 1
 62
     7
100
AcDbHatch
 10
0.0
 20
0.0
 30
0.0
210
0.0
220
0.0
230
1.0
  2
SOLID
 70
     1
 71
     0
 91
        1
 92
        1
 93
        1
 72
     4
 94
        3
 73
     0
 74
     1
 95
       29
 96
       25
 40
0.0
 40
0.0
 40
0.0
 40
0.0
 40
1.0
 40
1.0
 40
1.0
 40
2.0
 40
2.0
 40
2.0
 40
3.0
 40
3.0
 40
3.0
 40
4.0
 40
4.0
 40
4.0
 40
5.0
 40
5.0
 40
5.0
 40
6.0
 40
6.0
 40
6.0
 40
7.0
 40
7.0
 40
7.0
 40
8.0
 40
8.0
 40
8.0
 40
8.0
 10
2.83212687103676
 20
3.241490342071572
 10
2.83212687103676
 20
3.241490342071572
 10
1.673627386734371
 20
3.241490342071572
 10
1.673627386734371
 20
3.241490342071572
 10
1.624431423205003
 20
3.232154133306544
 10
1.591479084888588
 20
3.188194714914756
 10
1.599885117872598
 20
3.131591796092102
 10
1.608136121559771
 20
3.07571234732135
 10
1.657314859611713
 20
3.11088677222575
 10
1.687648925359338
 20
3.103583169797021
 10
1.69636501693702
 20
3.101412759641313
 10
1.706062960727998
 20
3.103135307383938
 10
1.71533026758332
 20
3.103135307383938
 10
2.085867512499366
 20
3.103031954519381
 10
2.456439208370265
 20
3.102549641151445
 10
2.827010904241164
 20
3.104237737939218
 10
2.850093043992338
 20
3.104341090803775
 10
2.88411336190918
 20
3.087735730564872
 10
2.89756645977908
 20
3.117329100783167
 10
2.911312390765227
 20
3.147577039143661
 10
2.895137667461979
 20
3.178376192781795
 10
2.87915242441042
 20
3.206660426715696
 10
2.867180717599177
 20
3.227847763949982
 10
2.851005994295929
 20
3.237356227489272
 10
2.83212687103676
 20
3.241490342071572
 97
        0
 75
     0
 76
     1
 98
        0
  0
ENDBLK
  5
61
330
5E
100
AcDbEntity
  8
0
100
AcDbBlockEnd
  0
BLOCK
  5
6A
330
68
100
AcDbEntity
  8
0
100
AcDbBlockBegin
  2
block 6
 70
     0
 71
     0
 10
0.0
 20
0.0
 30
0.0
  3
block 6
  1

  0
SPLINE
  5
6C
330
68
100
AcDbEntity
  8
Layer 1
370
     0
100
AcDbSpline
210
0.0
220
0.0
230
1.0
 70
    11
 71
     3
 72
    35
 73
    31
 74
     0
 42
0.0000000001
 43
0.0000000001
 40
0.0
 40
0.0
 40
0.0
 40
0.0
 40
1.0
 40
1.0
 40
1.0
 40
2.0
 40
2.0
 40
2.0
 40
3.0
 40
3.0
 40
3.0
 40
4.0
 40
4.0
 40
4.0
 40
5.0
 40
5.0
 40
5.0
 40
6.0
 40
6.0
 40
6.0
 40
7.0
 40
7.0
 40
7.0
 40
8.0
 40
8.0
 40
8.0
 40
9.0
 40
9.0
 40
9.0
 40
10.0
 40
10.0
 40
10.0
 40
10.0
 10
6.736608613767237
 20
4.013088377902978
 30
0.0
 10
6.736608613767237
 20
4.013088377902978
 30
0.0
 10
6.808025443176465
 20
4.013088377902978
 30
0.0
 10
6.808025443176465
 20
4.013088377902978
 30
0.0
 10
6.808852266092925
 20
4.013088377902978
 30
0.0
 10
6.80961018709968
 20
4.013088377902978
 30
0.0
 10
6.81043701001614
 20
4.013088377902978
 30
0.0
 10
6.81043701001614
 20
4.013088377902978
 30
0.0
 10
7.829151745004517
 20
4.013088377902978
 30
0.0
 10
7.829151745004517
 20
4.013088377902978
 30
0.0
 10
7.880035805321657
 20
4.018807236408493
 30
0.0
 10
7.907768823977919
 20
4.042440591437306
 30
0.0
 10
7.906218531009556
 20
4.078958603580954
 30
0.0
 10
7.904323728492669
 20
4.123917099663465
 30
0.0
 10
7.868873695949448
 20
4.148480630473296
 30
0.0
 10
7.805415037111145
 20
4.148687336202411
 30
0.0
 10
7.722250432097215
 20
4.149031845750936
 30
0.0
 10
7.639051376128431
 20
4.149100747660641
 30
0.0
 10
7.5558867711145
 20
4.149307453389756
 30
0.0
 10
7.354520940001647
 20
4.149651962938282
 30
0.0
 10
7.153189559843646
 20
4.150237629170774
 30
0.0
 10
6.951789277775941
 20
4.150306531080479
 30
0.0
 10
6.891017793416134
 20
4.150409883945036
 30
0.0
 10
6.830280760011179
 20
4.149307453389756
 30
0.0
 10
6.769509275651372
 20
4.148618434292707
 30
0.0
 10
6.720554468805972
 20
4.148032768060213
 30
0.0
 10
6.696369898499518
 20
4.116303438641062
 30
0.0
 10
6.696059839905845
 20
4.074135469901605
 30
0.0
 10
6.695818683221878
 20
4.043232963398913
 30
0.0
 10
6.709461261343468
 20
4.021149901338462
 30
0.0
 10
6.736608613767237
 20
4.013088377902978
 30
0.0
  0
HATCH
  5
6D
330
68
100
AcDbEntity
  8
Layer 1
 62
     7
100
AcDbHatch
 10
0.0
 20
0.0
 30
0.0
210
0.0
220
0.0
230
1.0
  2
SOLID
 70
     1
 71
     0
 91
        1
 92
        1
 93
        1
 72
     4
 94
        3
 73
     0
 74
     1
 95
       35
 96
       31
 40
0.0
 40
0.0
 40
0.0
 40
0.0
 40
1.0
 40
1.0
 40
1.0
 40
2.0
 40
2.0
 40
2.0
 40
3.0
 40
3.0
 40
3.0
 40
4.0
 40
4.0
 40
4.0
 40
5.0
 40
5.0
 40
5.0
 40
6.0
 40
6.0
 40
6.0
 40
7.0
 40
7.0
 40
7.0
 40
8.0
 40
8.0
 40
8.0
 40
9.0
 40
9.0
 40
9.0
 40
10.0
 40
10.0
 40
10.0
 40
10.0
 10
6.736608613767237
 20
4.013088377902978
 10
6.736608613767237
 20
4.013088377902978
 10
6.808025443176465
 20
4.013088377902978
 10
6.808025443176465
 20
4.013088377902978
 10
6.808852266092925
 20
4.013088377902978
 10
6.80961018709968
 20
4.013088377902978
 10
6.81043701001614
 20
4.013088377902978
 10
6.81043701001614
 20
4.013088377902978
 10
7.829151745004517
 20
4.013088377902978
 10
7.829151745004517
 20
4.013088377902978
 10
7.880035805321657
 20
4.018807236408493
 10
7.907768823977919
 20
4.042440591437306
 10
7.906218531009556
 20
4.078958603580954
 10
7.904323728492669
 20
4.123917099663465
 10
7.868873695949448
 20
4.148480630473296
 10
7.805415037111145
 20
4.148687336202411
 10
7.722250432097215
 20
4.149031845750936
 10
7.639051376128431
 20
4.149100747660641
 10
7.5558867711145
 20
4.149307453389756
 10
7.354520940001647
 20
4.149651962938282
 10
7.153189559843646
 20
4.150237629170774
 10
6.951789277775941
 20
4.150306531080479
 10
6.891017793416134
 20
4.150409883945036
 10
6.830280760011179
 20
4.149307453389756
 10
6.769509275651372
 20
4.148618434292707
 10
6.720554468805972
 20
4.148032768060213
 10
6.696369898499518
 20
4.116303438641062
 10
6.696059839905845
 20
4.074135469901605
 10
6.695818683221878
 20
4.043232963398913
 10
6.709461261343468
 20
4.021149901338462
 10
6.736608613767237
 20
4.013088377902978
 97
        0
 75
     0
 76
     1
 98
        0
  0
SPLINE
  5
6E
330
68
100
AcDbEntity
  8
Layer 1
370
     0
100
AcDbSpline
210
0.0
220
0.0
230
1.0
 70
    11
 71
     3
 72
    44
 73
    40
 74
     0
 42
0.0000000001
 43
0.0000000001
 40
0.0
 40
0.0
 40
0.0
 40
0.0
 40
1.0
 40
1.0
 40
1.0
 40
2.0
 40
2.0
 40
2.0
 40
3.0
 40
3.0
 40
3.0
 40
4.0
 40
4.0
 40
4.0
 40
5.0
 40
5.0
 40
5.0
 40
6.0
 40
6.0
 40
6.0
 40
7.0
 40
7.0
 40
7.0
 40
8.0
 40
8.0
 40
8.0
 40
9.0
 40
9.0
 40
9.0
 40
10.0
 40
10.0
 40
10.0
 40
11.0
 40
11.0
 40
11.0
 40
12.0
 40
12.0
 40
12.0
 40
13.0
 40
13.0
 40
13.0
 40
13.0
 10
7.997410208504119
 20
3.732209742990559
 30
0.0
 10
7.963441567019555
 20
3.815615504688457
 30
0.0
 10
7.911523978056841
 20
3.888169215607819
 30
0.0
 10
7.869149303588268
 20
3.966407334077843
 30
0.0
 10
7.856230195518581
 20
3.990247394835771
 30
0.0
 10
7.834594995871212
 20
3.991901040668691
 30
0.0
 10
7.811685110894301
 20
3.991866589713839
 30
0.0
 10
7.746745060997341
 20
3.991866589713839
 30
0.0
 10
7.681770560145529
 20
3.991832138758986
 30
0.0
 10
7.616796059293717
 20
3.991832138758986
 30
0.0
 10
7.55492214437863
 20
3.991797687804134
 30
0.0
 10
7.493082680418396
 20
3.991832138758986
 30
0.0
 10
7.431243216458161
 20
3.991832138758986
 30
0.0
 10
7.431243216458161
 20
3.992245550217216
 30
0.0
 10
7.431243216458161
 20
3.992624510720594
 30
0.0
 10
7.431243216458161
 20
3.993037922178824
 30
0.0
 10
7.431243216458161
 20
3.993037922178824
 30
0.0
 10
6.776985132854365
 20
3.993037922178824
 30
0.0
 10
6.776985132854365
 20
3.993037922178824
 30
0.0
 10
6.76878580559947
 20
3.991349825391051
 30
0.0
 10
6.76148220317074
 20
3.987525769402424
 30
0.0
 10
6.755728893710373
 20
3.979050834508709
 30
0.0
 10
6.699401582526538
 20
3.896644150501533
 30
0.0
 10
6.640111489225388
 20
3.815408798959342
 30
0.0
 10
6.592672524393498
 20
3.727903373633996
 30
0.0
 10
6.534657116421891
 20
3.620829805952431
 30
0.0
 10
6.555568846017358
 20
3.507038302074629
 30
0.0
 10
6.594601777865238
 20
3.399000107657194
 30
0.0
 10
6.621576875514744
 20
3.324310437536978
 30
0.0
 10
6.638699000076436
 20
3.297438692752029
 30
0.0
 10
6.685552298675834
 20
3.289411620271397
 30
0.0
 10
6.685552298675834
 20
3.289411620271397
 30
0.0
 10
7.916037053142518
 20
3.289411620271397
 30
0.0
 10
7.916037053142518
 20
3.289411620271397
 30
0.0
 10
7.927957083521482
 20
3.293959146311927
 30
0.0
 10
7.938774683345167
 20
3.302537434070199
 30
0.0
 10
7.947456323967996
 20
3.318143716618381
 30
0.0
 10
8.020388995390736
 20
3.449264050786989
 30
0.0
 10
8.057906085225106
 20
3.58372612757629
 30
0.0
 10
7.997410208504119
 20
3.732209742990559
 30
0.0
  0
HATCH
  5
6F
330
68
100
AcDbEntity
  8
Layer 1
 62
     7
100
AcDbHatch
 10
0.0
 20
0.0
 30
0.0
210
0.0
220
0.0
230
1.0
  2
SOLID
 70
     1
 71
     0
 91
        1
 92
        1
 93
        1
 72
     4
 94
        3
 73
     0
 74
     1
 95
       44
 96
       40
 40
0.0
 40
0.0
 40
0.0
 40
0.0
 40
1.0
 40
1.0
 40
1.0
 40
2.0
 40
2.0
 40
2.0
 40
3.0
 40
3.0
 40
3.0
 40
4.0
 40
4.0
 40
4.0
 40
5.0
 40
5.0
 40
5.0
 40
6.0
 40
6.0
 40
6.0
 40
7.0
 40
7.0
 40
7.0
 40
8.0
 40
8.0
 40
8.0
 40
9.0
 40
9.0
 40
9.0
 40
10.0
 40
10.0
 40
10.0
 40
11.0
 40
11.0
 40
11.0
 40
12.0
 40
12.0
 40
12.0
 40
13.0
 40
13.0
 40
13.0
 40
13.0
 10
7.997410208504119
 20
3.732209742990559
 10
7.963441567019555
 20
3.815615504688457
 10
7.911523978056841
 20
3.888169215607819
 10
7.869149303588268
 20
3.966407334077843
 10
7.856230195518581
 20
3.990247394835771
 10
7.834594995871212
 20
3.991901040668691
 10
7.811685110894301
 20
3.991866589713839
 10
7.746745060997341
 20
3.991866589713839
 10
7.681770560145529
 20
3.991832138758986
 10
7.616796059293717
 20
3.991832138758986
 10
7.55492214437863
 20
3.991797687804134
 10
7.493082680418396
 20
3.991832138758986
 10
7.431243216458161
 20
3.991832138758986
 10
7.431243216458161
 20
3.992245550217216
 10
7.431243216458161
 20
3.992624510720594
 10
7.431243216458161
 20
3.993037922178824
 10
7.431243216458161
 20
3.993037922178824
 10
6.776985132854365
 20
3.993037922178824
 10
6.776985132854365
 20
3.993037922178824
 10
6.76878580559947
 20
3.991349825391051
 10
6.76148220317074
 20
3.987525769402424
 10
6.755728893710373
 20
3.979050834508709
 10
6.699401582526538
 20
3.896644150501533
 10
6.640111489225388
 20
3.815408798959342
 10
6.592672524393498
 20
3.727903373633996
 10
6.534657116421891
 20
3.620829805952431
 10
6.555568846017358
 20
3.507038302074629
 10
6.594601777865238
 20
3.399000107657194
 10
6.621576875514744
 20
3.324310437536978
 10
6.638699000076436
 20
3.297438692752029
 10
6.685552298675834
 20
3.289411620271397
 10
6.685552298675834
 20
3.289411620271397
 10
7.916037053142518
 20
3.289411620271397
 10
7.916037053142518
 20
3.289411620271397
 10
7.927957083521482
 20
3.293959146311927
 10
7.938774683345167
 20
3.302537434070199
 10
7.947456323967996
 20
3.318143716618381
 10
8.020388995390736
 20
3.449264050786989
 10
8.057906085225106
 20
3.58372612757629
 10
7.997410208504119
 20
3.732209742990559
 97
        0
 75
     0
 76
     1
 98
        0
  0
ENDBLK
  5
6B
330
68
100
AcDbEntity
  8
0
100
AcDbBlockEnd
  0
BLOCK
  5
72
330
70
100
AcDbEntity
  8
0
100
AcDbBlockBegin
  2
block 7
 70
     0
 71
     0
 10
0.0
 20
0.0
 30
0.0
  3
block 7
  1

  0
SPLINE
  5
74
330
70
100
AcDbEntity
  8
Layer 1
370
     0
100
AcDbSpline
210
0.0
220
0.0
230
1.0
 70
    11
 71
     3
 72
    29
 73
    25
 74
     0
 42
0.0000000001
 43
0.0000000001
 40
0.0
 40
0.0
 40
0.0
 40
0.0
 40
1.0
 40
1.0
 40
1.0
 40
2.0
 40
2.0
 40
2.0
 40
3.0
 40
3.0
 40
3.0
 40
4.0
 40
4.0
 40
4.0
 40
5.0
 40
5.0
 40
5.0
 40
6.0
 40
6.0
 40
6.0
 40
7.0
 40
7.0
 40
7.0
 40
8.0
 40
8.0
 40
8.0
 40
8.0
 10
4.646796466937259
 20
3.254857312554341
 30
0.0
 10
4.702228053294928
 20
3.275837944059512
 30
0.0
 10
4.712907849299203
 20
3.33619601696109
 30
0.0
 10
4.727411701292105
 20
3.387941351149542
 30
0.0
 10
4.769235160483039
 20
3.537320691389975
 30
0.0
 10
4.712098251860169
 20
3.667579751687271
 30
0.0
 10
4.638752168979201
 20
3.793635795492563
 30
0.0
 10
4.620630966726786
 20
3.824848360588927
 30
0.0
 10
4.599633109744189
 20
3.833908961715133
 30
0.0
 10
4.562891166393999
 20
3.833702255986019
 30
0.0
 10
4.22451388783276
 20
3.831807453469131
 30
0.0
 10
3.886136609271521
 20
3.831979708243394
 30
0.0
 10
3.547742105232856
 20
3.834150118399101
 30
0.0
 10
3.514238551638801
 20
3.834356824128216
 30
0.0
 10
3.492448322694596
 20
3.822712401388072
 30
0.0
 10
3.478840195527859
 20
3.798355576307355
 30
0.0
 10
3.45072821636822
 20
3.747919378403298
 30
0.0
 10
3.412677136733636
 20
3.704063312876067
 30
0.0
 10
3.390921358744283
 20
3.648976236066922
 30
0.0
 10
3.334594047560449
 20
3.506555988706694
 30
0.0
 10
3.359553764351083
 20
3.377743868513203
 30
0.0
 10
3.439927842021962
 20
3.254857312554341
 30
0.0
 10
3.439927842021962
 20
3.254857312554341
 30
0.0
 10
4.646796466937259
 20
3.254857312554341
 30
0.0
 10
4.646796466937259
 20
3.254857312554341
 30
0.0
  0
HATCH
  5
75
330
70
100
AcDbEntity
  8
Layer 1
 62
     7
100
AcDbHatch
 10
0.0
 20
0.0
 30
0.0
210
0.0
220
0.0
230
1.0
  2
SOLID
 70
     1
 71
     0
 91
        1
 92
        1
 93
        1
 72
     4
 94
        3
 73
     0
 74
     1
 95
       29
 96
       25
 40
0.0
 40
0.0
 40
0.0
 40
0.0
 40
1.0
 40
1.0
 40
1.0
 40
2.0
 40
2.0
 40
2.0
 40
3.0
 40
3.0
 40
3.0
 40
4.0
 40
4.0
 40
4.0
 40
5.0
 40
5.0
 40
5.0
 40
6.0
 40
6.0
 40
6.0
 40
7.0
 40
7.0
 40
7.0
 40
8.0
 40
8.0
 40
8.0
 40
8.0
 10
4.646796466937259
 20
3.254857312554341
 10
4.702228053294928
 20
3.275837944059512
 10
4.712907849299203
 20
3.33619601696109
 10
4.727411701292105
 20
3.387941351149542
 10
4.769235160483039
 20
3.537320691389975
 10
4.712098251860169
 20
3.667579751687271
 10
4.638752168979201
 20
3.793635795492563
 10
4.620630966726786
 20
3.824848360588927
 10
4.599633109744189
 20
3.833908961715133
 10
4.562891166393999
 20
3.833702255986019
 10
4.22451388783276
 20
3.831807453469131
 10
3.886136609271521
 20
3.831979708243394
 10
3.547742105232856
 20
3.834150118399101
 10
3.514238551638801
 20
3.834356824128216
 10
3.492448322694596
 20
3.822712401388072
 10
3.478840195527859
 20
3.798355576307355
 10
3.45072821636822
 20
3.747919378403298
 10
3.412677136733636
 20
3.704063312876067
 10
3.390921358744283
 20
3.648976236066922
 10
3.334594047560449
 20
3.506555988706694
 10
3.359553764351083
 20
3.377743868513203
 10
3.439927842021962
 20
3.254857312554341
 10
3.439927842021962
 20
3.254857312554341
 10
4.646796466937259
 20
3.254857312554341
 10
4.646796466937259
 20
3.254857312554341
 97
        0
 75
     0
 76
     1
 98
        0
  0
SPLINE
  5
76
330
70
100
AcDbEntity
  8
Layer 1
370
     0
100
AcDbSpline
210
0.0
220
0.0
230
1.0
 70
    11
 71
     3
 72
    29
 73
    25
 74
     0
 42
0.0000000001
 43
0.0000000001
 40
0.0
 40
0.0
 40
0.0
 40
0.0
 40
1.0
 40
1.0
 40
1.0
 40
2.0
 40
2.0
 40
2.0
 40
3.0
 40
3.0
 40
3.0
 40
4.0
 40
4.0
 40
4.0
 40
5.0
 40
5.0
 40
5.0
 40
6.0
 40
6.0
 40
6.0
 40
7.0
 40
7.0
 40
7.0
 40
8.0
 40
8.0
 40
8.0
 40
8.0
 10
4.66074910365252
 20
3.234806856830187
 30
0.0
 10
4.66074910365252
 20
3.234806856830187
 30
0.0
 10
3.434346787335858
 20
3.234806856830187
 30
0.0
 10
3.434346787335858
 20
3.234806856830187
 30
0.0
 10
3.425251735254798
 20
3.2273999015369
 30
0.0
 10
3.415708820760656
 20
3.219648436695087
 30
0.0
 10
3.40659654320217
 20
3.211242403711078
 30
0.0
 10
3.378932426455614
 20
3.185989853804197
 30
0.0
 10
3.371542696639753
 20
3.149540743570253
 30
0.0
 10
3.381309542340436
 20
3.119086099480645
 30
0.0
 10
3.390645751105463
 20
3.089768336901169
 30
0.0
 10
3.426853704655439
 20
3.104754502262006
 30
0.0
 10
3.450779892800499
 20
3.104513345578038
 30
0.0
 10
3.610201686380436
 20
3.102963052609676
 30
0.0
 10
3.769623479960372
 20
3.102825248790266
 30
0.0
 10
3.929079724495161
 20
3.103031954519381
 30
0.0
 10
4.180158283460169
 20
3.103376464067906
 30
0.0
 10
4.431202391470324
 20
3.105305717539645
 30
0.0
 10
4.682229274003054
 20
3.103927679345546
 30
0.0
 10
4.728186847776287
 20
3.103652071706726
 30
0.0
 10
4.727101642698432
 20
3.11943060902917
 30
0.0
 10
4.721382784192918
 20
3.156844345998983
 30
0.0
 10
4.714492593222418
 20
3.202181802584871
 30
0.0
 10
4.691754963019769
 20
3.223438041728862
 30
0.0
 10
4.66074910365252
 20
3.234806856830187
 30
0.0
  0
HATCH
  5
77
330
70
100
AcDbEntity
  8
Layer 1
 62
     7
100
AcDbHatch
 10
0.0
 20
0.0
 30
0.0
210
0.0
220
0.0
230
1.0
  2
SOLID
 70
     1
 71
     0
 91
        1
 92
        1
 93
        1
 72
     4
 94
        3
 73
     0
 74
     1
 95
       29
 96
       25
 40
0.0
 40
0.0
 40
0.0
 40
0.0
 40
1.0
 40
1.0
 40
1.0
 40
2.0
 40
2.0
 40
2.0
 40
3.0
 40
3.0
 40
3.0
 40
4.0
 40
4.0
 40
4.0
 40
5.0
 40
5.0
 40
5.0
 40
6.0
 40
6.0
 40
6.0
 40
7.0
 40
7.0
 40
7.0
 40
8.0
 40
8.0
 40
8.0
 40
8.0
 10
4.66074910365252
 20
3.234806856830187
 10
4.66074910365252
 20
3.234806856830187
 10
3.434346787335858
 20
3.234806856830187
 10
3.434346787335858
 20
3.234806856830187
 10
3.425251735254798
 20
3.2273999015369
 10
3.415708820760656
 20
3.219648436695087
 10
3.40659654320217
 20
3.211242403711078
 10
3.378932426455614
 20
3.185989853804197
 10
3.371542696639753
 20
3.149540743570253
 10
3.381309542340436
 20
3.119086099480645
 10
3.390645751105463
 20
3.089768336901169
 10
3.426853704655439
 20
3.104754502262006
 10
3.450779892800499
 20
3.104513345578038
 10
3.610201686380436
 20
3.102963052609676
 10
3.769623479960372
 20
3.102825248790266
 10
3.929079724495161
 20
3.103031954519381
 10
4.180158283460169
 20
3.103376464067906
 10
4.431202391470324
 20
3.105305717539645
 10
4.682229274003054
 20
3.103927679345546
 10
4.728186847776287
 20
3.103652071706726
 10
4.727101642698432
 20
3.11943060902917
 10
4.721382784192918
 20
3.156844345998983
 10
4.714492593222418
 20
3.202181802584871
 10
4.691754963019769
 20
3.223438041728862
 10
4.66074910365252
 20
3.234806856830187
 97
        0
 75
     0
 76
     1
 98
        0
  0
ENDBLK
  5
73
330
70
100
AcDbEntity
  8
0
100
AcDbBlockEnd
  0
BLOCK
  5
7C
330
7A
100
AcDbEntity
  8
0
100
AcDbBlockBegin
  2
block 8
 70
     0
 71
     0
 10
0.0
 20
0.0
 30
0.0
  3
block 8
  1

  0
SPLINE
  5
7E
330
7A
100
AcDbEntity
  8
Layer 1
370
     0
100
AcDbSpline
210
0.0
220
0.0
230
1.0
 70
    11
 71
     3
 72
    47
 73
    43
 74
     0
 42
0.0000000001
 43
0.0000000001
 40
0.0
 40
0.0
 40
0.0
 40
0.0
 40
1.0
 40
1.0
 40
1.0
 40
2.0
 40
2.0
 40
2.0
 40
3.0
 40
3.0
 40
3.0
 40
4.0
 40
4.0
 40
4.0
 40
5.0
 40
5.0
 40
5.0
 40
6.0
 40
6.0
 40
6.0
 40
7.0
 40
7.0
 40
7.0
 40
8.0
 40
8.0
 40
8.0
 40
9.0
 40
9.0
 40
9.0
 40
10.0
 40
10.0
 40
10.0
 40
11.0
 40
11.0
 40
11.0
 40
12.0
 40
12.0
 40
12.0
 40
13.0
 40
13.0
 40
13.0
 40
14.0
 40
14.0
 40
14.0
 40
14.0
 10
9.411311846605505
 20
3.243419595543311
 30
0.0
 10
9.352435164762586
 20
3.243385144588459
 30
0.0
 10
9.293558482919666
 20
3.243419595543311
 30
0.0
 10
9.234681801076746
 20
3.243419595543311
 30
0.0
 10
9.234681801076746
 20
3.243557399362722
 30
0.0
 10
9.234681801076746
 20
3.243626301272426
 30
0.0
 10
9.234681801076746
 20
3.243764105091837
 30
0.0
 10
9.234681801076746
 20
3.243764105091837
 30
0.0
 10
8.563439396730667
 20
3.243764105091837
 30
0.0
 10
8.563439396730667
 20
3.243764105091837
 30
0.0
 10
8.539427081198475
 20
3.242076008304064
 30
0.0
 10
8.515414765666284
 20
3.240663519155112
 30
0.0
 10
8.491678057772914
 20
3.243764105091837
 30
0.0
 10
8.491678057772914
 20
3.243764105091837
 30
0.0
 10
8.414128958399939
 20
3.243764105091837
 30
0.0
 10
8.414128958399939
 20
3.243764105091837
 30
0.0
 10
8.411131725327772
 20
3.243212889814197
 30
0.0
 10
8.40778998270708
 20
3.243212889814197
 30
0.0
 10
8.404138181492716
 20
3.243764105091837
 30
0.0
 10
8.404138181492716
 20
3.243764105091837
 30
0.0
 10
8.404138181492716
 20
3.243764105091837
 30
0.0
 10
8.404069279583009
 20
3.243764105091837
 30
0.0
 10
8.404069279583009
 20
3.243764105091837
 30
0.0
 10
8.381745060838591
 20
3.243764105091837
 30
0.0
 10
8.381745060838591
 20
3.243764105091837
 30
0.0
 10
8.35208278871059
 20
3.238768716638224
 30
0.0
 10
8.336579859026966
 20
3.212999402408555
 30
0.0
 10
8.324211966234918
 20
3.187367891998297
 30
0.0
 10
8.296031085165575
 20
3.129318033071837
 30
0.0
 10
8.31511691415386
 20
3.102790797835413
 30
0.0
 10
8.378954533495538
 20
3.104134385074661
 30
0.0
 10
8.408582354668686
 20
3.104788953216858
 30
0.0
 10
8.438244626796688
 20
3.104099934119808
 30
0.0
 10
8.467941349879542
 20
3.104099934119808
 30
0.0
 10
8.798188203095592
 20
3.103927679345546
 30
0.0
 10
9.128469507266493
 20
3.103789875526135
 30
0.0
 10
9.458750811437396
 20
3.103927679345546
 30
0.0
 10
9.47618299459276
 20
3.103962130300398
 30
0.0
 10
9.496440156046027
 20
3.098484428478851
 30
0.0
 10
9.502848033648593
 20
3.125321722308947
 30
0.0
 10
9.516008298402248
 20
3.179926485750157
 30
0.0
 10
9.467432452060224
 20
3.243522948407869
 30
0.0
 10
9.411311846605505
 20
3.243419595543311
 30
0.0
  0
HATCH
  5
7F
330
7A
100
AcDbEntity
  8
Layer 1
 62
     7
100
AcDbHatch
 10
0.0
 20
0.0
 30
0.0
210
0.0
220
0.0
230
1.0
  2
SOLID
 70
     1
 71
     0
 91
        1
 92
        1
 93
        1
 72
     4
 94
        3
 73
     0
 74
     1
 95
       47
 96
       43
 40
0.0
 40
0.0
 40
0.0
 40
0.0
 40
1.0
 40
1.0
 40
1.0
 40
2.0
 40
2.0
 40
2.0
 40
3.0
 40
3.0
 40
3.0
 40
4.0
 40
4.0
 40
4.0
 40
5.0
 40
5.0
 40
5.0
 40
6.0
 40
6.0
 40
6.0
 40
7.0
 40
7.0
 40
7.0
 40
8.0
 40
8.0
 40
8.0
 40
9.0
 40
9.0
 40
9.0
 40
10.0
 40
10.0
 40
10.0
 40
11.0
 40
11.0
 40
11.0
 40
12.0
 40
12.0
 40
12.0
 40
13.0
 40
13.0
 40
13.0
 40
14.0
 40
14.0
 40
14.0
 40
14.0
 10
9.411311846605505
 20
3.243419595543311
 10
9.352435164762586
 20
3.243385144588459
 10
9.293558482919666
 20
3.243419595543311
 10
9.234681801076746
 20
3.243419595543311
 10
9.234681801076746
 20
3.243557399362722
 10
9.234681801076746
 20
3.243626301272426
 10
9.234681801076746
 20
3.243764105091837
 10
9.234681801076746
 20
3.243764105091837
 10
8.563439396730667
 20
3.243764105091837
 10
8.563439396730667
 20
3.243764105091837
 10
8.539427081198475
 20
3.242076008304064
 10
8.515414765666284
 20
3.240663519155112
 10
8.491678057772914
 20
3.243764105091837
 10
8.491678057772914
 20
3.243764105091837
 10
8.414128958399939
 20
3.243764105091837
 10
8.414128958399939
 20
3.243764105091837
 10
8.411131725327772
 20
3.243212889814197
 10
8.40778998270708
 20
3.243212889814197
 10
8.404138181492716
 20
3.243764105091837
 10
8.404138181492716
 20
3.243764105091837
 10
8.404138181492716
 20
3.243764105091837
 10
8.404069279583009
 20
3.243764105091837
 10
8.404069279583009
 20
3.243764105091837
 10
8.381745060838591
 20
3.243764105091837
 10
8.381745060838591
 20
3.243764105091837
 10
8.35208278871059
 20
3.238768716638224
 10
8.336579859026966
 20
3.212999402408555
 10
8.324211966234918
 20
3.187367891998297
 10
8.296031085165575
 20
3.129318033071837
 10
8.31511691415386
 20
3.102790797835413
 10
8.378954533495538
 20
3.104134385074661
 10
8.408582354668686
 20
3.104788953216858
 10
8.438244626796688
 20
3.104099934119808
 10
8.467941349879542
 20
3.104099934119808
 10
8.798188203095592
 20
3.103927679345546
 10
9.128469507266493
 20
3.103789875526135
 10
9.458750811437396
 20
3.103927679345546
 10
9.47618299459276
 20
3.103962130300398
 10
9.496440156046027
 20
3.098484428478851
 10
9.502848033648593
 20
3.125321722308947
 10
9.516008298402248
 20
3.179926485750157
 10
9.467432452060224
 20
3.243522948407869
 10
9.411311846605505
 20
3.243419595543311
 97
        0
 75
     0
 76
     1
 98
        0
  0
SPLINE
  5
80
330
7A
100
AcDbEntity
  8
Layer 1
370
     0
100
AcDbSpline
210
0.0
220
0.0
230
1.0
 70
    11
 71
     3
 72
    50
 73
    46
 74
     0
 42
0.0000000001
 43
0.0000000001
 40
0.0
 40
0.0
 40
0.0
 40
0.0
 40
1.0
 40
1.0
 40
1.0
 40
2.0
 40
2.0
 40
2.0
 40
3.0
 40
3.0
 40
3.0
 40
4.0
 40
4.0
 40
4.0
 40
5.0
 40
5.0
 40
5.0
 40
6.0
 40
6.0
 40
6.0
 40
7.0
 40
7.0
 40
7.0
 40
8.0
 40
8.0
 40
8.0
 40
9.0
 40
9.0
 40
9.0
 40
10.0
 40
10.0
 40
10.0
 40
11.0
 40
11.0
 40
11.0
 40
12.0
 40
12.0
 40
12.0
 40
13.0
 40
13.0
 40
13.0
 40
14.0
 40
14.0
 40
14.0
 40
15.0
 40
15.0
 40
15.0
 40
15.0
 10
9.39773817039362
 20
3.855992023775585
 30
0.0
 10
9.39773817039362
 20
3.855992023775585
 30
0.0
 10
8.449820147627127
 20
3.855992023775585
 30
0.0
 10
8.449820147627127
 20
3.855992023775585
 30
0.0
 10
8.426462400237133
 20
3.845071071087343
 30
0.0
 10
8.409236922810885
 20
3.822161186110431
 30
0.0
 10
8.39235595493316
 20
3.79497938273181
 30
0.0
 10
8.374028046951631
 20
3.765489365378072
 30
0.0
 10
8.359868704507255
 20
3.734655760785086
 30
0.0
 10
8.344331323868778
 20
3.704201116695477
 30
0.0
 10
8.278013235777719
 20
3.574975585043756
 30
0.0
 10
8.285006779612775
 20
3.445922308166297
 30
0.0
 10
8.343056638539235
 20
3.315628796914148
 30
0.0
 10
8.35456325745997
 20
3.289687227910217
 30
0.0
 10
8.36824028653641
 20
3.27098035942531
 30
0.0
 10
8.38849744798968
 20
3.263780109861138
 30
0.0
 10
8.38849744798968
 20
3.263780109861138
 30
0.0
 10
8.431492239645598
 20
3.263780109861138
 30
0.0
 10
8.431492239645598
 20
3.263780109861138
 30
0.0
 10
8.431664494419861
 20
3.263780109861138
 30
0.0
 10
8.431836749194124
 20
3.263849011770843
 30
0.0
 10
8.431905651103829
 20
3.263883462725695
 30
0.0
 10
8.43194010205868
 20
3.263917913680548
 30
0.0
 10
8.43194010205868
 20
3.264021266545106
 30
0.0
 10
8.43194010205868
 20
3.26409016845481
 30
0.0
 10
8.432112356832944
 20
3.264021266545106
 30
0.0
 10
8.432215709697502
 20
3.263917913680548
 30
0.0
 10
8.432319062562058
 20
3.263883462725695
 30
0.0
 10
8.502323402822336
 20
3.263883462725695
 30
0.0
 10
8.572293292127759
 20
3.263883462725695
 30
0.0
 10
8.642297632388036
 20
3.263883462725695
 30
0.0
 10
8.642297632388036
 20
3.263849011770843
 30
0.0
 10
8.642297632388036
 20
3.263780109861138
 30
0.0
 10
8.642297632388036
 20
3.263780109861138
 30
0.0
 10
8.642297632388036
 20
3.263780109861138
 30
0.0
 10
9.431052243735985
 20
3.263780109861138
 30
0.0
 10
9.431052243735985
 20
3.263780109861138
 30
0.0
 10
9.447278643471513
 20
3.26863769449534
 30
0.0
 10
9.459060870031067
 20
3.279558647183582
 30
0.0
 10
9.467776961608749
 20
3.297094183203504
 30
0.0
 10
9.49358072679327
 20
3.348667262617694
 30
0.0
 10
9.514974769756673
 20
3.400929361128934
 30
0.0
 10
9.519453393887497
 20
3.460460611114051
 30
0.0
 10
9.530512150395149
 20
3.608289658386122
 30
0.0
 10
9.47552842645056
 20
3.733587781184658
 30
0.0
 10
9.39773817039362
 20
3.855992023775585
 30
0.0
  0
HATCH
  5
81
330
7A
100
AcDbEntity
  8
Layer 1
 62
     7
100
AcDbHatch
 10
0.0
 20
0.0
 30
0.0
210
0.0
220
0.0
230
1.0
  2
SOLID
 70
     1
 71
     0
 91
        1
 92
        1
 93
        1
 72
     4
 94
        3
 73
     0
 74
     1
 95
       50
 96
       46
 40
0.0
 40
0.0
 40
0.0
 40
0.0
 40
1.0
 40
1.0
 40
1.0
 40
2.0
 40
2.0
 40
2.0
 40
3.0
 40
3.0
 40
3.0
 40
4.0
 40
4.0
 40
4.0
 40
5.0
 40
5.0
 40
5.0
 40
6.0
 40
6.0
 40
6.0
 40
7.0
 40
7.0
 40
7.0
 40
8.0
 40
8.0
 40
8.0
 40
9.0
 40
9.0
 40
9.0
 40
10.0
 40
10.0
 40
10.0
 40
11.0
 40
11.0
 40
11.0
 40
12.0
 40
12.0
 40
12.0
 40
13.0
 40
13.0
 40
13.0
 40
14.0
 40
14.0
 40
14.0
 40
15.0
 40
15.0
 40
15.0
 40
15.0
 10
9.39773817039362
 20
3.855992023775585
 10
9.39773817039362
 20
3.855992023775585
 10
8.449820147627127
 20
3.855992023775585
 10
8.449820147627127
 20
3.855992023775585
 10
8.426462400237133
 20
3.845071071087343
 10
8.409236922810885
 20
3.822161186110431
 10
8.39235595493316
 20
3.79497938273181
 10
8.374028046951631
 20
3.765489365378072
 10
8.359868704507255
 20
3.734655760785086
 10
8.344331323868778
 20
3.704201116695477
 10
8.278013235777719
 20
3.574975585043756
 10
8.285006779612775
 20
3.445922308166297
 10
8.343056638539235
 20
3.315628796914148
 10
8.35456325745997
 20
3.289687227910217
 10
8.36824028653641
 20
3.27098035942531
 10
8.38849744798968
 20
3.263780109861138
 10
8.38849744798968
 20
3.263780109861138
 10
8.431492239645598
 20
3.263780109861138
 10
8.431492239645598
 20
3.263780109861138
 10
8.431664494419861
 20
3.263780109861138
 10
8.431836749194124
 20
3.263849011770843
 10
8.431905651103829
 20
3.263883462725695
 10
8.43194010205868
 20
3.263917913680548
 10
8.43194010205868
 20
3.264021266545106
 10
8.43194010205868
 20
3.26409016845481
 10
8.432112356832944
 20
3.264021266545106
 10
8.432215709697502
 20
3.263917913680548
 10
8.432319062562058
 20
3.263883462725695
 10
8.502323402822336
 20
3.263883462725695
 10
8.572293292127759
 20
3.263883462725695
 10
8.642297632388036
 20
3.263883462725695
 10
8.642297632388036
 20
3.263849011770843
 10
8.642297632388036
 20
3.263780109861138
 10
8.642297632388036
 20
3.263780109861138
 10
8.642297632388036
 20
3.263780109861138
 10
9.431052243735985
 20
3.263780109861138
 10
9.431052243735985
 20
3.263780109861138
 10
9.447278643471513
 20
3.26863769449534
 10
9.459060870031067
 20
3.279558647183582
 10
9.467776961608749
 20
3.297094183203504
 10
9.49358072679327
 20
3.348667262617694
 10
9.514974769756673
 20
3.400929361128934
 10
9.519453393887497
 20
3.460460611114051
 10
9.530512150395149
 20
3.608289658386122
 10
9.47552842645056
 20
3.733587781184658
 10
9.39773817039362
 20
3.855992023775585
 97
        0
 75
     0
 76
     1
 98
        0
  0
SPLINE
  5
82
330
7A
100
AcDbEntity
  8
Layer 1
370
     0
100
AcDbSpline
210
0.0
220
0.0
230
1.0
 70
    11
 71
     3
 72
    20
 73
    16
 74
     0
 42
0.0000000001
 43
0.0000000001
 40
0.0
 40
0.0
 40
0.0
 40
0.0
 40
1.0
 40
1.0
 40
1.0
 40
2.0
 40
2.0
 40
2.0
 40
3.0
 40
3.0
 40
3.0
 40
4.0
 40
4.0
 40
4.0
 40
5.0
 40
5.0
 40
5.0
 40
5.0
 10
8.431905651103829
 20
3.263883462725695
 30
0.0
 10
8.431905651103829
 20
3.263849011770843
 30
0.0
 10
8.431905651103829
 20
3.263780109861138
 30
0.0
 10
8.431905651103829
 20
3.263780109861138
 30
0.0
 10
8.431905651103829
 20
3.263780109861138
 30
0.0
 10
8.432525768291173
 20
3.263780109861138
 30
0.0
 10
8.432525768291173
 20
3.263780109861138
 30
0.0
 10
8.432491317336321
 20
3.263780109861138
 30
0.0
 10
8.432422415426617
 20
3.263849011770843
 30
0.0
 10
8.432319062562058
 20
3.263883462725695
 30
0.0
 10
8.432215709697502
 20
3.263883462725695
 30
0.0
 10
8.43207790587809
 20
3.263883462725695
 30
0.0
 10
8.43194010205868
 20
3.263883462725695
 30
0.0
 10
8.43194010205868
 20
3.263883462725695
 30
0.0
 10
8.43194010205868
 20
3.263883462725695
 30
0.0
 10
8.431905651103829
 20
3.263883462725695
 30
0.0
  0
HATCH
  5
83
330
7A
100
AcDbEntity
  8
Layer 1
 62
     7
100
AcDbHatch
 10
0.0
 20
0.0
 30
0.0
210
0.0
220
0.0
230
1.0
  2
SOLID
 70
     1
 71
     0
 91
        1
 92
        1
 93
        1
 72
     4
 94
        3
 73
     0
 74
     1
 95
       20
 96
       16
 40
0.0
 40
0.0
 40
0.0
 40
0.0
 40
1.0
 40
1.0
 40
1.0
 40
2.0
 40
2.0
 40
2.0
 40
3.0
 40
3.0
 40
3.0
 40
4.0
 40
4.0
 40
4.0
 40
5.0
 40
5.0
 40
5.0
 40
5.0
 10
8.431905651103829
 20
3.263883462725695
 10
8.431905651103829
 20
3.263849011770843
 10
8.431905651103829
 20
3.263780109861138
 10
8.431905651103829
 20
3.263780109861138
 10
8.431905651103829
 20
3.263780109861138
 10
8.432525768291173
 20
3.263780109861138
 10
8.432525768291173
 20
3.263780109861138
 10
8.432491317336321
 20
3.263780109861138
 10
8.432422415426617
 20
3.263849011770843
 10
8.432319062562058
 20
3.263883462725695
 10
8.432215709697502
 20
3.263883462725695
 10
8.43207790587809
 20
3.263883462725695
 10
8.43194010205868
 20
3.263883462725695
 10
8.43194010205868
 20
3.263883462725695
 10
8.43194010205868
 20
3.263883462725695
 10
8.431905651103829
 20
3.263883462725695
 97
        0
 75
     0
 76
     1
 98
        0
  0
ENDBLK
  5
7D
330
7A
100
AcDbEntity
  8
0
100
AcDbBlockEnd
  0
BLOCK
  5
88
330
86
100
AcDbEntity
  8
0
100
AcDbBlockBegin
  2
block 9
 70
     0
 71
     0
 10
0.0
 20
0.0
 30
0.0
  3
block 9
  1

  0
SPLINE
  5
8A
330
86
100
AcDbEntity
  8
Layer 1
370
     0
100
AcDbSpline
210
0.0
220
0.0
230
1.0
 70
    11
 71
     3
 72
    35
 73
    31
 74
     0
 42
0.0000000001
 43
0.0000000001
 40
0.0
 40
0.0
 40
0.0
 40
0.0
 40
1.0
 40
1.0
 40
1.0
 40
2.0
 40
2.0
 40
2.0
 40
3.0
 40
3.0
 40
3.0
 40
4.0
 40
4.0
 40
4.0
 40
5.0
 40
5.0
 40
5.0
 40
6.0
 40
6.0
 40
6.0
 40
7.0
 40
7.0
 40
7.0
 40
8.0
 40
8.0
 40
8.0
 40
9.0
 40
9.0
 40
9.0
 40
10.0
 40
10.0
 40
10.0
 40
10.0
 10
5.159168292981041
 20
3.274873317323642
 30
0.0
 10
5.159168292981041
 20
3.274873317323642
 30
0.0
 10
6.138023273205077
 20
3.274873317323642
 30
0.0
 10
6.138023273205077
 20
3.274873317323642
 30
0.0
 10
6.162621254969761
 20
3.280109862461222
 30
0.0
 10
6.179054360434403
 20
3.294441459679862
 30
0.0
 10
6.192765840465697
 20
3.32227783120068
 30
0.0
 10
6.269901528380441
 20
3.478891871960138
 30
0.0
 10
6.271279566574541
 20
3.633232149699331
 30
0.0
 10
6.194074976750092
 20
3.7907074643301
 30
0.0
 10
6.171991914689641
 20
3.835803764232021
 30
0.0
 10
6.13916015471521
 20
3.876455890957969
 30
0.0
 10
6.126964516697425
 20
3.926306422629534
 30
0.0
 10
6.126964516697425
 20
3.926306422629534
 30
0.0
 10
5.303207735219337
 20
3.926306422629534
 30
0.0
 10
5.303207735219337
 20
3.926306422629534
 30
0.0
 10
5.299590384959824
 20
3.925927462126157
 30
0.0
 10
5.296076387564869
 20
3.925927462126157
 30
0.0
 10
5.292596841124767
 20
3.926306422629534
 30
0.0
 10
5.292596841124767
 20
3.926306422629534
 30
0.0
 10
5.22631320398856
 20
3.926306422629534
 30
0.0
 10
5.22631320398856
 20
3.926306422629534
 30
0.0
 10
5.18300835373897
 20
3.913628471243815
 30
0.0
 10
5.158617077703401
 20
3.873010795472719
 30
0.0
 10
5.131469725279632
 20
3.825468477776271
 30
0.0
 10
5.038624401952149
 20
3.662791068962774
 30
0.0
 10
5.029839408464762
 20
3.50097493402059
 30
0.0
 10
5.104391274765568
 20
3.331200628507478
 30
0.0
 10
5.117344833790108
 20
3.301607258289181
 30
0.0
 10
5.132882214428585
 20
3.281660155429585
 30
0.0
 10
5.159168292981041
 20
3.274873317323642
 30
0.0
  0
HATCH
  5
8B
330
86
100
AcDbEntity
  8
Layer 1
 62
     7
100
AcDbHatch
 10
0.0
 20
0.0
 30
0.0
210
0.0
220
0.0
230
1.0
  2
SOLID
 70
     1
 71
     0
 91
        1
 92
        1
 93
        1
 72
     4
 94
        3
 73
     0
 74
     1
 95
       35
 96
       31
 40
0.0
 40
0.0
 40
0.0
 40
0.0
 40
1.0
 40
1.0
 40
1.0
 40
2.0
 40
2.0
 40
2.0
 40
3.0
 40
3.0
 40
3.0
 40
4.0
 40
4.0
 40
4.0
 40
5.0
 40
5.0
 40
5.0
 40
6.0
 40
6.0
 40
6.0
 40
7.0
 40
7.0
 40
7.0
 40
8.0
 40
8.0
 40
8.0
 40
9.0
 40
9.0
 40
9.0
 40
10.0
 40
10.0
 40
10.0
 40
10.0
 10
5.159168292981041
 20
3.274873317323642
 10
5.159168292981041
 20
3.274873317323642
 10
6.138023273205077
 20
3.274873317323642
 10
6.138023273205077
 20
3.274873317323642
 10
6.162621254969761
 20
3.280109862461222
 10
6.179054360434403
 20
3.294441459679862
 10
6.192765840465697
 20
3.32227783120068
 10
6.269901528380441
 20
3.478891871960138
 10
6.271279566574541
 20
3.633232149699331
 10
6.194074976750092
 20
3.7907074643301
 10
6.171991914689641
 20
3.835803764232021
 10
6.13916015471521
 20
3.876455890957969
 10
6.126964516697425
 20
3.926306422629534
 10
6.126964516697425
 20
3.926306422629534
 10
5.303207735219337
 20
3.926306422629534
 10
5.303207735219337
 20
3.926306422629534
 10
5.299590384959824
 20
3.925927462126157
 10
5.296076387564869
 20
3.925927462126157
 10
5.292596841124767
 20
3.926306422629534
 10
5.292596841124767
 20
3.926306422629534
 10
5.22631320398856
 20
3.926306422629534
 10
5.22631320398856
 20
3.926306422629534
 10
5.18300835373897
 20
3.913628471243815
 10
5.158617077703401
 20
3.873010795472719
 10
5.131469725279632
 20
3.825468477776271
 10
5.038624401952149
 20
3.662791068962774
 10
5.029839408464762
 20
3.50097493402059
 10
5.104391274765568
 20
3.331200628507478
 10
5.117344833790108
 20
3.301607258289181
 10
5.132882214428585
 20
3.281660155429585
 10
5.159168292981041
 20
3.274873317323642
 97
        0
 75
     0
 76
     1
 98
        0
  0
SPLINE
  5
8C
330
86
100
AcDbEntity
  8
Layer 1
370
     0
100
AcDbSpline
210
0.0
220
0.0
230
1.0
 70
    11
 71
     3
 72
    32
 73
    28
 74
     0
 42
0.0000000001
 43
0.0000000001
 40
0.0
 40
0.0
 40
0.0
 40
0.0
 40
1.0
 40
1.0
 40
1.0
 40
2.0
 40
2.0
 40
2.0
 40
3.0
 40
3.0
 40
3.0
 40
4.0
 40
4.0
 40
4.0
 40
5.0
 40
5.0
 40
5.0
 40
6.0
 40
6.0
 40
6.0
 40
7.0
 40
7.0
 40
7.0
 40
8.0
 40
8.0
 40
8.0
 40
9.0
 40
9.0
 40
9.0
 40
9.0
 10
6.150150009313156
 20
3.254857312554341
 30
0.0
 10
6.150150009313156
 20
3.254857312554341
 30
0.0
 10
5.447281628412485
 20
3.254857312554341
 30
0.0
 10
5.447281628412485
 20
3.254857312554341
 30
0.0
 10
5.427989093695086
 20
3.253203666721421
 30
0.0
 10
5.408110892745194
 20
3.252066785211289
 30
0.0
 10
5.388232691795302
 20
3.254857312554341
 30
0.0
 10
5.388232691795302
 20
3.254857312554341
 30
0.0
 10
5.167608776919903
 20
3.254857312554341
 30
0.0
 10
5.167608776919903
 20
3.254857312554341
 30
0.0
 10
5.110041231361378
 20
3.246795789118857
 30
0.0
 10
5.087269150203877
 20
3.221164278708597
 30
0.0
 10
5.08013780254941
 20
3.156293130721343
 30
0.0
 10
5.07614149178652
 20
3.119465059984023
 30
0.0
 10
5.084823132409349
 20
3.103617620751873
 30
0.0
 10
5.127680120245858
 20
3.103962130300398
 30
0.0
 10
5.346099174010697
 20
3.105856932817285
 30
0.0
 10
5.564587129685242
 20
3.103858777435841
 30
0.0
 10
5.783075085359786
 20
3.103720973616431
 30
0.0
 10
5.914712183851183
 20
3.103583169797021
 30
0.0
 10
6.046418184252284
 20
3.104168836029513
 30
0.0
 10
6.178020831788828
 20
3.104754502262006
 30
0.0
 10
6.195487465899045
 20
3.104788953216858
 30
0.0
 10
6.214780000616443
 20
3.098760036117671
 30
0.0
 10
6.2203955062574
 20
3.127285426735539
 30
0.0
 10
6.230730792713151
 20
3.179926485750157
 30
0.0
 10
6.198174640377539
 20
3.238458658044552
 30
0.0
 10
6.150150009313156
 20
3.254857312554341
 30
0.0
  0
HATCH
  5
8D
330
86
100
AcDbEntity
  8
Layer 1
 62
     7
100
AcDbHatch
 10
0.0
 20
0.0
 30
0.0
210
0.0
220
0.0
230
1.0
  2
SOLID
 70
     1
 71
     0
 91
        1
 92
        1
 93
        1
 72
     4
 94
        3
 73
     0
 74
     1
 95
       32
 96
       28
 40
0.0
 40
0.0
 40
0.0
 40
0.0
 40
1.0
 40
1.0
 40
1.0
 40
2.0
 40
2.0
 40
2.0
 40
3.0
 40
3.0
 40
3.0
 40
4.0
 40
4.0
 40
4.0
 40
5.0
 40
5.0
 40
5.0
 40
6.0
 40
6.0
 40
6.0
 40
7.0
 40
7.0
 40
7.0
 40
8.0
 40
8.0
 40
8.0
 40
9.0
 40
9.0
 40
9.0
 40
9.0
 10
6.150150009313156
 20
3.254857312554341
 10
6.150150009313156
 20
3.254857312554341
 10
5.447281628412485
 20
3.254857312554341
 10
5.447281628412485
 20
3.254857312554341
 10
5.427989093695086
 20
3.253203666721421
 10
5.408110892745194
 20
3.252066785211289
 10
5.388232691795302
 20
3.254857312554341
 10
5.388232691795302
 20
3.254857312554341
 10
5.167608776919903
 20
3.254857312554341
 10
5.167608776919903
 20
3.254857312554341
 10
5.110041231361378
 20
3.246795789118857
 10
5.087269150203877
 20
3.221164278708597
 10
5.08013780254941
 20
3.156293130721343
 10
5.07614149178652
 20
3.119465059984023
 10
5.084823132409349
 20
3.103617620751873
 10
5.127680120245858
 20
3.103962130300398
 10
5.346099174010697
 20
3.105856932817285
 10
5.564587129685242
 20
3.103858777435841
 10
5.783075085359786
 20
3.103720973616431
 10
5.914712183851183
 20
3.103583169797021
 10
6.046418184252284
 20
3.104168836029513
 10
6.178020831788828
 20
3.104754502262006
 10
6.195487465899045
 20
3.104788953216858
 10
6.214780000616443
 20
3.098760036117671
 10
6.2203955062574
 20
3.127285426735539
 10
6.230730792713151
 20
3.179926485750157
 10
6.198174640377539
 20
3.238458658044552
 10
6.150150009313156
 20
3.254857312554341
 97
        0
 75
     0
 76
     1
 98
        0
  0
ENDBLK
  5
89
330
86
100
AcDbEntity
  8
0
100
AcDbBlockEnd
  0
BLOCK
  5
94
330
92
100
AcDbEntity
  8
0
100
AcDbBlockBegin
  2
block 10
 70
     0
 71
     0
 10
0.0
 20
0.0
 30
0.0
  3
block 10
  1

  0
SPLINE
  5
96
330
92
100
AcDbEntity
  8
Layer 1
370
     0
100
AcDbSpline
210
0.0
220
0.0
230
1.0
 70
    11
 71
     3
 72
    29
 73
    25
 74
     0
 42
0.0000000001
 43
0.0000000001
 40
0.0
 40
0.0
 40
0.0
 40
0.0
 40
1.0
 40
1.0
 40
1.0
 40
2.0
 40
2.0
 40
2.0
 40
3.0
 40
3.0
 40
3.0
 40
4.0
 40
4.0
 40
4.0
 40
5.0
 40
5.0
 40
5.0
 40
6.0
 40
6.0
 40
6.0
 40
7.0
 40
7.0
 40
7.0
 40
8.0
 40
8.0
 40
8.0
 40
8.0
 10
0.3440272351570487
 20
3.247347004396496
 30
0.0
 10
0.3440272351570487
 20
3.247347004396496
 30
0.0
 10
1.336610920889806
 20
3.247347004396496
 30
0.0
 10
1.336610920889806
 20
3.247347004396496
 30
0.0
 10
1.363551567584459
 20
3.262884385034973
 30
0.0
 10
1.376884087112376
 20
3.294441459679862
 30
0.0
 10
1.389940999001473
 20
3.327135415834883
 30
0.0
 10
1.432677408495997
 20
3.433761121103365
 30
0.0
 10
1.418621418916178
 20
3.538388670990403
 30
0.0
 10
1.376711832338114
 20
3.640432399263503
 30
0.0
 10
1.355335014852138
 20
3.692487792045628
 30
0.0
 10
1.333441433043376
 20
3.745680066337885
 30
0.0
 10
1.290670572593999
 20
3.785505370147373
 30
0.0
 10
1.290670572593999
 20
3.785505370147373
 30
0.0
 10
0.3887790255104441
 20
3.785505370147373
 30
0.0
 10
0.3887790255104441
 20
3.785505370147373
 30
0.0
 10
0.3856439886188667
 20
3.783713920495043
 30
0.0
 10
0.3826984319789781
 20
3.781336804610221
 30
0.0
 10
0.3800973848876145
 20
3.777891709124971
 30
0.0
 10
0.2815848794868954
 20
3.646805825911215
 30
0.0
 10
0.2182640244680034
 20
3.507348360668301
 30
0.0
 10
0.2785359699824493
 20
3.339468857672077
 30
0.0
 10
0.2995855033973258
 20
3.280867783467977
 30
0.0
 10
0.3119361707119465
 20
3.256855467935786
 30
0.0
 10
0.3440272351570487
 20
3.247347004396496
 30
0.0
  0
HATCH
  5
97
330
92
100
AcDbEntity
  8
Layer 1
 62
     7
100
AcDbHatch
 10
0.0
 20
0.0
 30
0.0
210
0.0
220
0.0
230
1.0
  2
SOLID
 70
     1
 71
     0
 91
        1
 92
        1
 93
        1
 72
     4
 94
        3
 73
     0
 74
     1
 95
       29
 96
       25
 40
0.0
 40
0.0
 40
0.0
 40
0.0
 40
1.0
 40
1.0
 40
1.0
 40
2.0
 40
2.0
 40
2.0
 40
3.0
 40
3.0
 40
3.0
 40
4.0
 40
4.0
 40
4.0
 40
5.0
 40
5.0
 40
5.0
 40
6.0
 40
6.0
 40
6.0
 40
7.0
 40
7.0
 40
7.0
 40
8.0
 40
8.0
 40
8.0
 40
8.0
 10
0.3440272351570487
 20
3.247347004396496
 10
0.3440272351570487
 20
3.247347004396496
 10
1.336610920889806
 20
3.247347004396496
 10
1.336610920889806
 20
3.247347004396496
 10
1.363551567584459
 20
3.262884385034973
 10
1.376884087112376
 20
3.294441459679862
 10
1.389940999001473
 20
3.327135415834883
 10
1.432677408495997
 20
3.433761121103365
 10
1.418621418916178
 20
3.538388670990403
 10
1.376711832338114
 20
3.640432399263503
 10
1.355335014852138
 20
3.692487792045628
 10
1.333441433043376
 20
3.745680066337885
 10
1.290670572593999
 20
3.785505370147373
 10
1.290670572593999
 20
3.785505370147373
 10
0.3887790255104441
 20
3.785505370147373
 10
0.3887790255104441
 20
3.785505370147373
 10
0.3856439886188667
 20
3.783713920495043
 10
0.3826984319789781
 20
3.781336804610221
 10
0.3800973848876145
 20
3.777891709124971
 10
0.2815848794868954
 20
3.646805825911215
 10
0.2182640244680034
 20
3.507348360668301
 10
0.2785359699824493
 20
3.339468857672077
 10
0.2995855033973258
 20
3.280867783467977
 10
0.3119361707119465
 20
3.256855467935786
 10
0.3440272351570487
 20
3.247347004396496
 97
        0
 75
     0
 76
     1
 98
        0
  0
SPLINE
  5
98
330
92
100
AcDbEntity
  8
Layer 1
370
     0
100
AcDbSpline
210
0.0
220
0.0
230
1.0
 70
    11
 71
     3
 72
    26
 73
    22
 74
     0
 42
0.0000000001
 43
0.0000000001
 40
0.0
 40
0.0
 40
0.0
 40
0.0
 40
1.0
 40
1.0
 40
1.0
 40
2.0
 40
2.0
 40
2.0
 40
3.0
 40
3.0
 40
3.0
 40
4.0
 40
4.0
 40
4.0
 40
5.0
 40
5.0
 40
5.0
 40
6.0
 40
6.0
 40
6.0
 40
7.0
 40
7.0
 40
7.0
 40
7.0
 10
1.339263644413448
 20
3.227365450582047
 30
0.0
 10
1.339263644413448
 20
3.227365450582047
 30
0.0
 10
0.3251997883301584
 20
3.227365450582047
 30
0.0
 10
0.3251997883301584
 20
3.227365450582047
 30
0.0
 10
0.2885267468896738
 20
3.215445420203083
 30
0.0
 10
0.2673049587005348
 20
3.178824055194877
 30
0.0
 10
0.2716630044893759
 20
3.132900932376497
 30
0.0
 10
0.2765205891235782
 20
3.081258951052602
 30
0.0
 10
0.3184818521339212
 20
3.104995658945973
 30
0.0
 10
0.3412022568591438
 20
3.104720051307153
 30
0.0
 10
0.5451691350633604
 20
3.102342935422331
 30
0.0
 10
0.7491876896998558
 20
3.103583169797021
 30
0.0
 10
0.9531545679040724
 20
3.103789875526135
 30
0.0
 10
1.089942084145917
 20
3.103858777435841
 30
0.0
 10
1.226764051342614
 20
3.104961207991121
 30
0.0
 10
1.363551567584459
 20
3.103789875526135
 30
0.0
 10
1.39762356193358
 20
3.103445365977611
 30
0.0
 10
1.404858262452605
 20
3.115089788717755
 30
0.0
 10
1.397916395049826
 20
3.146784667182053
 30
0.0
 10
1.387977294574881
 20
3.192259927587351
 30
0.0
 10
1.374179687156455
 20
3.214963106835148
 30
0.0
 10
1.339263644413448
 20
3.227365450582047
 30
0.0
  0
HATCH
  5
99
330
92
100
AcDbEntity
  8
Layer 1
 62
     7
100
AcDbHatch
 10
0.0
 20
0.0
 30
0.0
210
0.0
220
0.0
230
1.0
  2
SOLID
 70
     1
 71
     0
 91
        1
 92
        1
 93
        1
 72
     4
 94
        3
 73
     0
 74
     1
 95
       26
 96
       22
 40
0.0
 40
0.0
 40
0.0
 40
0.0
 40
1.0
 40
1.0
 40
1.0
 40
2.0
 40
2.0
 40
2.0
 40
3.0
 40
3.0
 40
3.0
 40
4.0
 40
4.0
 40
4.0
 40
5.0
 40
5.0
 40
5.0
 40
6.0
 40
6.0
 40
6.0
 40
7.0
 40
7.0
 40
7.0
 40
7.0
 10
1.339263644413448
 20
3.227365450582047
 10
1.339263644413448
 20
3.227365450582047
 10
0.3251997883301584
 20
3.227365450582047
 10
0.3251997883301584
 20
3.227365450582047
 10
0.2885267468896738
 20
3.215445420203083
 10
0.2673049587005348
 20
3.178824055194877
 10
0.2716630044893759
 20
3.132900932376497
 10
0.2765205891235782
 20
3.081258951052602
 10
0.3184818521339212
 20
3.104995658945973
 10
0.3412022568591438
 20
3.104720051307153
 10
0.5451691350633604
 20
3.102342935422331
 10
0.7491876896998558
 20
3.103583169797021
 10
0.9531545679040724
 20
3.103789875526135
 10
1.089942084145917
 20
3.103858777435841
 10
1.226764051342614
 20
3.104961207991121
 10
1.363551567584459
 20
3.103789875526135
 10
1.39762356193358
 20
3.103445365977611
 10
1.404858262452605
 20
3.115089788717755
 10
1.397916395049826
 20
3.146784667182053
 10
1.387977294574881
 20
3.192259927587351
 10
1.374179687156455
 20
3.214963106835148
 10
1.339263644413448
 20
3.227365450582047
 97
        0
 75
     0
 76
     1
 98
        0
  0
ENDBLK
  5
95
330
92
100
AcDbEntity
  8
0
100
AcDbBlockEnd
  0
BLOCK
  5
A0
330
9E
100
AcDbEntity
  8
0
100
AcDbBlockBegin
  2
block 11
 70
     0
 71
     0
 10
0.0
 20
0.0
 30
0.0
  3
block 11
  1

  0
SPLINE
  5
A2
330
9E
100
AcDbEntity
  8
Layer 1
370
     0
100
AcDbSpline
210
0.0
220
0.0
230
1.0
 70
    11
 71
     3
 72
    47
 73
    43
 74
     0
 42
0.0000000001
 43
0.0000000001
 40
0.0
 40
0.0
 40
0.0
 40
0.0
 40
1.0
 40
1.0
 40
1.0
 40
2.0
 40
2.0
 40
2.0
 40
3.0
 40
3.0
 40
3.0
 40
4.0
 40
4.0
 40
4.0
 40
5.0
 40
5.0
 40
5.0
 40
6.0
 40
6.0
 40
6.0
 40
7.0
 40
7.0
 40
7.0
 40
8.0
 40
8.0
 40
8.0
 40
9.0
 40
9.0
 40
9.0
 40
10.0
 40
10.0
 40
10.0
 40
11.0
 40
11.0
 40
11.0
 40
12.0
 40
12.0
 40
12.0
 40
13.0
 40
13.0
 40
13.0
 40
14.0
 40
14.0
 40
14.0
 40
14.0
 10
6.063815916452795
 20
4.162398816233705
 30
0.0
 10
5.997222220722916
 20
4.299375812727239
 30
0.0
 10
5.940447047125999
 20
4.439591198976907
 30
0.0
 10
5.898279078386541
 20
4.58676567810678
 30
0.0
 10
5.879847817540455
 20
4.65101670890669
 30
0.0
 10
5.879744464675897
 20
4.718471678507882
 30
0.0
 10
5.85621446251164
 20
4.785616589515401
 30
0.0
 10
5.85621446251164
 20
4.785616589515401
 30
0.0
 10
5.786589082754741
 20
4.785616589515401
 30
0.0
 10
5.786589082754741
 20
4.785616589515401
 30
0.0
 10
5.759062769827595
 20
4.784651962779531
 30
0.0
 10
5.731536456900449
 20
4.784824217553793
 30
0.0
 10
5.704010143973303
 20
4.785616589515401
 30
0.0
 10
5.704010143973303
 20
4.785616589515401
 30
0.0
 10
5.582329371434279
 20
4.785616589515401
 30
0.0
 10
5.582329371434279
 20
4.785616589515401
 30
0.0
 10
5.56234781761983
 20
4.782722709307791
 30
0.0
 10
5.54195285234715
 20
4.784479708005269
 30
0.0
 10
5.521695690893881
 20
4.785616589515401
 30
0.0
 10
5.521695690893881
 20
4.785616589515401
 30
0.0
 10
5.491792262081913
 20
4.785616589515401
 30
0.0
 10
5.491792262081913
 20
4.785616589515401
 30
0.0
 10
5.470983885351004
 20
4.783101669811169
 30
0.0
 10
5.460235187437024
 20
4.772352971897189
 30
0.0
 10
5.458753796378367
 20
4.743000758362861
 30
0.0
 10
5.455722112351347
 20
4.683641763152006
 30
0.0
 10
5.442734102371955
 20
4.625178492767316
 30
0.0
 10
5.425543075900558
 20
4.568058809621874
 30
0.0
 10
5.380791285547163
 20
4.418851724155703
 30
0.0
 10
5.323740504311425
 20
4.274398870459177
 30
0.0
 10
5.254011771689969
 20
4.135010307125969
 30
0.0
 10
5.24174723176248
 20
4.110412325361286
 30
0.0
 10
5.23127414148732
 20
4.085607637867486
 30
0.0
 10
5.27154730770989
 20
4.084367403492797
 30
0.0
 10
5.346994898836862
 20
4.082024738562827
 30
0.0
 10
5.422580293783243
 20
4.084022893944272
 30
0.0
 10
5.49809678681992
 20
4.084401854447649
 30
0.0
 10
5.669938149624182
 20
4.085400932138372
 30
0.0
 10
5.841779512428444
 20
4.088157008526571
 30
0.0
 10
6.013551973323001
 20
4.086813421287324
 30
0.0
 10
6.095717500646209
 20
4.086158853145126
 30
0.0
 10
6.099644909499394
 20
4.088777125713917
 30
0.0
 10
6.063815916452795
 20
4.162398816233705
 30
0.0
  0
HATCH
  5
A3
330
9E
100
AcDbEntity
  8
Layer 1
 62
     7
100
AcDbHatch
 10
0.0
 20
0.0
 30
0.0
210
0.0
220
0.0
230
1.0
  2
SOLID
 70
     1
 71
     0
 91
        1
 92
        1
 93
        1
 72
     4
 94
        3
 73
     0
 74
     1
 95
       47
 96
       43
 40
0.0
 40
0.0
 40
0.0
 40
0.0
 40
1.0
 40
1.0
 40
1.0
 40
2.0
 40
2.0
 40
2.0
 40
3.0
 40
3.0
 40
3.0
 40
4.0
 40
4.0
 40
4.0
 40
5.0
 40
5.0
 40
5.0
 40
6.0
 40
6.0
 40
6.0
 40
7.0
 40
7.0
 40
7.0
 40
8.0
 40
8.0
 40
8.0
 40
9.0
 40
9.0
 40
9.0
 40
10.0
 40
10.0
 40
10.0
 40
11.0
 40
11.0
 40
11.0
 40
12.0
 40
12.0
 40
12.0
 40
13.0
 40
13.0
 40
13.0
 40
14.0
 40
14.0
 40
14.0
 40
14.0
 10
6.063815916452795
 20
4.162398816233705
 10
5.997222220722916
 20
4.299375812727239
 10
5.940447047125999
 20
4.439591198976907
 10
5.898279078386541
 20
4.58676567810678
 10
5.879847817540455
 20
4.65101670890669
 10
5.879744464675897
 20
4.718471678507882
 10
5.85621446251164
 20
4.785616589515401
 10
5.85621446251164
 20
4.785616589515401
 10
5.786589082754741
 20
4.785616589515401
 10
5.786589082754741
 20
4.785616589515401
 10
5.759062769827595
 20
4.784651962779531
 10
5.731536456900449
 20
4.784824217553793
 10
5.704010143973303
 20
4.785616589515401
 10
5.704010143973303
 20
4.785616589515401
 10
5.582329371434279
 20
4.785616589515401
 10
5.582329371434279
 20
4.785616589515401
 10
5.56234781761983
 20
4.782722709307791
 10
5.54195285234715
 20
4.784479708005269
 10
5.521695690893881
 20
4.785616589515401
 10
5.521695690893881
 20
4.785616589515401
 10
5.491792262081913
 20
4.785616589515401
 10
5.491792262081913
 20
4.785616589515401
 10
5.470983885351004
 20
4.783101669811169
 10
5.460235187437024
 20
4.772352971897189
 10
5.458753796378367
 20
4.743000758362861
 10
5.455722112351347
 20
4.683641763152006
 10
5.442734102371955
 20
4.625178492767316
 10
5.425543075900558
 20
4.568058809621874
 10
5.380791285547163
 20
4.418851724155703
 10
5.323740504311425
 20
4.274398870459177
 10
5.254011771689969
 20
4.135010307125969
 10
5.24174723176248
 20
4.110412325361286
 10
5.23127414148732
 20
4.085607637867486
 10
5.27154730770989
 20
4.084367403492797
 10
5.346994898836862
 20
4.082024738562827
 10
5.422580293783243
 20
4.084022893944272
 10
5.49809678681992
 20
4.084401854447649
 10
5.669938149624182
 20
4.085400932138372
 10
5.841779512428444
 20
4.088157008526571
 10
6.013551973323001
 20
4.086813421287324
 10
6.095717500646209
 20
4.086158853145126
 10
6.099644909499394
 20
4.088777125713917
 10
6.063815916452795
 20
4.162398816233705
 97
        0
 75
     0
 76
     1
 98
        0
  0
SPLINE
  5
A4
330
9E
100
AcDbEntity
  8
Layer 1
370
     0
100
AcDbSpline
210
0.0
220
0.0
230
1.0
 70
    11
 71
     3
 72
    65
 73
    61
 74
     0
 42
0.0000000001
 43
0.0000000001
 40
0.0
 40
0.0
 40
0.0
 40
0.0
 40
1.0
 40
1.0
 40
1.0
 40
2.0
 40
2.0
 40
2.0
 40
3.0
 40
3.0
 40
3.0
 40
4.0
 40
4.0
 40
4.0
 40
5.0
 40
5.0
 40
5.0
 40
6.0
 40
6.0
 40
6.0
 40
7.0
 40
7.0
 40
7.0
 40
8.0
 40
8.0
 40
8.0
 40
9.0
 40
9.0
 40
9.0
 40
10.0
 40
10.0
 40
10.0
 40
11.0
 40
11.0
 40
11.0
 40
12.0
 40
12.0
 40
12.0
 40
13.0
 40
13.0
 40
13.0
 40
14.0
 40
14.0
 40
14.0
 40
15.0
 40
15.0
 40
15.0
 40
16.0
 40
16.0
 40
16.0
 40
17.0
 40
17.0
 40
17.0
 40
18.0
 40
18.0
 40
18.0
 40
19.0
 40
19.0
 40
19.0
 40
20.0
 40
20.0
 40
20.0
 40
20.0
 10
5.374486760809155
 20
4.805667045239555
 30
0.0
 10
5.374486760809155
 20
4.805667045239555
 30
0.0
 10
5.386200085459005
 20
4.805667045239555
 30
0.0
 10
5.386200085459005
 20
4.805667045239555
 30
0.0
 10
5.386200085459005
 20
4.805667045239555
 30
0.0
 10
5.424268390571016
 20
4.805667045239555
 30
0.0
 10
5.424268390571016
 20
4.805667045239555
 30
0.0
 10
5.424268390571016
 20
4.805667045239555
 30
0.0
 10
5.604205727765615
 20
4.805667045239555
 30
0.0
 10
5.604205727765615
 20
4.805667045239555
 30
0.0
 10
5.604205727765615
 20
4.805667045239555
 30
0.0
 10
5.848531899579533
 20
4.805667045239555
 30
0.0
 10
5.848531899579533
 20
4.805667045239555
 30
0.0
 10
5.848531899579533
 20
4.805667045239555
 30
0.0
 10
5.917606064058792
 20
4.805667045239555
 30
0.0
 10
5.917606064058792
 20
4.805667045239555
 30
0.0
 10
5.917606064058792
 20
4.805667045239555
 30
0.0
 10
5.951367999814241
 20
4.805667045239555
 30
0.0
 10
5.951367999814241
 20
4.805667045239555
 30
0.0
 10
5.951367999814241
 20
4.805667045239555
 30
0.0
 10
5.957362465958576
 20
4.805667045239555
 30
0.0
 10
5.957362465958576
 20
4.805667045239555
 30
0.0
 10
5.958223739829888
 20
4.805770398104112
 30
0.0
 10
5.95894720988179
 20
4.805977103833228
 30
0.0
 10
5.959774032798251
 20
4.806080456697785
 30
0.0
 10
6.0066617823525
 20
4.810352375099495
 30
0.0
 10
6.043352049270411
 20
4.849695365541048
 30
0.0
 10
6.043352049270411
 20
4.897685545650578
 30
0.0
 10
6.043352049270411
 20
4.948500704058014
 30
0.0
 10
6.002183158221676
 20
4.989686820584176
 30
0.0
 10
5.951367999814241
 20
4.989686820584176
 30
0.0
 10
5.951367999814241
 20
4.989686820584176
 30
0.0
 10
5.895901962501719
 20
4.989686820584176
 30
0.0
 10
5.895901962501719
 20
4.989686820584176
 30
0.0
 10
5.894386120488209
 20
4.99361422943736
 30
0.0
 10
5.893352591842634
 20
4.998557941458693
 30
0.0
 10
5.892904729429551
 20
5.004828015241849
 30
0.0
 10
5.888770614847251
 20
5.060965846173994
 30
0.0
 10
5.904514701214843
 20
5.117396510222386
 30
0.0
 10
5.888667261982694
 20
5.173241508038286
 30
0.0
 10
5.888667261982694
 20
5.173241508038286
 30
0.0
 10
5.446454805496025
 20
5.173241508038286
 30
0.0
 10
5.446454805496025
 20
5.173241508038286
 30
0.0
 10
5.431468640135188
 20
5.163250731131062
 30
0.0
 10
5.432329914006501
 20
5.147523870240897
 30
0.0
 10
5.432433266871058
 20
5.132244871763813
 30
0.0
 10
5.43260552164532
 20
5.102599825113239
 30
0.0
 10
5.432984482148698
 20
5.072937552985238
 30
0.0
 10
5.432984482148698
 20
5.043326957289515
 30
0.0
 10
5.432950031193846
 20
5.022484129603754
 30
0.0
 10
5.433053384058403
 20
5.003294947750912
 30
0.0
 10
5.423407116699703
 20
4.989686820584176
 30
0.0
 10
5.423407116699703
 20
4.989686820584176
 30
0.0
 10
5.374486760809155
 20
4.989686820584176
 30
0.0
 10
5.374486760809155
 20
4.989686820584176
 30
0.0
 10
5.323602700492016
 20
4.989686820584176
 30
0.0
 10
5.28243380944328
 20
4.948500704058014
 30
0.0
 10
5.28243380944328
 20
4.897685545650578
 30
0.0
 10
5.28243380944328
 20
4.846870387243143
 30
0.0
 10
5.323602700492016
 20
4.805667045239555
 30
0.0
 10
5.374486760809155
 20
4.805667045239555
 30
0.0
  0
HATCH
  5
A5
330
9E
100
AcDbEntity
  8
Layer 1
 62
     7
100
AcDbHatch
 10
0.0
 20
0.0
 30
0.0
210
0.0
220
0.0
230
1.0
  2
SOLID
 70
     1
 71
     0
 91
        1
 92
        1
 93
        1
 72
     4
 94
        3
 73
     0
 74
     1
 95
       65
 96
       61
 40
0.0
 40
0.0
 40
0.0
 40
0.0
 40
1.0
 40
1.0
 40
1.0
 40
2.0
 40
2.0
 40
2.0
 40
3.0
 40
3.0
 40
3.0
 40
4.0
 40
4.0
 40
4.0
 40
5.0
 40
5.0
 40
5.0
 40
6.0
 40
6.0
 40
6.0
 40
7.0
 40
7.0
 40
7.0
 40
8.0
 40
8.0
 40
8.0
 40
9.0
 40
9.0
 40
9.0
 40
10.0
 40
10.0
 40
10.0
 40
11.0
 40
11.0
 40
11.0
 40
12.0
 40
12.0
 40
12.0
 40
13.0
 40
13.0
 40
13.0
 40
14.0
 40
14.0
 40
14.0
 40
15.0
 40
15.0
 40
15.0
 40
16.0
 40
16.0
 40
16.0
 40
17.0
 40
17.0
 40
17.0
 40
18.0
 40
18.0
 40
18.0
 40
19.0
 40
19.0
 40
19.0
 40
20.0
 40
20.0
 40
20.0
 40
20.0
 10
5.374486760809155
 20
4.805667045239555
 10
5.374486760809155
 20
4.805667045239555
 10
5.386200085459005
 20
4.805667045239555
 10
5.386200085459005
 20
4.805667045239555
 10
5.386200085459005
 20
4.805667045239555
 10
5.424268390571016
 20
4.805667045239555
 10
5.424268390571016
 20
4.805667045239555
 10
5.424268390571016
 20
4.805667045239555
 10
5.604205727765615
 20
4.805667045239555
 10
5.604205727765615
 20
4.805667045239555
 10
5.604205727765615
 20
4.805667045239555
 10
5.848531899579533
 20
4.805667045239555
 10
5.848531899579533
 20
4.805667045239555
 10
5.848531899579533
 20
4.805667045239555
 10
5.917606064058792
 20
4.805667045239555
 10
5.917606064058792
 20
4.805667045239555
 10
5.917606064058792
 20
4.805667045239555
 10
5.951367999814241
 20
4.805667045239555
 10
5.951367999814241
 20
4.805667045239555
 10
5.951367999814241
 20
4.805667045239555
 10
5.957362465958576
 20
4.805667045239555
 10
5.957362465958576
 20
4.805667045239555
 10
5.958223739829888
 20
4.805770398104112
 10
5.95894720988179
 20
4.805977103833228
 10
5.959774032798251
 20
4.806080456697785
 10
6.0066617823525
 20
4.810352375099495
 10
6.043352049270411
 20
4.849695365541048
 10
6.043352049270411
 20
4.897685545650578
 10
6.043352049270411
 20
4.948500704058014
 10
6.002183158221676
 20
4.989686820584176
 10
5.951367999814241
 20
4.989686820584176
 10
5.951367999814241
 20
4.989686820584176
 10
5.895901962501719
 20
4.989686820584176
 10
5.895901962501719
 20
4.989686820584176
 10
5.894386120488209
 20
4.99361422943736
 10
5.893352591842634
 20
4.998557941458693
 10
5.892904729429551
 20
5.004828015241849
 10
5.888770614847251
 20
5.060965846173994
 10
5.904514701214843
 20
5.117396510222386
 10
5.888667261982694
 20
5.173241508038286
 10
5.888667261982694
 20
5.173241508038286
 10
5.446454805496025
 20
5.173241508038286
 10
5.446454805496025
 20
5.173241508038286
 10
5.431468640135188
 20
5.163250731131062
 10
5.432329914006501
 20
5.147523870240897
 10
5.432433266871058
 20
5.132244871763813
 10
5.43260552164532
 20
5.102599825113239
 10
5.432984482148698
 20
5.072937552985238
 10
5.432984482148698
 20
5.043326957289515
 10
5.432950031193846
 20
5.022484129603754
 10
5.433053384058403
 20
5.003294947750912
 10
5.423407116699703
 20
4.989686820584176
 10
5.423407116699703
 20
4.989686820584176
 10
5.374486760809155
 20
4.989686820584176
 10
5.374486760809155
 20
4.989686820584176
 10
5.323602700492016
 20
4.989686820584176
 10
5.28243380944328
 20
4.948500704058014
 10
5.28243380944328
 20
4.897685545650578
 10
5.28243380944328
 20
4.846870387243143
 10
5.323602700492016
 20
4.805667045239555
 10
5.374486760809155
 20
4.805667045239555
 97
        0
 75
     0
 76
     1
 98
        0
  0
ENDBLK
  5
A1
330
9E
100
AcDbEntity
  8
0
100
AcDbBlockEnd
  0
ENDSEC
  0
SECTION
  2
ENTITIES
  0
INSERT
  5
3D
330
1F
100
AcDbEntity
  8
Layer 1
100
AcDbBlockReference
  2
block 2
 10
0.0
 20
0.0
 30
0.0
  0
ENDSEC
  0
SECTION
  2
OBJECTS
  0
DICTIONARY
  5
C
330
0
100
AcDbDictionary
281
     1
  3
ACAD_GROUP
350
D
  3
ACAD_LAYOUT
350
1A
  3
ACAD_MLINESTYLE
350
17
  3
ACAD_PLOTSETTINGS
350
19
  3
ACAD_PLOTSTYLENAME
350
E
  3
ACAD_TABLESTYLE
350
A6
  3
ACAD_VISUALSTYLE
350
2A
  0
DICTIONARY
  5
D
102
{ACAD_REACTORS
330
C
102
}
330
C
100
AcDbDictionary
281
     1
  0
DICTIONARY
  5
1A
102
{ACAD_REACTORS
330
C
102
}
330
C
100
AcDbDictionary
281
     1
  3
Layout1
350
1E
  3
Layout2
350
26
  3
Model
350
22
  0
DICTIONARY
  5
17
102
{ACAD_REACTORS
330
C
102
}
330
C
100
AcDbDictionary
281
     1
  3
Standard
350
18
  0
DICTIONARY
  5
19
102
{ACAD_REACTORS
330
C
102
}
330
C
100
AcDbDictionary
281
     1
  0
ACDBDICTIONARYWDFLT
  5
E
102
{ACAD_REACTORS
330
C
102
}
330
C
100
AcDbDictionary
281
     1
  3
Normal
350
F
100
AcDbDictionaryWithDefault
340
F
  0
DICTIONARY
  5
A6
102
{ACAD_REACTORS
330
C
102
}
330
C
100
AcDbDictionary
281
     1
  0
DICTIONARY
  5
2A
102
{ACAD_REACTORS
330
C
102
}
330
C
100
AcDbDictionary
281
     1
  3
2dWireframe
350
2F
  3
3D Hidden
350
31
  3
3dWireframe
350
30
  3
Basic
350
32
  3
Brighten
350
36
  3
ColorChange
350
3A
  3
Conceptual
350
34
  3
Dim
350
35
  3
Facepattern
350
39
  3
Flat
350
2B
  3
FlatWithEdges
350
2C
  3
Gouraud
350
2D
  3
GouraudWithEdges
350
2E
  3
Linepattern
350
38
  3
Realistic
350
33
  3
Thicken
350
37
  0
LAYOUT
  5
1E
102
{ACAD_REACTORS
330
1A
102
}
330
1A
100
AcDbPlotSettings
  1

  2
none_device
  4

  6

 40
0.0
 41
0.0
 42
0.0
 43
0.0
 44
0.0
 45
0.0
 46
0.0
 47
0.0
 48
0.0
 49
0.0
140
0.0
141
0.0
142
1.0
143
1.0
 70
   688
 72
     0
 73
     0
 74
     5
  7

 75
    16
147
1.0
148
0.0
149
0.0
100
AcDbLayout
  1
Layout1
 70
     1
 71
     1
 10
0.0
 20
0.0
 11
12.0
 21
9.0
 12
0.0
 22
0.0
 32
0.0
 14
1.000000000000000E+20
 24
1.000000000000000E+20
 34
1.000000000000000E+20
 15
-1.000000000000000E+20
 25
-1.000000000000000E+20
 35
-1.000000000000000E+20
146
0.0
 13
0.0
 23
0.0
 33
0.0
 16
1.0
 26
0.0
 36
0.0
 17
0.0
 27
1.0
 37
0.0
 76
     0
330
1B
  0
LAYOUT
  5
26
102
{ACAD_REACTORS
330
1A
102
}
330
1A
100
AcDbPlotSettings
  1

  2
none_device
  4

  6

 40
0.0
 41
0.0
 42
0.0
 43
0.0
 44
0.0
 45
0.0
 46
0.0
 47
0.0
 48
0.0
 49
0.0
140
0.0
141
0.0
142
1.0
143
1.0
 70
   688
 72
     0
 73
     0
 74
     5
  7

 75
    16
147
1.0
148
0.0
149
0.0
100
AcDbLayout
  1
Layout2
 70
     1
 71
     2
 10
0.0
 20
0.0
 11
0.0
 21
0.0
 12
0.0
 22
0.0
 32
0.0
 14
0.0
 24
0.0
 34
0.0
 15
0.0
 25
0.0
 35
0.0
146
0.0
 13
0.0
 23
0.0
 33
0.0
 16
1.0
 26
0.0
 36
0.0
 17
0.0
 27
1.0
 37
0.0
 76
     0
330
23
  0
LAYOUT
  5
22
102
{ACAD_REACTORS
330
1A
102
}
330
1A
100
AcDbPlotSettings
  1

  2
none_device
  4

  6

 40
0.0
 41
0.0
 42
0.0
 43
0.0
 44
0.0
 45
0.0
 46
0.0
 47
0.0
 48
0.0
 49
0.0
140
0.0
141
0.0
142
1.0
143
1.0
 70
  1712
 72
     0
 73
     0
 74
     0
  7

 75
     0
147
1.0
148
0.0
149
0.0
100
AcDbLayout
  1
Model
 70
     1
 71
     0
 10
0.0
 20
0.0
 11
12.0
 21
9.0
 12
0.0
 22
0.0
 32
0.0
 14
1.000000000000000E+20
 24
1.000000000000000E+20
 34
1.000000000000000E+20
 15
-1.000000000000000E+20
 25
-1.000000000000000E+20
 35
-1.000000000000000E+20
146
0.0
 13
0.0
 23
0.0
 33
0.0
 16
1.0
 26
0.0
 36
0.0
 17
0.0
 27
1.0
 37
0.0
 76
     0
330
1F
331
29
  0
MLINESTYLE
  5
18
102
{ACAD_REACTORS
330
17
102
}
330
17
100
AcDbMlineStyle
  2
Standard
 70
     0
  3

 62
   256
 51
90.0
 52
90.0
 71
     2
 49
0.5
 62
   256
  6
BYLAYER
 49
-0.5
 62
   256
  6
BYLAYER
  0
ACDBPLACEHOLDER
  5
F
102
{ACAD_REACTORS
330
E
102
}
330
E
  0
VISUALSTYLE
  5
2F
102
{ACAD_REACTORS
330
2A
102
}
330
2A
100
AcDbVisualStyle
  2
2dWireframe
 70
     4
 71
     0
 72
     2
 73
     0
 90
        0
 40
-0.6
 41
-30.0
 62
     5
 63
     7
 74
     1
 91
        4
 64
     7
 65
   257
 75
     1
175
     1
 42
1.0
 92
        0
 66
   257
 43
1.0
 76
     1
 77
     6
 78
     2
 67
     7
 79
     5
170
     0
171
     0
290
     0
174
     0
 93
        1
 44
0.0
173
     0
291
     0
 45
0.0
1001
ACAD
1000
AcDbSavedByObjectVersion
1070
     0
  0
VISUALSTYLE
  5
31
102
{ACAD_REACTORS
330
2A
102
}
330
2A
100
AcDbVisualStyle
  2
3D Hidden
 70
     6
 71
     1
 72
     2
 73
     2
 90
        0
 40
-0.6
 41
-30.0
 62
     5
 63
     7
 74
     2
 91
        2
 64
     7
 65
   257
 75
     2
175
     1
 42
40.0
 92
        0
 66
   257
 43
1.0
 76
     1
 77
     6
 78
     2
 67
     7
 79
     3
170
     0
171
     0
290
     0
174
     0
 93
        1
 44
0.0
173
     0
291
     0
 45
0.0
1001
ACAD
1000
AcDbSavedByObjectVersion
1070
     0
  0
VISUALSTYLE
  5
30
102
{ACAD_REACTORS
330
2A
102
}
330
2A
100
AcDbVisualStyle
  2
3dWireframe
 70
     5
 71
     0
 72
     2
 73
     0
 90
        0
 40
-0.6
 41
-30.0
 62
     5
 63
     7
 74
     1
 91
        4
 64
     7
 65
   257
 75
     1
175
     1
 42
1.0
 92
        0
 66
   257
 43
1.0
 76
     1
 77
     6
 78
     2
 67
     7
 79
     5
170
     0
171
     0
290
     0
174
     0
 93
        1
 44
0.0
173
     0
291
     0
 45
0.0
1001
ACAD
1000
AcDbSavedByObjectVersion
1070
     0
  0
VISUALSTYLE
  5
32
102
{ACAD_REACTORS
330
2A
102
}
330
2A
100
AcDbVisualStyle
  2
Basic
 70
     7
 71
     1
 72
     0
 73
     1
 90
        0
 40
-0.6
 41
-30.0
 62
     5
 63
     7
 74
     0
 91
        4
 64
     7
 65
   257
 75
     1
175
     1
 42
1.0
 92
        8
 66
     7
 43
1.0
 76
     1
 77
     6
 78
     2
 67
     7
 79
     5
170
     0
171
     0
290
     0
174
     0
 93
        1
 44
0.0
173
     0
291
     1
 45
0.0
1001
ACAD
1000
AcDbSavedByObjectVersion
1070
     0
  0
VISUALSTYLE
  5
36
102
{ACAD_REACTORS
330
2A
102
}
330
2A
100
AcDbVisualStyle
  2
Brighten
 70
    12
 71
     2
 72
     2
 73
     0
 90
        0
 40
-0.6
 41
-30.0
 62
     5
 63
     7
 74
     1
 91
        4
 64
     7
 65
   257
 75
     1
175
     1
 42
1.0
 92
        8
 66
     7
 43
1.0
 76
     1
 77
     6
 78
     2
 67
     7
 79
     5
170
     0
171
     0
290
     0
174
     0
 93
        1
 44
50.0
173
     0
291
     1
 45
0.0
1001
ACAD
1000
AcDbSavedByObjectVersion
1070
     0
  0
VISUALSTYLE
  5
3A
102
{ACAD_REACTORS
330
2A
102
}
330
2A
100
AcDbVisualStyle
  2
ColorChange
 70
    16
 71
     2
 72
     2
 73
     3
 90
        0
 40
-0.6
 41
-30.0
 62
     5
 63
     8
 74
     1
 91
        4
 64
     7
 65
   257
 75
     1
175
     1
 42
1.0
 92
        8
 66
     8
 43
1.0
 76
     1
 77
     6
 78
     2
 67
     7
 79
     5
170
     0
171
     0
290
     0
174
     0
 93
        1
 44
0.0
173
     0
291
     1
 45
0.0
1001
ACAD
1000
AcDbSavedByObjectVersion
1070
     0
  0
VISUALSTYLE
  5
34
102
{ACAD_REACTORS
330
2A
102
}
330
2A
100
AcDbVisualStyle
  2
Conceptual
 70
     9
 71
     3
 72
     2
 73
     0
 90
        0
 40
-0.6
 41
-30.0
 62
     5
 63
     7
 74
     2
 91
        2
 64
     7
 65
   257
 75
     1
175
     1
 42
40.0
 92
        8
 66
     7
 43
1.0
 76
     1
 77
     6
 78
     2
 67
     7
 79
     3
170
     0
171
     0
290
     0
174
     0
 93
        1
 44
0.0
173
     0
291
     0
 45
0.0
1001
ACAD
1000
AcDbSavedByObjectVersion
1070
     0
  0
VISUALSTYLE
  5
35
102
{ACAD_REACTORS
330
2A
102
}
330
2A
100
AcDbVisualStyle
  2
Dim
 70
    11
 71
     2
 72
     2
 73
     0
 90
        0
 40
-0.6
 41
-30.0
 62
     5
 63
     7
 74
     1
 91
        4
 64
     7
 65
   257
 75
     1
175
     1
 42
1.0
 92
        8
 66
     7
 43
1.0
 76
     1
 77
     6
 78
     2
 67
     7
 79
     5
170
     0
171
     0
290
     0
174
     0
 93
        1
 44
-50.0
173
     0
291
     1
 45
0.0
1001
ACAD
1000
AcDbSavedByObjectVersion
1070
     0
  0
VISUALSTYLE
  5
39
102
{ACAD_REACTORS
330
2A
102
}
330
2A
100
AcDbVisualStyle
  2
Facepattern
 70
    15
 71
     2
 72
     2
 73
     0
 90
        0
 40
-0.6
 41
-30.0
 62
     5
 63
     7
 74
     1
 91
        4
 64
     7
 65
   257
 75
     1
175
     1
 42
1.0
 92
        8
 66
     7
 43
1.0
 76
     1
 77
     6
 78
     2
 67
     7
 79
     5
170
     0
171
     0
290
     0
174
     0
 93
        1
 44
0.0
173
     0
291
     1
 45
0.0
1001
ACAD
1000
AcDbSavedByObjectVersion
1070
     0
  0
VISUALSTYLE
  5
2B
102
{ACAD_REACTORS
330
2A
102
}
330
2A
100
AcDbVisualStyle
  2
Flat
 70
     0
 71
     2
 72
     1
 73
     1
 90
        2
 40
-0.6
 41
30.0
 62
     5
 63
     7
 74
     0
 91
        4
 64
     7
 65
   257
 75
     1
175
     1
 42
1.0
 92
        8
 66
     7
 43
1.0
 76
     1
 77
     6
 78
     2
 67
     7
 79
     5
170
     0
171
     0
290
     0
174
     0
 93
       13
 44
0.0
173
     0
291
     1
 45
0.0
1001
ACAD
1000
AcDbSavedByObjectVersion
1070
     0
  0
VISUALSTYLE
  5
2C
102
{ACAD_REACTORS
330
2A
102
}
330
2A
100
AcDbVisualStyle
  2
FlatWithEdges
 70
     1
 71
     2
 72
     1
 73
     1
 90
        2
 40
-0.6
 41
30.0
 62
     5
 63
     7
 74
     1
 91
        4
 64
     7
 65
   257
 75
     1
175
     1
 42
1.0
 92
        0
 66
   257
 43
1.0
 76
     1
 77
     6
 78
     2
 67
     7
 79
     5
170
     0
171
     0
290
     0
174
     0
 93
       13
 44
0.0
173
     0
291
     1
 45
0.0
1001
ACAD
1000
AcDbSavedByObjectVersion
1070
     0
  0
VISUALSTYLE
  5
2D
102
{ACAD_REACTORS
330
2A
102
}
330
2A
100
AcDbVisualStyle
  2
Gouraud
 70
     2
 71
     2
 72
     2
 73
     1
 90
        2
 40
-0.6
 41
30.0
 62
     5
 63
     7
 74
     0
 91
        4
 64
     7
 65
   257
 75
     1
175
     1
 42
1.0
 92
        0
 66
     7
 43
1.0
 76
     1
 77
     6
 78
     2
 67
     7
 79
     5
170
     0
171
     0
290
     0
174
     0
 93
       13
 44
0.0
173
     0
291
     1
 45
0.0
1001
ACAD
1000
AcDbSavedByObjectVersion
1070
     0
  0
VISUALSTYLE
  5
2E
102
{ACAD_REACTORS
330
2A
102
}
330
2A
100
AcDbVisualStyle
  2
GouraudWithEdges
 70
     3
 71
     2
 72
     2
 73
     1
 90
        2
 40
-0.6
 41
30.0
 62
     5
 63
     7
 74
     1
 91
        4
 64
     7
 65
   257
 75
     1
175
     1
 42
1.0
 92
        0
 66
   257
 43
1.0
 76
     1
 77
     6
 78
     2
 67
     7
 79
     5
170
     0
171
     0
290
     0
174
     0
 93
       13
 44
0.0
173
     0
291
     1
 45
0.0
1001
ACAD
1000
AcDbSavedByObjectVersion
1070
     0
  0
VISUALSTYLE
  5
38
102
{ACAD_REACTORS
330
2A
102
}
330
2A
100
AcDbVisualStyle
  2
Linepattern
 70
    14
 71
     2
 72
     2
 73
     0
 90
        0
 40
-0.6
 41
-30.0
 62
     5
 63
     7
 74
     1
 91
        4
 64
     7
 65
   257
 75
     7
175
     7
 42
1.0
 92
        8
 66
     7
 43
1.0
 76
     1
 77
     6
 78
     2
 67
     7
 79
     5
170
     0
171
     0
290
     0
174
     0
 93
        1
 44
0.0
173
     0
291
     1
 45
0.0
1001
ACAD
1000
AcDbSavedByObjectVersion
1070
     0
  0
VISUALSTYLE
  5
33
102
{ACAD_REACTORS
330
2A
102
}
330
2A
100
AcDbVisualStyle
  2
Realistic
 70
     8
 71
     2
 72
     2
 73
     0
 90
        0
 40
-0.6
 41
-30.0
 62
     5
 63
     7
 74
     1
 91
        0
 64
     7
 65
   257
 75
     1
175
     1
 42
1.0
 92
        8
 66
     8
 43
1.0
 76
     1
 77
     6
 78
     2
 67
     7
 79
     5
170
     0
171
     0
290
     0
174
     0
 93
       13
 44
0.0
173
     0
291
     0
 45
0.0
1001
ACAD
1000
AcDbSavedByObjectVersion
1070
     0
  0
VISUALSTYLE
  5
37
102
{ACAD_REACTORS
330
2A
102
}
330
2A
100
AcDbVisualStyle
  2
Thicken
 70
    13
 71
     2
 72
     2
 73
     0
 90
        0
 40
-0.6
 41
-30.0
 62
     5
 63
     7
 74
     1
 91
        4
 64
     7
 65
   257
 75
     1
175
     1
 42
1.0
 92
       12
 66
     7
 43
1.0
 76
     1
 77
     6
 78
     2
 67
     7
 79
     5
170
     0
171
     0
290
     0
174
     0
 93
        1
 44
0.0
173
     0
291
     1
 45
0.0
1001
ACAD
1000
AcDbSavedByObjectVersion
1070
     0
  0
ENDSEC
  0
EOF
